<?xml version="1.0" standalone="no"?>
<!DOCTYPE svg PUBLIC "-//W3C//DTD SVG 1.1//EN" "http://www.w3.org/Graphics/SVG/1.1/DTD/svg11.dtd" >
<svg xmlns="http://www.w3.org/2000/svg" xmlns:xlink="http://www.w3.org/1999/xlink" version="1.1">
<metadata>
Created by FontForge 20141024 at Sat Apr 25 21:19:45 2015
 By System Administrator
Copyright (URW)++,Copyright 2006 by (URW)++ Design &#38; Development
</metadata>
<defs>
<font id="NimbusSan-RegIta" horiz-adv-x="500" >
  <font-face 
    font-family="Nimbus Sans"
    font-weight="400"
    font-style="italic"
    font-stretch="normal"
    units-per-em="1000"
    panose-1="0 0 5 0 0 0 0 0 0 0"
    ascent="667"
    descent="-333"
    x-height="478"
    cap-height="667"
    bbox="-127 -250 1102 900"
    underline-thickness="63"
    underline-position="-36"
    slope="-12"
    stemh="78"
    stemv="94"
    unicode-range="U+0020-FB04"
  />
<missing-glyph horiz-adv-x="300" 
 />
    <glyph glyph-name="fi" unicode="fi" horiz-adv-x="485" 
d="M305 483l-14 -67h-88l-88 -416h-92l89 416h-74l14 67h74l19 89c16 77 39 95 121 95h63l-16 -73h-25c-41 0 -49 -7 -57 -48l-14 -63h88zM466 483l-102 -483h-92l103 483h91zM505 667l-21 -100h-92l22 100h91z" />
    <glyph glyph-name="fl" unicode="fl" horiz-adv-x="485" 
d="M305 483l-14 -67h-88l-88 -416h-92l89 416h-74l14 67h74l19 89c16 77 39 95 121 95h63l-16 -73h-25c-41 0 -49 -7 -57 -48l-14 -63h88zM505 667l-141 -667h-92l142 667h91z" />
    <glyph glyph-name="ff" unicode="ff" horiz-adv-x="517" 
d="M305 483l-14 -67h-88l-88 -416h-92l89 416h-74l14 67h74l19 89c16 77 39 95 121 95h63l-16 -73h-25c-41 0 -49 -7 -57 -48l-14 -63h88zM563 483l-14 -67h-87l-89 -416h-92l89 416h-74l14 67h74l19 89c16 77 39 95 122 95h62l-15 -73h-25c-41 0 -49 -7 -58 -48l-13 -63h87
z" />
    <glyph glyph-name="ffi" unicode="ffi" horiz-adv-x="743" 
d="M305 483l-14 -67h-88l-88 -416h-92l89 416h-74l14 67h74l19 89c16 77 39 95 121 95h63l-16 -73h-25c-41 0 -49 -7 -57 -48l-14 -63h88zM563 483l-14 -67h-87l-89 -416h-92l89 416h-74l14 67h74l19 89c16 77 39 95 122 95h62l-15 -73h-25c-41 0 -49 -7 -58 -48l-13 -63h87
zM725 483l-103 -483h-92l103 483h92zM764 667l-22 -100h-91l21 100h92z" />
    <glyph glyph-name="ffl" unicode="ffl" horiz-adv-x="743" 
d="M305 483l-14 -67h-88l-88 -416h-92l89 416h-74l14 67h74l19 89c16 77 39 95 121 95h63l-16 -73h-25c-41 0 -49 -7 -57 -48l-14 -63h88zM563 483l-14 -67h-87l-89 -416h-92l89 416h-74l14 67h74l19 89c16 77 39 95 122 95h62l-15 -73h-25c-41 0 -49 -7 -58 -48l-13 -63h87
zM764 667l-142 -667h-92l142 667h92z" />
    <glyph glyph-name=".notdef" horiz-adv-x="300" 
 />
    <glyph glyph-name="space" unicode=" " horiz-adv-x="300" 
 />
    <glyph glyph-name="exclam" unicode="!" horiz-adv-x="250" 
d="M272 669l-131 -500h-65l87 500h109zM146 102l-22 -102h-103l22 102h103z" />
    <glyph glyph-name="quotedbl" unicode="&#x22;" horiz-adv-x="359" 
d="M164 400h-73l40 267h107zM331 400h-74l41 267h106z" />
    <glyph glyph-name="numbersign" unicode="#" horiz-adv-x="616" 
d="M392 227l-67 -192h-50l67 192h-113l-67 -192h-50l67 192h-119l17 48h119l38 107h-119l17 49h120l62 176h50l-62 -176h112l63 176h50l-62 -176h123l-17 -49h-124l-38 -107h124l-17 -48h-124zM397 382h-112l-38 -107h112z" />
    <glyph glyph-name="dollar" unicode="$" horiz-adv-x="553" 
d="M405 761l-17 -82c111 -18 175 -87 177 -190h-94c-1 56 -38 95 -101 108l-45 -213l63 -28c99 -44 134 -87 134 -166c0 -53 -21 -103 -60 -140c-46 -45 -109 -67 -194 -67c-10 0 -18 0 -28 1l-17 -79h-50l18 85c-122 24 -181 95 -177 214h91v-15c0 -61 34 -99 104 -116
l50 236l-29 13c-97 43 -140 95 -140 168c0 113 99 194 237 194c1 0 7 0 12 -1l16 78h50zM305 289l-47 -222c6 -1 11 -1 13 -1c89 0 153 47 153 112c0 43 -24 69 -94 100zM279 404l42 196c-82 -5 -132 -42 -132 -99c0 -41 22 -67 83 -93z" />
    <glyph glyph-name="percent" unicode="%" horiz-adv-x="802" 
d="M248 674c79 0 122 -54 122 -152c0 -68 -27 -160 -62 -216c-27 -41 -69 -65 -117 -65c-77 0 -122 54 -122 146c0 80 27 173 67 229c26 37 67 58 112 58zM249 608c-24 0 -48 -15 -63 -41c-27 -46 -46 -119 -46 -180c0 -52 20 -83 54 -83c24 0 46 17 62 47
c25 50 44 125 44 177c0 56 -15 80 -51 80zM625 667l-352 -667h-64l351 667h65zM646 426c78 0 122 -54 122 -152c0 -67 -27 -160 -62 -216c-27 -41 -70 -65 -117 -65c-77 0 -122 54 -122 146c0 80 27 174 66 229c26 36 68 58 113 58zM648 360c-25 0 -48 -15 -64 -41
c-28 -47 -46 -118 -46 -180c0 -52 20 -83 54 -83c24 0 45 17 61 47c27 51 45 123 45 176c0 57 -15 81 -50 81z" />
    <glyph glyph-name="ampersand" unicode="&#x26;" horiz-adv-x="633" 
d="M495 315h84c-12 -83 -31 -131 -76 -193l74 -122h-99l-35 58c-49 -45 -118 -71 -187 -71c-123 0 -210 80 -210 194c0 64 30 120 89 163c21 16 43 29 98 55l-15 24c-23 36 -36 75 -36 112c0 85 67 147 158 147c86 0 149 -60 149 -142c0 -69 -46 -124 -138 -168l106 -177
c21 38 33 77 38 120zM294 464l20 -30c62 35 87 65 87 104s-27 67 -64 67c-41 0 -72 -31 -72 -72c0 -19 8 -37 29 -69zM401 126l-128 208c-95 -45 -133 -88 -133 -149c0 -68 51 -115 125 -115c48 0 94 19 136 56z" />
    <glyph glyph-name="quoteright" unicode="&#x2019;" horiz-adv-x="238" 
d="M156 667h103l-16 -75c-20 -103 -65 -157 -139 -169l12 56c31 11 47 32 64 83h-47z" />
    <glyph glyph-name="parenleft" unicode="(" horiz-adv-x="320" 
d="M282 667h67c-141 -179 -209 -366 -209 -570c0 -96 14 -182 40 -253h-60c-41 95 -65 209 -65 308c0 190 69 346 227 515z" />
    <glyph glyph-name="parenright" unicode=")" horiz-adv-x="320" 
d="M40 -156h-67c142 184 209 365 209 571c0 95 -14 181 -40 252h61c41 -98 64 -210 64 -309c0 -189 -69 -345 -227 -514z" />
    <glyph glyph-name="asterisk" unicode="*" horiz-adv-x="371" 
d="M312 656l-22 -90l92 12l8 -79l-92 -7l40 -84l-73 -32l-35 85l-67 -63l-53 59l70 60l-81 44l40 69l79 -49l16 91z" />
    <glyph glyph-name="plus" unicode="+" 
d="M36 371h204v195h52v-195h205v-51h-205v-194h-52v194h-204v51z" />
    <glyph glyph-name="comma" unicode="," horiz-adv-x="238" 
d="M37 105h103l-16 -75c-20 -103 -65 -157 -139 -169l12 56c31 11 47 32 64 83h-47z" />
    <glyph glyph-name="hyphen" unicode="-" horiz-adv-x="272" 
d="M283 302l-18 -83h-272l18 83h272z" />
    <glyph glyph-name="period" unicode="." horiz-adv-x="238" 
d="M140 106l-23 -106h-103l23 106h103z" />
    <glyph glyph-name="slash" unicode="/" horiz-adv-x="335" 
d="M369 672l-284 -672h-78l285 672h77z" />
    <glyph glyph-name="zero" unicode="0" horiz-adv-x="553" 
d="M343 681c59 0 111 -23 142 -63c33 -41 47 -93 47 -172c0 -98 -39 -243 -90 -337c-44 -80 -111 -122 -196 -122c-120 0 -189 83 -189 227c0 131 44 284 108 374c40 58 108 93 178 93zM342 597c-45 0 -88 -28 -114 -74c-46 -81 -78 -208 -78 -307c0 -92 38 -146 101 -146
c48 0 90 34 119 95c41 86 72 213 72 292c0 92 -34 140 -100 140z" />
    <glyph glyph-name="one" unicode="1" horiz-adv-x="553" 
d="M441 660l-140 -660h-89l105 494c-39 -13 -87 -20 -142 -20h-29l14 66c98 -1 193 53 214 120h67z" />
    <glyph glyph-name="two" unicode="2" horiz-adv-x="553" 
d="M460 83l-18 -83h-409c26 158 65 210 227 302c75 44 103 64 126 88c23 25 37 61 37 97c0 63 -40 104 -102 104c-40 0 -74 -16 -96 -45c-13 -17 -20 -35 -31 -74h-88c14 60 28 94 51 125c39 50 98 77 169 77c114 0 191 -72 191 -179c0 -52 -19 -107 -50 -143
c-29 -34 -65 -60 -147 -109c-128 -73 -149 -92 -180 -160h320z" />
    <glyph glyph-name="three" unicode="3" horiz-adv-x="553" 
d="M247 308l17 79c13 -2 19 -2 30 -2c38 0 70 7 90 21c29 19 47 57 47 96c0 53 -40 89 -97 89c-67 0 -115 -42 -132 -116h-89c25 125 109 199 224 199c110 0 186 -68 186 -167c0 -43 -16 -87 -42 -116c-19 -21 -37 -32 -73 -43c57 -25 84 -66 84 -132
c0 -128 -105 -229 -238 -229c-122 0 -200 75 -200 192v20h90c-1 -7 -1 -17 -1 -20c0 -67 42 -109 109 -109c81 0 147 65 147 146c0 61 -37 95 -104 95c-21 0 -37 -1 -48 -3z" />
    <glyph glyph-name="four" unicode="4" horiz-adv-x="553" 
d="M306 153h-277l18 87l367 420h88l-92 -435h75l-15 -72h-75l-33 -153h-88zM322 225l62 293l-253 -293h191z" />
    <glyph glyph-name="five" unicode="5" horiz-adv-x="553" 
d="M259 577l-51 -166c40 24 74 34 114 34c112 0 188 -76 188 -188c0 -154 -110 -270 -256 -270c-109 0 -186 73 -186 176l1 33h86c-1 -9 -1 -19 -1 -25c0 -62 43 -101 109 -101c89 0 153 74 153 176c0 72 -43 115 -116 115c-51 0 -98 -23 -128 -63l-73 6l101 356h333
l-18 -83h-256z" />
    <glyph glyph-name="six" unicode="6" horiz-adv-x="553" 
d="M533 493h-89c1 7 1 12 1 17c0 48 -33 80 -83 80c-81 0 -145 -70 -194 -211c52 45 95 63 150 63c107 0 180 -77 180 -190c0 -148 -107 -265 -240 -265c-60 0 -111 23 -146 66c-33 41 -48 94 -48 172c0 247 137 449 304 449c100 0 165 -65 165 -166v-15zM297 359
c-83 0 -145 -68 -145 -159c0 -78 46 -130 114 -130c74 0 139 79 139 169c0 74 -42 120 -108 120z" />
    <glyph glyph-name="seven" unicode="7" horiz-adv-x="553" 
d="M560 660l-19 -92c-146 -140 -300 -404 -333 -568h-98c49 197 171 399 348 577h-346l18 83h430z" />
    <glyph glyph-name="eight" unicode="8" horiz-adv-x="553" 
d="M418 347c45 -30 65 -70 65 -130c0 -130 -101 -230 -231 -230c-122 0 -203 74 -203 184c0 93 53 165 140 192c-48 38 -63 66 -63 117c0 111 91 194 211 194c117 0 192 -64 192 -164c0 -81 -39 -138 -111 -163zM332 591c-72 0 -123 -49 -123 -117c0 -56 39 -87 108 -87
c40 0 74 12 95 33c19 18 34 53 34 79c0 56 -44 92 -114 92zM277 315c-79 0 -135 -59 -135 -143c0 -60 45 -102 111 -102c42 0 80 16 102 44c20 25 35 66 35 99c0 65 -41 102 -113 102z" />
    <glyph glyph-name="nine" unicode="9" horiz-adv-x="553" 
d="M60 168h87c-1 -8 -1 -15 -1 -19c0 -50 30 -79 82 -79c83 0 157 87 187 221c-45 -55 -90 -78 -150 -78c-105 0 -177 78 -177 191c0 150 104 270 235 270c124 0 196 -86 196 -233c0 -118 -35 -244 -92 -335c-48 -76 -122 -119 -206 -119c-98 0 -163 60 -163 152
c0 5 1 18 2 29zM325 590c-78 0 -144 -81 -144 -177c0 -72 41 -117 106 -117c78 0 141 75 141 168c0 78 -39 126 -103 126z" />
    <glyph glyph-name="colon" unicode=":" horiz-adv-x="238" 
d="M140 106l-23 -106h-103l23 106h103zM220 483l-23 -106h-103l23 106h103z" />
    <glyph glyph-name="semicolon" unicode=";" horiz-adv-x="238" 
d="M36 105h103l-16 -75c-20 -103 -65 -157 -139 -169l12 56c31 11 47 32 64 83h-47zM220 483l-23 -106h-103l22 106h104z" />
    <glyph glyph-name="less" unicode="&#x3c;" 
d="M483 590v-100l-327 -155l327 -155v-98l-433 211v85z" />
    <glyph glyph-name="equal" unicode="=" 
d="M36 442h462v-49h-462v49zM36 299h462v-49h-462v49z" />
    <glyph glyph-name="greater" unicode="&#x3e;" 
d="M50 82v99l327 155l-327 155v99l433 -212v-85z" />
    <glyph glyph-name="question" unicode="?" horiz-adv-x="473" 
d="M263 171h-91c21 108 42 137 147 198c57 35 85 78 85 129c0 59 -42 99 -106 99c-72 0 -121 -52 -129 -136h-89c15 139 100 220 227 220c115 0 190 -71 190 -179c0 -84 -41 -141 -141 -199c-62 -34 -87 -69 -93 -132zM261 102l-22 -102h-103l21 102h104z" />
    <glyph glyph-name="at" unicode="@" horiz-adv-x="685" 
d="M622 168h41c-47 -104 -165 -176 -290 -176c-184 0 -330 147 -330 331c0 187 148 335 335 335c167 0 298 -121 298 -274c0 -75 -30 -139 -87 -186c-38 -31 -84 -50 -122 -50c-37 0 -62 19 -68 52c-38 -37 -69 -52 -107 -52c-64 0 -108 50 -108 122c0 116 94 231 189 231
c43 0 73 -20 92 -60l16 45h53l-80 -235c-7 -21 -9 -31 -9 -41c0 -19 14 -31 36 -31c30 0 65 19 96 50c41 42 62 94 62 153c0 136 -114 242 -261 242c-167 0 -296 -131 -296 -301c0 -165 129 -296 292 -296c102 0 200 56 248 141zM410 287l23 63c9 26 12 39 12 53
c0 37 -26 66 -58 66c-70 0 -145 -111 -145 -215c0 -47 23 -76 59 -76c24 0 49 12 68 32c16 18 26 37 41 77z" />
    <glyph glyph-name="A" unicode="A" horiz-adv-x="582" 
d="M421 187h-259l-98 -187h-104l365 667h110l105 -667h-92zM410 265l-44 313l-163 -313h207z" />
    <glyph glyph-name="B" unicode="B" horiz-adv-x="633" 
d="M25 0l142 667h230c77 0 121 -11 153 -39c33 -29 52 -74 52 -125c0 -74 -36 -121 -115 -153c62 -26 91 -68 91 -136c0 -66 -30 -126 -81 -163c-51 -36 -114 -51 -221 -51h-251zM203 389h141c55 0 90 7 118 25s46 50 46 85c0 26 -10 49 -27 63c-20 17 -43 22 -99 22h-138z
M138 83h142c72 0 109 6 142 25c35 19 57 57 57 99c0 33 -14 63 -36 78c-23 16 -54 21 -120 21h-138z" />
    <glyph glyph-name="C" unicode="C" horiz-adv-x="667" 
d="M669 461h-95c-4 86 -66 140 -159 140c-145 0 -260 -146 -260 -329c0 -132 63 -206 175 -206c99 0 170 52 207 152h96c-48 -153 -155 -235 -308 -235c-167 0 -268 108 -268 287c0 235 155 414 359 414c149 0 239 -80 253 -223z" />
    <glyph glyph-name="D" unicode="D" horiz-adv-x="664" 
d="M25 0l142 667h188c104 0 160 -14 205 -53c52 -45 80 -116 80 -207c0 -116 -43 -231 -114 -309c-70 -76 -140 -98 -305 -98h-196zM138 84h109c113 0 165 18 212 75c52 63 84 154 84 240c0 58 -15 107 -43 139c-28 34 -67 46 -145 46h-111z" />
    <glyph glyph-name="E" unicode="E" horiz-adv-x="562" 
d="M585 667l-18 -83h-323l-41 -192h320l-17 -83h-320l-48 -226h358l-17 -83h-454l142 667h418z" />
    <glyph glyph-name="F" unicode="F" horiz-adv-x="502" 
d="M558 667l-18 -83h-296l-43 -201h302l-17 -83h-302l-64 -300h-95l142 667h391z" />
    <glyph glyph-name="G" unicode="G" horiz-adv-x="711" 
d="M372 359h303l-77 -359h-73l8 80c-64 -68 -128 -97 -211 -97c-158 0 -263 115 -263 287c0 112 42 223 113 303c64 72 154 111 253 111c144 0 234 -77 244 -208h-93c-12 79 -69 125 -157 125c-65 0 -120 -25 -166 -74c-62 -68 -96 -159 -96 -260c0 -71 18 -121 56 -155
c32 -30 77 -46 126 -46c113 0 203 85 227 213h-212z" />
    <glyph glyph-name="H" unicode="H" horiz-adv-x="665" 
d="M505 319h-317l-68 -319h-95l142 667h95l-57 -265h318l56 265h95l-141 -667h-95z" />
    <glyph glyph-name="I" unicode="I" horiz-adv-x="252" 
d="M262 667l-142 -667h-95l142 667h95z" />
    <glyph glyph-name="J" unicode="J" horiz-adv-x="476" 
d="M9 230h96c-12 -48 -16 -70 -16 -95c0 -45 30 -69 88 -69c37 0 66 13 83 38c14 21 19 36 35 111l96 452h95l-105 -490c-17 -83 -32 -116 -63 -146c-34 -32 -84 -48 -148 -48c-114 0 -177 51 -177 144c0 29 3 46 16 103z" />
    <glyph glyph-name="K" unicode="K" horiz-adv-x="600" 
d="M354 396l206 -396h-108l-168 331l-116 -104l-48 -227h-95l142 667h95l-68 -322l329 322h128z" />
    <glyph glyph-name="L" unicode="L" horiz-adv-x="539" 
d="M262 667l-124 -584h345l-17 -83h-441l142 667h95z" />
    <glyph glyph-name="M" unicode="M" horiz-adv-x="783" 
d="M389 0h-95l-52 375c-8 55 -15 119 -18 169c-11 -72 -13 -84 -32 -169l-77 -375h-90l142 667h124l56 -464c4 -39 8 -75 11 -110c13 28 22 45 50 97l262 477h123l-142 -667h-90l79 362c17 80 23 104 45 182c-35 -72 -66 -133 -87 -169z" />
    <glyph glyph-name="N" unicode="N" horiz-adv-x="665" 
d="M533 0h-94l-184 449c-14 33 -18 43 -29 74c-1 1 -3 6 -5 13c-2 -28 -15 -110 -24 -150l-82 -386h-90l142 667h94l176 -429c16 -38 31 -79 41 -111c3 43 9 77 27 163l80 377h90z" />
    <glyph glyph-name="O" unicode="O" horiz-adv-x="714" 
d="M422 684c167 0 267 -109 267 -291c0 -223 -164 -410 -361 -410c-163 0 -268 116 -268 297c0 225 160 404 362 404zM418 601c-145 0 -260 -146 -260 -332c0 -123 69 -203 176 -203c74 0 142 37 187 102c44 63 73 154 73 226c0 129 -66 207 -176 207z" />
    <glyph glyph-name="P" unicode="P" horiz-adv-x="569" 
d="M177 266l-57 -266h-95l142 667h216c66 0 112 -17 149 -53c35 -34 53 -80 53 -134c0 -58 -21 -113 -59 -151c-41 -42 -98 -63 -173 -63h-176zM194 349h138c63 0 91 8 119 35c23 23 36 55 36 91c0 35 -12 64 -34 83c-21 19 -45 26 -91 26h-118z" />
    <glyph glyph-name="Q" unicode="Q" horiz-adv-x="714" 
d="M526 51l89 -89l-62 -52l-99 99c-40 -17 -82 -26 -125 -26c-164 0 -269 115 -269 297c0 226 160 404 363 404c164 0 266 -110 266 -286c0 -140 -56 -259 -163 -347zM400 177l66 -66c79 64 128 176 128 291c0 120 -69 199 -175 199c-69 0 -132 -30 -177 -85
c-53 -65 -84 -155 -84 -247c0 -123 69 -203 175 -203c20 0 36 2 57 8l-55 55z" />
    <glyph glyph-name="R" unicode="R" horiz-adv-x="641" 
d="M181 286l-61 -286h-95l142 667h239c77 0 122 -11 156 -37c36 -28 57 -78 57 -136c0 -96 -47 -152 -149 -176c63 -14 82 -41 82 -116c0 -20 0 -23 -1 -33l-4 -55c-1 -14 -1 -15 -1 -42c0 -34 4 -47 21 -72h-111c-6 19 -7 30 -7 49c0 14 1 39 3 65l4 46c1 11 1 22 1 32
c0 68 -33 94 -119 94h-157zM198 369h138c72 0 113 8 143 27c29 18 46 53 46 92c0 66 -36 96 -116 96h-165z" />
    <glyph glyph-name="S" unicode="S" horiz-adv-x="594" 
d="M584 489h-94c-5 72 -56 112 -142 112c-83 0 -140 -41 -140 -100c0 -41 22 -66 83 -93l116 -52c99 -44 134 -87 134 -166c0 -53 -21 -103 -60 -140c-47 -46 -109 -67 -196 -67c-108 0 -188 36 -227 101c-18 30 -24 60 -25 120h91v-15c0 -77 61 -123 163 -123
c92 0 156 46 156 112c0 43 -24 69 -94 100l-100 44c-97 43 -140 95 -140 168c0 113 99 194 237 194c146 0 235 -73 238 -195z" />
    <glyph glyph-name="T" unicode="T" horiz-adv-x="496" 
d="M370 584l-124 -584h-95l124 584h-198l18 83h483l-18 -83h-190z" />
    <glyph glyph-name="U" unicode="U" horiz-adv-x="655" 
d="M569 667h95l-87 -413c-24 -113 -42 -152 -88 -197c-49 -48 -117 -74 -192 -74c-135 0 -228 75 -228 183c0 19 7 72 12 99l86 402h95l-84 -397c-11 -48 -14 -69 -14 -88c0 -69 56 -116 140 -116c54 0 101 21 130 58c24 32 31 52 50 141z" />
    <glyph glyph-name="V" unicode="V" horiz-adv-x="556" 
d="M522 667h103l-331 -667h-102l-117 667h101l67 -454c8 -57 12 -95 14 -128c10 37 21 65 47 121z" />
    <glyph glyph-name="W" unicode="W" horiz-adv-x="794" 
d="M224 0h-98l-51 667h98l21 -365c1 -27 2 -52 2 -66c0 -3 -1 -97 -2 -135c22 68 57 164 72 201l153 365h101l30 -365c5 -84 6 -101 6 -180v-21c13 56 28 102 59 183l150 383h98l-273 -667h-97l-30 357c-4 39 -7 120 -7 163c0 24 0 37 2 66c-28 -98 -40 -130 -91 -249z" />
    <glyph glyph-name="X" unicode="X" horiz-adv-x="530" 
d="M334 343l155 -343h-97l-120 262l-203 -262h-109l271 350l-143 317h100l107 -236l183 236h109z" />
    <glyph glyph-name="Y" unicode="Y" horiz-adv-x="533" 
d="M312 244l-52 -244h-95l55 257l-150 410h108l104 -326l218 326h117z" />
    <glyph glyph-name="Z" unicode="Z" horiz-adv-x="553" 
d="M585 667l-17 -77l-349 -406c-29 -34 -36 -41 -80 -88l-12 -13h383l-17 -83h-495l19 88l338 394c24 28 64 71 94 102h-354l18 83h472z" />
    <glyph glyph-name="bracketleft" unicode="[" horiz-adv-x="372" 
d="M381 577h-150l-138 -650h150l-17 -83h-239l174 816h238z" />
    <glyph glyph-name="backslash" unicode="\" horiz-adv-x="335" 
d="M147 672h76v-672h-79z" />
    <glyph glyph-name="bracketright" unicode="]" horiz-adv-x="372" 
d="M-9 -73h150l138 650h-150l18 83h238l-173 -816h-239z" />
    <glyph glyph-name="asciicircum" unicode="^" 
d="M134 367h-91l167 302h113l167 -302h-92l-132 234z" />
    <glyph glyph-name="underscore" unicode="_" 
d="M17 -67h500v-63h-500v63z" />
    <glyph glyph-name="quoteleft" unicode="&#x2018;" horiz-adv-x="238" 
d="M207 423h-103l16 75c20 103 65 157 139 169l-12 -56c-31 -11 -47 -32 -64 -83h47z" />
    <glyph glyph-name="a" unicode="a" horiz-adv-x="501" 
d="M161 350h-85c28 97 100 146 214 146c98 0 162 -43 162 -109c0 -12 -5 -48 -10 -69l-36 -170c-7 -34 -8 -41 -8 -52c0 -25 10 -33 38 -33h18l-15 -69h-35c-52 0 -69 14 -74 58c-40 -45 -85 -65 -149 -65c-48 0 -87 13 -114 39s-44 69 -44 110c0 44 19 86 51 112
c30 26 73 39 139 43l78 5c38 3 52 7 62 20c9 12 15 32 15 53c0 39 -26 57 -83 57c-72 0 -107 -22 -124 -76zM338 218l4 16c-13 -2 -18 -3 -28 -5c-5 0 -14 -1 -26 -3l-24 -2l-55 -6c-62 -7 -92 -34 -92 -82c0 -44 30 -72 79 -72c40 0 83 20 104 49c15 20 28 55 38 105z" />
    <glyph glyph-name="b" unicode="b" horiz-adv-x="542" 
d="M156 667h91l-48 -227c44 40 83 56 132 56c103 0 173 -81 173 -200c0 -76 -27 -157 -72 -218c-44 -59 -106 -91 -175 -91s-115 26 -144 81l-14 -68h-85zM305 419c-89 0 -163 -106 -163 -236c0 -73 40 -119 104 -119c39 0 78 20 105 56c35 46 60 115 60 169
c0 81 -39 130 -106 130z" />
    <glyph glyph-name="c" unicode="c" horiz-adv-x="492" 
d="M479 329h-86c0 55 -38 91 -96 91c-40 0 -80 -18 -107 -49c-40 -46 -65 -116 -65 -180c0 -78 41 -127 106 -127c59 0 104 32 133 93h88c-32 -106 -115 -170 -221 -170c-123 0 -200 75 -200 196c0 93 36 183 97 245c43 44 102 68 166 68c110 0 185 -67 185 -167z" />
    <glyph glyph-name="d" unicode="d" horiz-adv-x="540" 
d="M561 667l-142 -667h-85l12 57c-50 -51 -88 -70 -142 -70c-105 0 -174 78 -174 195c0 83 33 173 86 235c43 50 106 80 168 80c63 0 100 -24 131 -84l54 254h92zM291 420c-45 0 -86 -24 -115 -67c-32 -48 -53 -116 -53 -170c0 -73 39 -119 100 -119c44 0 88 26 117 68
c32 48 55 119 55 170c0 75 -38 118 -104 118z" />
    <glyph glyph-name="e" unicode="e" horiz-adv-x="527" 
d="M480 219h-355c-2 -15 -3 -22 -3 -32c0 -76 44 -123 115 -123c53 0 98 26 126 74h94c-48 -102 -121 -151 -225 -151c-122 0 -197 79 -197 207c0 81 28 162 76 220c45 56 111 86 186 86c117 0 193 -76 193 -195c0 -26 -3 -50 -10 -86zM402 292l1 24c0 68 -40 107 -109 107
c-75 0 -128 -46 -153 -131h261z" />
    <glyph glyph-name="f" unicode="f" horiz-adv-x="258" 
d="M305 483l-14 -67h-88l-88 -416h-92l89 416h-74l14 67h74l19 89c16 77 39 95 121 95h63l-16 -73h-25c-41 0 -49 -7 -57 -48l-14 -63h88z" />
    <glyph glyph-name="g" unicode="g" horiz-adv-x="542" 
d="M440 488h85l-88 -415c-20 -91 -38 -132 -73 -168c-39 -38 -99 -59 -170 -59c-111 0 -170 46 -173 136h89c0 -18 1 -25 7 -33c11 -18 44 -29 87 -29c86 0 127 39 150 143c-51 -38 -91 -54 -136 -54c-108 0 -181 83 -181 207c0 159 105 280 243 280c67 0 106 -21 145 -76z
M286 419c-88 0 -155 -89 -155 -208c0 -78 40 -126 105 -126c50 0 96 26 121 68c24 40 40 99 40 147c0 77 -40 119 -111 119z" />
    <glyph glyph-name="h" unicode="h" horiz-adv-x="521" 
d="M156 667h91l-51 -242c59 52 101 71 153 71c74 0 127 -46 127 -112c0 -18 -3 -43 -10 -73l-66 -311h-92l67 311c6 30 8 43 8 56c0 33 -22 52 -60 52c-77 0 -142 -66 -164 -167l-53 -252h-92z" />
    <glyph glyph-name="i" unicode="i" horiz-adv-x="226" 
d="M208 483l-102 -483h-92l103 483h91zM247 667l-21 -100h-92l22 100h91z" />
    <glyph glyph-name="j" unicode="j" horiz-adv-x="226" 
d="M117 483h92l-109 -510c-21 -102 -45 -126 -124 -126h-65l16 81h22c44 0 52 9 66 73zM247 667l-22 -100h-91l21 100h92z" />
    <glyph glyph-name="k" unicode="k" horiz-adv-x="483" 
d="M305 314l111 -314h-94l-88 256l-89 -73l-39 -183h-92l142 667h91l-80 -377l219 193h126z" />
    <glyph glyph-name="l" unicode="l" horiz-adv-x="226" 
d="M247 667l-141 -667h-92l142 667h91z" />
    <glyph glyph-name="m" unicode="m" horiz-adv-x="797" 
d="M117 483h85l-14 -64c63 55 111 77 165 77c63 0 102 -30 111 -87c52 57 110 87 169 87c72 0 120 -43 120 -109c0 -19 -3 -40 -9 -71l-68 -316h-91l64 304c9 40 10 47 10 62c0 32 -21 53 -54 53c-75 0 -140 -66 -161 -164l-54 -255h-92l65 304c7 34 9 46 9 61
c0 35 -18 54 -52 54c-41 0 -85 -24 -112 -60c-25 -33 -42 -77 -56 -140l-46 -219h-92z" />
    <glyph glyph-name="n" unicode="n" horiz-adv-x="522" 
d="M117 483h85l-14 -64c57 55 103 77 159 77c79 0 130 -46 130 -115c0 -19 -2 -37 -8 -66l-68 -315h-91l66 310c7 32 8 41 8 52c0 36 -21 57 -57 57c-32 0 -68 -15 -98 -40c-37 -31 -57 -69 -71 -131l-52 -248h-92z" />
    <glyph glyph-name="o" unicode="o" horiz-adv-x="540" 
d="M303 496c124 0 200 -79 200 -209c0 -80 -32 -162 -86 -220c-49 -53 -110 -80 -182 -80c-124 0 -201 81 -201 210c0 166 119 299 269 299zM298 419c-95 0 -171 -98 -171 -220c0 -81 45 -135 112 -135c40 0 82 22 110 56c36 44 61 112 61 166c0 85 -41 133 -112 133z" />
    <glyph glyph-name="p" unicode="p" horiz-adv-x="541" 
d="M119 483h85l-12 -53c57 51 90 67 140 67c100 0 170 -83 170 -202c0 -169 -111 -308 -245 -308c-60 0 -98 19 -139 71l-47 -225h-92zM307 420c-88 0 -166 -108 -166 -230c0 -78 40 -126 105 -126c40 0 86 26 112 63c31 45 54 117 54 168c0 77 -40 125 -105 125z" />
    <glyph glyph-name="q" unicode="q" horiz-adv-x="543" 
d="M440 483h85l-139 -650h-91l46 217c-37 -42 -81 -63 -135 -63c-105 0 -174 78 -174 199c0 90 36 182 94 243c41 42 100 67 159 67c69 0 118 -31 138 -88zM290 419c-43 0 -83 -22 -110 -61c-33 -47 -54 -114 -54 -174c0 -72 42 -120 106 -120c44 0 91 28 115 68
c27 44 47 110 50 164c4 71 -42 123 -107 123z" />
    <glyph glyph-name="r" unicode="r" horiz-adv-x="336" 
d="M119 493h85l-22 -102c45 75 83 106 134 106c19 0 32 -3 54 -14l-24 -85c-22 6 -33 7 -48 7c-35 0 -66 -15 -91 -44c-24 -28 -36 -56 -49 -113l-52 -248h-92z" />
    <glyph glyph-name="s" unicode="s" horiz-adv-x="459" 
d="M443 335h-83c-2 51 -42 85 -102 85c-54 0 -94 -26 -94 -61c0 -21 12 -32 58 -53l73 -32c80 -36 112 -74 112 -133c0 -91 -81 -154 -197 -154c-121 0 -198 70 -198 181v14h90c-1 -8 -1 -15 -1 -21c0 -58 46 -97 113 -97c58 0 102 30 102 69c0 27 -12 40 -60 62l-77 36
c-42 19 -56 28 -70 43c-20 21 -30 46 -30 76c0 87 74 147 180 147c76 0 140 -33 168 -88c13 -23 16 -40 16 -74z" />
    <glyph glyph-name="t" unicode="t" horiz-adv-x="265" 
d="M294 483l-15 -67h-72l-58 -275c-6 -25 -6 -25 -6 -34c0 -20 12 -30 37 -30c14 0 26 2 43 8l-15 -76c-22 -6 -40 -9 -57 -9c-59 0 -103 34 -103 79c0 9 3 36 6 48l61 289h-72l16 67h72l29 142h91l-28 -142h71z" />
    <glyph glyph-name="u" unicode="u" horiz-adv-x="524" 
d="M507 483l-103 -483h-85l17 79c-54 -66 -100 -92 -165 -92c-77 0 -129 47 -129 115c0 18 5 53 13 90l62 291h91l-65 -309c-4 -19 -7 -41 -7 -54c0 -35 23 -57 59 -57c39 0 88 27 120 68c26 34 38 64 53 134l47 218h92z" />
    <glyph glyph-name="v" unicode="v" horiz-adv-x="440" 
d="M381 483h98l-267 -483h-95l-71 483h93l30 -275c7 -59 11 -100 11 -129c15 44 28 73 51 115z" />
    <glyph glyph-name="w" unicode="w" horiz-adv-x="675" 
d="M190 0h-85l-59 483h93l22 -273c2 -26 4 -65 4 -79c0 -11 0 -18 -1 -35c14 46 24 73 44 121l123 266h93l17 -273c1 -25 2 -42 2 -58c0 -12 0 -12 -2 -56c15 47 26 75 45 114l132 273h97l-251 -483h-86l-18 276c-1 16 -2 50 -2 62v32v18c-17 -54 -23 -71 -42 -112z" />
    <glyph glyph-name="x" unicode="x" horiz-adv-x="438" 
d="M319 306l-51 -63c8 -14 18 -34 36 -67l88 -176h-102l-60 127c-5 12 -14 31 -24 56c-2 -2 -5 -5 -7 -9c-10 -14 -22 -29 -35 -47l-96 -127h-114l163 196c4 5 15 19 21 26l18 22c3 3 5 5 7 8c-16 27 -22 37 -30 54l-90 177h103l57 -121c3 -7 7 -15 11 -23c2 -5 5 -9 13 -27
c9 14 26 37 35 50l95 121h109z" />
    <glyph glyph-name="y" unicode="y" horiz-adv-x="443" 
d="M385 483h98l-300 -565c-37 -69 -64 -85 -147 -85h-56l16 73h32c50 0 58 6 86 60l14 27l-81 490h95l35 -240c5 -29 10 -95 13 -153c14 35 39 87 66 139z" />
    <glyph glyph-name="z" unicode="z" horiz-adv-x="431" 
d="M440 478l-11 -51l-239 -268c-31 -33 -57 -62 -79 -86h272l-15 -73h-385l16 73l232 257c22 24 23 26 31 35c22 24 25 27 36 40h-245l15 73h372z" />
    <glyph glyph-name="braceleft" unicode="{" 
d="M332 501l-29 -141c-16 -66 -35 -94 -81 -115c27 -17 37 -36 37 -67c0 -13 -2 -34 -6 -50l-29 -138c-3 -11 -6 -39 -6 -46c0 -20 11 -34 31 -40c15 -5 23 -6 51 -6l-18 -85c-68 0 -102 3 -119 8c-34 12 -51 39 -51 81c0 14 3 39 7 58l33 155c3 15 5 28 5 40
c0 29 -13 45 -42 54l16 77c45 12 64 35 77 90l35 167c11 51 29 83 58 106c30 23 64 30 146 30h19l-19 -90c-75 0 -101 -20 -115 -88z" />
    <glyph glyph-name="bar" unicode="|" 
d="M217 667h100v-834h-100v834z" />
    <glyph glyph-name="braceright" unicode="}" 
d="M165 -9l30 140c16 67 35 95 80 115c-26 18 -36 36 -36 67c0 14 2 35 6 51l29 138c3 13 6 38 6 46c0 20 -11 33 -31 40c-15 5 -22 6 -51 6l18 85h18c62 0 93 -4 112 -13c26 -13 40 -39 40 -76c0 -16 -2 -35 -8 -59l-32 -154c-3 -14 -5 -28 -5 -40c0 -29 13 -46 42 -54
l-17 -77c-44 -13 -64 -36 -76 -90l-35 -167c-11 -52 -29 -84 -58 -106c-31 -24 -63 -31 -146 -31c-3 0 -11 0 -19 1l19 89c75 1 100 21 114 89z" />
    <glyph glyph-name="asciitilde" unicode="~" horiz-adv-x="667" 
d="M162 572l-51 41c35 80 82 120 140 120c26 0 57 -10 114 -37c55 -26 68 -31 88 -31c34 0 59 20 87 70l51 -41c-35 -81 -82 -118 -148 -118c-26 0 -40 5 -117 42c-36 17 -60 25 -79 25c-33 0 -57 -20 -85 -71z" />
    <glyph glyph-name="exclamdown" unicode="&#xa1;" horiz-adv-x="250" 
d="M-19 -157l131 500h65l-87 -500h-109zM107 410l22 102h103l-22 -102h-103z" />
    <glyph glyph-name="cent" unicode="&#xa2;" horiz-adv-x="553" 
d="M401 676l-18 -83c88 -15 145 -81 143 -164h-86c2 44 -27 80 -73 89l-76 -354c54 6 97 39 120 93h88c-33 -107 -122 -174 -224 -170l-21 -96h-51l22 101c-93 19 -147 90 -147 191c0 172 113 311 255 314l17 79h51zM242 169l74 348c-22 -4 -40 -13 -58 -26
c-49 -38 -86 -124 -86 -201c0 -60 25 -104 70 -121z" />
    <glyph glyph-name="sterling" unicode="&#xa3;" horiz-adv-x="553" 
d="M229 354h167l-16 -73h-151c2 -14 3 -22 3 -31c0 -49 -25 -102 -81 -170c28 13 49 17 79 17c20 0 44 -3 78 -11c45 -10 55 -11 74 -11c35 0 65 9 98 31l-4 -86c-42 -23 -67 -30 -106 -30c-31 0 -49 3 -101 19c-44 13 -69 18 -94 18c-34 0 -57 -8 -112 -39l-33 68
c47 32 67 53 85 91c15 31 23 65 23 95c0 12 -1 21 -3 39h-89l15 73h71c-11 49 -15 75 -15 106c0 131 96 224 232 224c122 0 192 -68 192 -188c0 -5 0 -16 -1 -28h-86v15c0 76 -39 117 -112 117c-35 0 -67 -12 -91 -35c-27 -26 -38 -59 -38 -109c0 -31 1 -40 16 -102z" />
    <glyph glyph-name="fraction" unicode="&#x2044;" horiz-adv-x="128" 
d="M289 667l-352 -667h-64l351 667h65z" />
    <glyph glyph-name="yen" unicode="&#xa5;" horiz-adv-x="553" 
d="M338 246l-53 -246h-95l53 248h-118l16 73h81l-46 127h-109l16 73h66l-54 146h108l47 -146h178l98 146h116l-105 -146h54l-16 -73h-91l-91 -127h83l-16 -73zM379 448h-105l34 -107z" />
    <glyph glyph-name="florin" unicode="&#x192;" horiz-adv-x="553" 
d="M443 483l-15 -73h-87l-112 -577h-92l112 577h-74l14 73h74l18 89c15 77 37 95 119 95h63l-14 -73h-25c-41 0 -49 -6 -57 -48l-12 -63h88z" />
    <glyph glyph-name="section" unicode="&#xa7;" horiz-adv-x="570" 
d="M514 504h-90c1 8 1 16 1 21c0 45 -27 71 -75 71c-46 0 -79 -26 -79 -64c0 -25 15 -48 57 -89l107 -101c52 -50 70 -84 70 -133c0 -71 -40 -127 -111 -154c14 -30 18 -45 18 -68c0 -89 -75 -154 -178 -154c-70 0 -123 27 -150 75c-15 27 -22 59 -22 108h96v-11
c1 -56 32 -88 86 -88c44 0 76 28 76 68c0 30 -10 47 -52 87l-98 94c-71 67 -91 102 -91 156c0 40 16 77 46 105c17 16 33 25 69 41c-11 19 -16 40 -16 65c0 87 71 147 173 147c106 0 164 -56 164 -160c0 -2 0 -10 -1 -16zM370 283l-136 128c-41 -17 -64 -48 -64 -87
c0 -28 15 -51 63 -97l121 -115c40 23 58 51 58 91c0 27 -13 53 -42 80z" />
    <glyph glyph-name="currency" unicode="&#xa4;" horiz-adv-x="695" 
d="M78 108l93 96c-29 42 -45 89 -45 138c0 47 12 80 47 137l-97 96l53 52l97 -97c59 37 90 47 139 47s78 -10 136 -46l98 96l52 -53l-96 -95c33 -49 47 -89 47 -140c0 -47 -10 -79 -44 -135l95 -96l-52 -52l-95 95c-45 -33 -88 -48 -137 -48c-46 0 -90 14 -144 48l-95 -95z
M366 493c-85 0 -152 -67 -152 -153c0 -83 67 -151 150 -151s150 68 150 152c0 83 -67 152 -148 152z" />
    <glyph glyph-name="quotesingle" unicode="'" horiz-adv-x="196" 
d="M167 400h-76l40 267h110z" />
    <glyph glyph-name="quotedblleft" unicode="&#x201c;" horiz-adv-x="396" 
d="M366 423h-104l16 75c21 103 65 157 139 169l-11 -56c-32 -11 -48 -32 -65 -83h47zM207 423h-103l16 75c20 103 65 157 139 169l-12 -56c-31 -11 -47 -32 -64 -83h47z" />
    <glyph glyph-name="guillemotleft" unicode="&#xab;" horiz-adv-x="432" 
d="M349 80l-130 140l16 75l184 115l-20 -94l-117 -68l85 -83zM157 80l-130 140l16 75l184 115l-20 -94l-117 -68l85 -83z" />
    <glyph glyph-name="guilsinglleft" unicode="&#x2039;" horiz-adv-x="240" 
d="M157 80l-130 140l16 75l184 115l-20 -94l-117 -68l85 -83z" />
    <glyph glyph-name="guilsinglright" unicode="&#x203a;" horiz-adv-x="240" 
d="M80 410l130 -140l-16 -76l-184 -114l20 93l117 68l-85 83z" />
    <glyph glyph-name="endash" unicode="&#x2013;" horiz-adv-x="553" 
d="M518 302l-18 -83h-460l18 83h460z" />
    <glyph glyph-name="dagger" unicode="&#x2020;" horiz-adv-x="540" 
d="M541 427l-18 -83h-188l-110 -517h-91l110 517h-188l18 83h187l51 240h92l-51 -240h188z" />
    <glyph glyph-name="daggerdbl" unicode="&#x2021;" horiz-adv-x="540" 
d="M541 427l-17 -83h-188l-41 -194h188l-18 -83h-188l-51 -240h-91l51 240h-188l18 83h187l41 194h-187l18 83h187l51 240h92l-51 -240h187z" />
    <glyph glyph-name="periodcentered" unicode="&#xb7;" horiz-adv-x="238" 
d="M183 306l-23 -106h-103l23 106h103z" />
    <glyph glyph-name="paragraph" unicode="&#xb6;" horiz-adv-x="573" 
d="M156 -113l91 428h-15c-93 0 -151 52 -151 135c0 62 33 128 84 168c44 34 97 49 178 49h241l-8 -41h-57l-157 -739h-52l157 739h-102l-157 -739h-52z" />
    <glyph glyph-name="bullet" unicode="&#x2022;" horiz-adv-x="667" 
d="M354 477c74 0 136 -63 136 -138c0 -77 -62 -139 -138 -139s-139 62 -139 138c0 78 62 139 141 139z" />
    <glyph glyph-name="quotesinglbase" unicode="&#x201a;" horiz-adv-x="238" 
d="M37 105h103l-16 -75c-20 -103 -65 -157 -139 -169l12 56c31 11 47 32 64 83h-47z" />
    <glyph glyph-name="quotedblbase" unicode="&#x201e;" horiz-adv-x="396" 
d="M37 105h103l-16 -75c-20 -103 -65 -157 -139 -169l12 56c31 11 47 32 64 83h-47zM195 105h103l-16 -75c-20 -103 -64 -157 -139 -169l12 56c31 11 48 32 64 83h-46z" />
    <glyph glyph-name="quotedblright" unicode="&#x201d;" horiz-adv-x="396" 
d="M156 667h103l-16 -75c-20 -103 -65 -157 -139 -169l12 56c31 11 47 32 64 83h-47zM314 667h103l-16 -75c-20 -103 -64 -157 -139 -169l12 56c31 11 48 32 64 83h-46z" />
    <glyph glyph-name="guillemotright" unicode="&#xbb;" horiz-adv-x="432" 
d="M80 410l130 -140l-16 -76l-184 -114l20 93l117 68l-85 83zM273 410l129 -140l-16 -76l-184 -114l20 93l117 68l-85 83z" />
    <glyph glyph-name="ellipsis" unicode="&#x2026;" horiz-adv-x="714" 
d="M140 106l-23 -106h-103l23 106h103zM378 106l-23 -106h-103l23 106h103zM616 106l-23 -106h-103l23 106h103z" />
    <glyph glyph-name="perthousand" unicode="&#x2030;" horiz-adv-x="1135" 
d="M248 674c79 0 122 -54 122 -152c0 -68 -27 -160 -62 -216c-27 -41 -69 -65 -117 -65c-77 0 -122 54 -122 146c0 80 27 173 67 229c26 37 67 58 112 58zM249 608c-24 0 -48 -15 -63 -41c-27 -46 -46 -119 -46 -180c0 -52 20 -83 54 -83c24 0 46 17 62 47
c25 50 44 125 44 177c0 56 -15 80 -51 80zM625 667l-352 -667h-64l351 667h65zM646 426c78 0 122 -54 122 -152c0 -67 -27 -160 -62 -216c-27 -41 -70 -65 -117 -65c-77 0 -122 54 -122 146c0 80 27 174 66 229c26 36 68 58 113 58zM648 360c-25 0 -48 -15 -64 -41
c-28 -47 -46 -118 -46 -180c0 -52 20 -83 54 -83c24 0 45 17 61 47c27 51 45 123 45 176c0 57 -15 81 -50 81zM980 426c78 0 122 -54 122 -152c0 -67 -27 -160 -62 -216c-27 -41 -70 -65 -117 -65c-77 0 -122 54 -122 146c0 80 27 174 66 229c26 36 68 58 113 58zM982 360
c-25 0 -48 -15 -64 -41c-28 -47 -46 -118 -46 -180c0 -52 20 -83 54 -83c24 0 45 17 61 47c27 51 45 123 45 176c0 57 -15 81 -50 81z" />
    <glyph glyph-name="questiondown" unicode="&#xbf;" horiz-adv-x="473" 
d="M215 353h91c-21 -109 -42 -137 -147 -198c-57 -36 -85 -79 -85 -130c0 -59 42 -99 106 -99c72 0 121 51 129 136h89c-16 -138 -100 -219 -228 -219c-114 0 -189 71 -189 179c0 83 41 141 141 199c62 34 86 68 93 132zM217 422l22 102h103l-22 -102h-103z" />
    <glyph glyph-name="grave" unicode="`" 
d="M144 667h131l82 -133h-79z" />
    <glyph glyph-name="acute" unicode="&#xb4;" 
d="M320 667h132l-138 -133h-80z" />
    <glyph glyph-name="circumflex" unicode="&#x2c6;" 
d="M381 667l59 -135h-76l-39 92l-76 -92h-95l126 135h101z" />
    <glyph glyph-name="tilde" unicode="&#x2dc;" 
d="M435 667l45 -16c-25 -66 -53 -92 -100 -92c-21 0 -34 3 -76 20c-43 16 -51 19 -64 19c-20 0 -32 -10 -46 -39l-41 18l5 12c24 57 48 76 94 76c22 0 41 -5 116 -34c8 -2 16 -4 23 -4c18 0 32 12 44 40z" />
    <glyph glyph-name="macron" unicode="&#xaf;" 
d="M482 667l-18 -83h-312l18 83h312z" />
    <glyph glyph-name="breve" unicode="&#x2d8;" 
d="M410 667h65c-38 -77 -110 -123 -192 -123c-77 0 -123 45 -125 123h65c9 -40 33 -60 72 -60c46 0 84 20 115 60z" />
    <glyph glyph-name="dotaccent" unicode="&#x2d9;" 
d="M373 667l-21 -100h-92l21 100h92z" />
    <glyph glyph-name="dieresis" unicode="&#xa8;" 
d="M289 667l-21 -100h-92l21 100h92zM458 667l-21 -100h-91l21 100h91z" />
    <glyph glyph-name="ring" unicode="&#x2da;" 
d="M336 743c42 0 71 -29 71 -70c0 -55 -52 -106 -109 -106c-41 0 -71 29 -71 70c0 55 53 106 109 106zM327 702c-30 0 -58 -27 -58 -56c0 -22 16 -38 38 -38c30 0 58 27 58 57c0 21 -16 37 -38 37z" />
    <glyph glyph-name="cedilla" unicode="&#xb8;" 
d="M184 -34h83l-13 -60c-14 -70 -30 -84 -88 -84h-13l7 33h12c22 0 32 10 37 38h-41z" />
    <glyph glyph-name="hungarumlaut" unicode="&#x2dd;" 
d="M220 667h132l-138 -133h-80zM434 667h132l-139 -133h-79z" />
    <glyph glyph-name="ogonek" unicode="&#x2db;" 
d="M273 0h49c-51 -32 -75 -62 -75 -92c0 -25 22 -41 57 -41c12 0 22 2 42 8l-8 -40c-25 -8 -39 -10 -59 -10c-51 0 -84 25 -84 65c0 39 24 72 78 110z" />
    <glyph glyph-name="caron" unicode="&#x2c7;" 
d="M233 532l-59 135h76l39 -92l76 92h95l-126 -135h-101z" />
    <glyph glyph-name="emdash" unicode="&#x2014;" horiz-adv-x="660" 
d="M671 302l-18 -83h-660l18 83h660z" />
    <glyph glyph-name="AE" unicode="&#xc6;" horiz-adv-x="869" 
d="M551 584l-40 -192h320l-18 -83h-320l-48 -226h359l-18 -83h-439l40 185h-225l-103 -185h-99l379 667h553l-17 -83h-324zM403 258l69 330h-82l-187 -330h200z" />
    <glyph glyph-name="ordfeminine" unicode="&#xaa;" horiz-adv-x="328" 
d="M146 473h-60c17 62 63 93 137 93c63 0 105 -27 105 -68c0 -7 -2 -24 -6 -41l-21 -100c-4 -17 -5 -24 -5 -30c0 -13 5 -17 21 -17h15l-11 -47h-25c-32 0 -42 6 -49 29c-31 -25 -52 -33 -90 -33c-61 0 -102 36 -102 91c0 57 42 90 121 95l48 3c35 2 44 10 44 38
c0 22 -15 32 -48 32c-45 0 -64 -12 -74 -45zM250 398l1 6c-4 -1 -8 -2 -12 -2l-7 -1l-24 -3l-35 -3c-35 -4 -52 -18 -52 -44c0 -25 18 -40 46 -40c24 0 49 11 61 27c8 12 16 33 22 60z" />
    <glyph glyph-name="Lslash" unicode="&#x141;" horiz-adv-x="539" 
d="M177 266l-39 -183h346l-18 -83h-440l41 196l-44 -34l26 113l42 32l76 360h95l-61 -290l153 116l-25 -113z" />
    <glyph glyph-name="Oslash" unicode="&#xd8;" horiz-adv-x="714" 
d="M611 725l-42 -81c78 -50 119 -134 119 -247c0 -228 -162 -415 -361 -415c-33 0 -64 5 -96 16l-44 -86l-51 27l43 84c-78 50 -120 139 -120 256c0 226 160 404 362 404c33 0 65 -5 96 -15l43 84zM527 563l-255 -488c17 -7 37 -10 58 -10c77 0 144 36 190 102
c45 65 73 153 73 231c0 71 -23 128 -66 165zM222 105l254 486c-16 6 -36 9 -57 9c-70 0 -132 -30 -178 -85c-53 -65 -84 -155 -84 -247c0 -70 22 -125 65 -163z" />
    <glyph glyph-name="OE" unicode="&#x152;" horiz-adv-x="1024" 
d="M488 0l9 41c-49 -39 -103 -58 -170 -58c-163 0 -267 116 -267 297c0 224 160 404 359 404c84 0 125 -20 194 -95l17 78h418l-18 -83h-323l-41 -192h320l-18 -83h-320l-47 -226h358l-17 -83h-454zM525 174l61 289c-22 91 -80 138 -167 138c-69 0 -132 -30 -177 -85
c-53 -65 -84 -155 -84 -246c0 -124 69 -204 176 -204c77 0 139 35 191 108z" />
    <glyph glyph-name="ordmasculine" unicode="&#xba;" horiz-adv-x="352" 
d="M230 566c80 0 129 -49 129 -128c0 -99 -75 -179 -169 -179c-79 0 -129 50 -129 129c0 99 75 178 169 178zM226 514c-55 0 -99 -55 -99 -125c0 -47 27 -78 67 -78c51 0 99 61 99 126c0 49 -24 77 -67 77z" />
    <glyph glyph-name="ae" unicode="&#xe6;" horiz-adv-x="828" 
d="M160 344h-92c16 51 29 74 56 99c40 36 93 54 162 54s118 -23 154 -73c48 51 96 72 165 72c113 0 187 -77 187 -196c0 -22 -2 -40 -9 -70h-350c-2 -18 -3 -26 -3 -39c0 -85 43 -136 114 -136c61 0 110 35 136 98h87c-36 -104 -120 -166 -222 -166c-79 0 -141 35 -173 98
c-46 -65 -108 -98 -185 -98c-101 0 -168 55 -168 137c0 50 25 99 64 123c34 21 68 29 145 33c62 3 92 6 112 12c23 7 39 33 39 63c0 44 -37 70 -99 70c-61 0 -100 -26 -120 -81zM446 303h258c4 8 5 13 5 22c0 60 -43 99 -110 99c-80 0 -135 -43 -153 -121zM356 245
c-23 -8 -54 -13 -112 -18c-54 -4 -76 -10 -98 -26c-20 -14 -34 -43 -34 -69c0 -42 35 -70 87 -70c46 0 92 25 119 64c18 28 29 61 38 119z" />
    <glyph glyph-name="dotlessi" unicode="&#x131;" horiz-adv-x="226" 
d="M208 483l-102 -483h-92l103 483h91z" />
    <glyph glyph-name="lslash" unicode="&#x142;" horiz-adv-x="235" 
d="M185 350l-74 -350h-92l60 282l-37 -27l21 99l37 28l61 285h92l-47 -218l39 29l-21 -99z" />
    <glyph glyph-name="oslash" unicode="&#xf8;" horiz-adv-x="540" 
d="M459 536l-35 -67c55 -38 80 -93 80 -171c0 -171 -118 -305 -268 -305c-21 0 -39 2 -57 7l-37 -70l-51 27l34 65c-60 36 -90 98 -90 182c0 168 119 300 271 300c25 0 46 -3 66 -10l36 69zM383 390l-166 -317c9 -2 15 -3 22 -3c91 0 172 107 172 228c0 37 -10 69 -28 92z
M166 100l169 322c-13 3 -24 5 -36 5c-95 0 -171 -99 -171 -221c0 -47 12 -81 38 -106z" />
    <glyph glyph-name="oe" unicode="&#x153;" horiz-adv-x="891" 
d="M728 138h94c-47 -101 -122 -151 -225 -151c-85 0 -146 36 -178 106c-64 -81 -109 -106 -187 -106c-120 0 -198 83 -198 211c0 165 120 299 267 299c60 0 116 -25 148 -66c5 -7 9 -14 18 -28c48 64 114 97 195 97c117 0 193 -76 193 -195c0 -26 -3 -50 -10 -86h-356
c-1 -15 -2 -22 -2 -32c0 -76 44 -123 115 -123c53 0 97 26 126 74zM408 272c1 11 1 15 1 19c0 80 -43 129 -111 129c-95 0 -171 -99 -171 -221c0 -81 45 -135 112 -135c75 0 137 65 163 169c1 13 3 25 6 39zM767 292l1 24c0 68 -39 107 -109 107c-75 0 -129 -46 -153 -131
h261z" />
    <glyph glyph-name="germandbls" unicode="&#xdf;" horiz-adv-x="510" 
d="M222 327l17 79c14 -2 28 -4 39 -4c74 0 129 53 129 123c0 46 -33 77 -82 77c-65 0 -100 -39 -120 -137l-99 -465h-92l105 494c15 71 35 110 75 141c36 28 80 43 131 43c103 0 170 -60 170 -153c0 -74 -40 -132 -110 -160c50 -27 74 -69 74 -129c0 -68 -34 -138 -89 -184
c-46 -39 -101 -58 -167 -58c-18 0 -30 1 -52 5l19 82c15 -3 24 -4 37 -4c91 0 159 65 159 150c0 63 -42 102 -111 102c-11 0 -17 0 -33 -2z" />
    <glyph glyph-name="onesuperior" unicode="&#xb9;" horiz-adv-x="373" 
d="M332 663l-91 -396h-64l66 290c-30 -7 -53 -10 -84 -10h-24l10 45c65 0 125 30 138 71h49z" />
    <glyph glyph-name="logicalnot" unicode="&#xac;" 
d="M386 0v194h-336v87h433v-281h-97z" />
    <glyph glyph-name="mu" unicode="&#xb5;" 
d="M62 -167v647h85v-266c0 -62 6 -86 29 -112c23 -27 54 -42 87 -42c74 0 124 65 124 162v258h85v-480h-85v85c-26 -66 -66 -97 -125 -97c-52 0 -85 21 -115 70v-225h-85z" />
    <glyph glyph-name="trademark" unicode="&#x2122;" horiz-adv-x="828" 
d="M275 611l-73 -344h-67l73 344h-123l12 56h307l-12 -56h-117zM614 267h-65l-35 223c-4 29 -4 30 -6 48l-3 20c-1 -9 -2 -15 -4 -23c-1 -5 -3 -13 -5 -25l-5 -19l-46 -224h-63l85 400h84l38 -276c2 -14 2 -19 6 -52c7 14 14 26 24 45l161 283h83l-85 -400h-64l47 217
c9 42 12 52 17 72c-17 -33 -26 -50 -35 -66z" />
    <glyph glyph-name="Eth" unicode="&#xd0;" horiz-adv-x="664" 
d="M91 309h-41l18 83h40l59 275h188c104 0 160 -14 205 -53c52 -45 80 -116 80 -207c0 -116 -43 -231 -114 -309c-70 -76 -140 -98 -305 -98h-196zM186 309l-48 -225h109c112 0 164 18 212 75c52 62 84 154 84 240c0 58 -15 107 -43 139c-28 34 -67 46 -145 46h-111
l-41 -192h185l-18 -83h-184z" />
    <glyph glyph-name="onehalf" unicode="&#xbd;" horiz-adv-x="875" 
d="M332 663l-91 -396h-64l66 290c-30 -7 -53 -10 -84 -10h-24l10 45c65 0 125 30 138 71h49zM663 667l-352 -667h-64l351 667h65zM784 56l-13 -56h-268c16 97 42 130 147 184c84 46 103 65 103 106c0 36 -24 58 -62 58c-42 0 -64 -19 -78 -70h-63c21 88 65 126 144 126
c75 0 126 -44 126 -109c0 -31 -13 -65 -33 -86c-18 -20 -42 -36 -95 -65c-79 -42 -92 -52 -111 -88h203z" />
    <glyph glyph-name="plusminus" unicode="&#xb1;" 
d="M36 381h204v195h52v-195h205v-51h-205v-190h-52v190h-204v51zM36 97h462v-51h-462v51z" />
    <glyph glyph-name="Thorn" unicode="&#xde;" horiz-adv-x="565" 
d="M151 146l-31 -146h-95l142 667h95l-26 -120h122c66 0 112 -16 149 -53c35 -34 53 -80 53 -134c0 -58 -21 -112 -59 -151c-42 -42 -98 -63 -173 -63h-177zM169 229h138c63 0 91 8 119 35c23 23 36 55 36 91c0 35 -12 64 -34 83c-21 19 -45 26 -92 26h-117z" />
    <glyph glyph-name="onequarter" unicode="&#xbc;" horiz-adv-x="875" 
d="M332 663l-91 -396h-64l66 290c-30 -7 -53 -10 -84 -10h-24l10 45c65 0 125 30 138 71h49zM663 667l-352 -667h-64l351 667h65zM685 90h-177l12 56l237 250h62l-59 -257h48l-11 -49h-48l-21 -90h-64zM696 139l37 158l-148 -158h111z" />
    <glyph glyph-name="divide" unicode="&#xf7;" 
d="M36 371h462v-51h-462v51zM268 570c23 0 43 -20 43 -44s-20 -44 -44 -44s-44 20 -44 44c0 25 20 44 45 44zM268 209c23 0 43 -20 43 -44s-20 -44 -44 -44s-44 20 -44 44c0 25 20 44 45 44z" />
    <glyph glyph-name="brokenbar" unicode="&#xa6;" 
d="M217 667h100v-340h-100v340zM217 153h100v-320h-100v320z" />
    <glyph glyph-name="degree" unicode="&#xb0;" 
d="M268 666c81 0 145 -65 145 -147c0 -80 -66 -145 -145 -145c-82 0 -147 65 -147 146s65 146 147 146zM266 623c-55 0 -101 -47 -101 -103c0 -57 46 -103 102 -103c55 0 102 46 102 101c0 59 -45 105 -103 105z" />
    <glyph glyph-name="thorn" unicode="&#xfe;" horiz-adv-x="541" 
d="M158 667h91l-50 -237c55 52 86 67 133 67c100 0 170 -83 170 -202c0 -169 -111 -308 -245 -308c-60 0 -98 19 -139 71l-47 -225h-92zM307 420c-88 0 -166 -108 -166 -230c0 -78 40 -126 105 -126c40 0 86 26 112 63c31 45 54 117 54 168c0 77 -40 125 -105 125z" />
    <glyph glyph-name="threequarters" unicode="&#xbe;" horiz-adv-x="875" 
d="M194 448l12 54c10 -2 15 -2 22 -2c54 0 84 24 84 66c0 29 -24 49 -58 49c-43 0 -72 -24 -82 -68h-64c17 79 71 124 148 124c72 0 122 -42 122 -102c0 -45 -27 -82 -67 -94c30 -14 47 -41 47 -78c0 -77 -69 -138 -156 -138c-79 0 -131 46 -131 116v16h64v-15
c0 -37 26 -61 66 -61c51 0 91 37 91 82c0 34 -22 52 -65 52c-16 0 -23 0 -33 -1zM663 667l-352 -667h-64l351 667h65zM685 90h-177l12 56l237 250h62l-59 -257h48l-11 -49h-49l-20 -90h-64zM696 139l37 158l-148 -158h111z" />
    <glyph glyph-name="twosuperior" unicode="&#xb2;" horiz-adv-x="373" 
d="M339 323l-13 -56h-268c16 97 42 130 147 184c84 46 103 65 103 106c0 36 -24 58 -62 58c-42 0 -64 -19 -78 -70h-63c21 88 65 126 144 126c75 0 126 -44 126 -109c0 -32 -13 -65 -33 -87c-19 -20 -42 -35 -95 -64c-80 -42 -92 -52 -111 -88h203z" />
    <glyph glyph-name="registered" unicode="&#xae;" horiz-adv-x="779" 
d="M259 528h165c90 0 139 -38 139 -109c0 -44 -24 -77 -69 -95c50 -18 62 -42 64 -125c2 -39 4 -50 10 -62h-60c-6 10 -7 24 -10 74c-3 47 -9 66 -27 78c-14 10 -38 15 -69 15h-81v-167h-62v391zM321 487v-144h85c64 0 95 24 95 73s-28 71 -88 71h-92zM411 679
c186 0 340 -157 340 -346c0 -190 -154 -345 -345 -345c-190 0 -345 155 -345 345c0 193 154 346 350 346zM410 633c-167 0 -299 -132 -299 -300c0 -164 133 -299 295 -299c163 0 295 134 295 299c0 164 -132 300 -291 300z" />
    <glyph glyph-name="minus" unicode="&#x2212;" 
d="M36 371h462v-51h-462v51z" />
    <glyph glyph-name="eth" unicode="&#xf0;" horiz-adv-x="543" 
d="M337 668l53 62l52 -43l-51 -61c82 -75 116 -160 116 -289c0 -33 -3 -62 -8 -93c-23 -153 -129 -257 -264 -257c-124 0 -201 81 -201 210c0 167 119 299 269 299c36 0 75 -9 101 -22c-13 37 -32 65 -62 94l-51 -61l-52 44l51 60c-17 11 -30 19 -52 30l29 63
c28 -11 46 -20 70 -36zM298 419c-95 0 -171 -98 -171 -220c0 -81 45 -135 112 -135c40 0 82 22 110 56c36 44 61 112 61 166c0 85 -41 133 -112 133z" />
    <glyph glyph-name="multiply" unicode="&#xd7;" 
d="M111 537l155 -155l156 156l37 -36l-157 -157l157 -155l-36 -36l-156 156l-156 -157l-37 37l157 156l-156 156z" />
    <glyph glyph-name="threesuperior" unicode="&#xb3;" horiz-adv-x="373" 
d="M194 448l12 54c10 -2 15 -2 22 -2c54 0 84 24 84 66c0 29 -24 49 -58 49c-43 0 -72 -24 -82 -68h-64c17 79 71 124 148 124c72 0 122 -42 122 -102c0 -45 -27 -82 -67 -94c30 -14 47 -41 47 -78c0 -77 -69 -138 -156 -138c-79 0 -131 46 -131 116v16h64v-15
c0 -37 26 -61 66 -61c51 0 91 37 91 82c0 34 -22 52 -65 52c-16 0 -23 0 -33 -1z" />
    <glyph glyph-name="copyright" unicode="&#xa9;" horiz-adv-x="779" 
d="M540 296h49c-8 -100 -79 -165 -180 -165c-114 0 -191 82 -191 204c0 121 79 204 193 204c92 0 165 -59 172 -139h-49c-12 53 -59 85 -123 85c-79 0 -131 -59 -131 -150s51 -150 130 -150c72 0 120 42 130 111zM411 679c186 0 340 -157 340 -346
c0 -190 -154 -345 -344 -345c-191 0 -346 155 -346 345c0 193 154 346 350 346zM410 633c-167 0 -299 -132 -299 -300c0 -164 133 -299 295 -299c163 0 295 134 295 299c0 164 -132 300 -291 300z" />
    <glyph glyph-name="Aacute" unicode="&#xc1;" horiz-adv-x="582" 
d="M421 187h-259l-98 -187h-104l365 667h110l105 -667h-92zM410 265l-44 313l-163 -313h207zM434 850h132l-138 -132h-80z" />
    <glyph glyph-name="Acircumflex" unicode="&#xc2;" horiz-adv-x="582" 
d="M421 187h-259l-98 -187h-104l365 667h110l105 -667h-92zM410 265l-44 313l-163 -313h207zM455 850l59 -135h-76l-39 92l-76 -92h-95l126 135h101z" />
    <glyph glyph-name="Adieresis" unicode="&#xc4;" horiz-adv-x="582" 
d="M421 187h-259l-98 -187h-104l365 667h110l105 -667h-92zM410 265l-44 313l-163 -313h207zM369 850l-21 -100h-91l21 100h91zM543 850l-21 -100h-95l21 100h95z" />
    <glyph glyph-name="Agrave" unicode="&#xc0;" horiz-adv-x="582" 
d="M421 187h-259l-98 -187h-104l365 667h110l105 -667h-92zM410 265l-44 313l-163 -313h207zM218 850h131l82 -133h-79z" />
    <glyph glyph-name="Aring" unicode="&#xc5;" horiz-adv-x="582" 
d="M421 187h-259l-98 -187h-104l365 667h110l105 -667h-92zM410 265l-44 313l-163 -313h207zM423 900c43 0 72 -29 72 -70c0 -56 -53 -107 -110 -107c-41 0 -71 29 -71 70c0 55 53 107 109 107zM414 859c-30 0 -58 -28 -58 -57c0 -22 16 -38 38 -38c31 0 59 28 59 57
c0 23 -16 38 -39 38z" />
    <glyph glyph-name="Atilde" unicode="&#xc3;" horiz-adv-x="582" 
d="M421 187h-259l-98 -187h-104l365 667h110l105 -667h-92zM410 265l-44 313l-163 -313h207zM509 850l44 -16c-25 -67 -52 -92 -99 -92c-21 0 -33 3 -77 20c-42 16 -51 19 -64 19c-19 0 -31 -11 -45 -39l-41 18c1 4 3 8 5 12c24 57 47 76 93 76c23 0 43 -6 117 -34
c8 -2 16 -4 23 -4c18 0 31 12 44 40z" />
    <glyph glyph-name="Ccedilla" unicode="&#xc7;" horiz-adv-x="667" 
d="M669 461h-95c-4 86 -66 140 -159 140c-145 0 -260 -146 -260 -329c0 -132 63 -206 175 -206c99 0 170 52 207 152h96c-48 -153 -155 -235 -308 -235c-167 0 -268 108 -268 287c0 235 155 414 359 414c149 0 239 -80 253 -223zM263 -38h84l-13 -60c-9 -43 -12 -52 -24 -64
c-13 -15 -32 -21 -65 -21c-1 0 -7 0 -12 1l7 33c5 -1 9 -1 12 -1c22 0 31 10 37 39h-41z" />
    <glyph glyph-name="Eacute" unicode="&#xc9;" horiz-adv-x="562" 
d="M585 667l-18 -83h-323l-41 -192h320l-17 -83h-320l-48 -226h358l-17 -83h-454l142 667h418zM405 850h132l-139 -132h-79z" />
    <glyph glyph-name="Ecircumflex" unicode="&#xca;" horiz-adv-x="562" 
d="M585 667l-18 -83h-323l-41 -192h320l-17 -83h-320l-48 -226h358l-17 -83h-454l142 667h418zM462 850l59 -135h-76l-39 92l-76 -92h-95l126 135h101z" />
    <glyph glyph-name="Edieresis" unicode="&#xcb;" horiz-adv-x="562" 
d="M585 667l-18 -83h-323l-41 -192h320l-17 -83h-320l-48 -226h358l-17 -83h-454l142 667h418zM343 850l-21 -100h-91l21 100h91zM517 850l-21 -100h-95l21 100h95z" />
    <glyph glyph-name="Egrave" unicode="&#xc8;" horiz-adv-x="562" 
d="M585 667l-18 -83h-323l-41 -192h320l-17 -83h-320l-48 -226h358l-17 -83h-454l142 667h418zM258 850h131l82 -133h-79z" />
    <glyph glyph-name="Iacute" unicode="&#xcd;" horiz-adv-x="252" 
d="M262 667l-142 -667h-95l142 667h95zM269 850h132l-139 -132h-79z" />
    <glyph glyph-name="Icircumflex" unicode="&#xce;" horiz-adv-x="252" 
d="M262 667l-142 -667h-95l142 667h95zM296 850l59 -135h-76l-39 92l-76 -92h-95l127 135h100z" />
    <glyph glyph-name="Idieresis" unicode="&#xcf;" horiz-adv-x="252" 
d="M262 667l-142 -667h-95l142 667h95zM208 850l-21 -100h-82l21 100h82zM365 850l-22 -100h-85l21 100h86z" />
    <glyph glyph-name="Igrave" unicode="&#xcc;" horiz-adv-x="252" 
d="M262 667l-142 -667h-95l142 667h95zM89 850h131l82 -133h-79z" />
    <glyph glyph-name="Ntilde" unicode="&#xd1;" horiz-adv-x="665" 
d="M533 0h-94l-184 449c-14 33 -18 43 -29 74c-1 1 -3 6 -5 13c-2 -28 -15 -110 -24 -150l-82 -386h-90l142 667h94l176 -429c16 -38 31 -79 41 -111c3 43 9 77 27 163l80 377h90zM545 850l44 -16c-25 -67 -52 -92 -99 -92c-21 0 -33 3 -77 20c-42 16 -51 19 -64 19
c-19 0 -31 -11 -45 -39l-41 18c1 4 3 8 5 12c24 57 47 76 93 76c23 0 43 -6 117 -34c8 -2 16 -4 23 -4c18 0 31 12 44 40z" />
    <glyph glyph-name="Oacute" unicode="&#xd3;" horiz-adv-x="714" 
d="M422 684c167 0 267 -109 267 -291c0 -223 -164 -410 -361 -410c-163 0 -268 116 -268 297c0 225 160 404 362 404zM418 601c-145 0 -260 -146 -260 -332c0 -123 69 -203 176 -203c74 0 142 37 187 102c44 63 73 154 73 226c0 129 -66 207 -176 207zM471 850h132
l-138 -132h-80z" />
    <glyph glyph-name="Ocircumflex" unicode="&#xd4;" horiz-adv-x="714" 
d="M422 684c167 0 267 -109 267 -291c0 -223 -164 -410 -361 -410c-163 0 -268 116 -268 297c0 225 160 404 362 404zM418 601c-145 0 -260 -146 -260 -332c0 -123 69 -203 176 -203c74 0 142 37 187 102c44 63 73 154 73 226c0 129 -66 207 -176 207zM528 850l59 -135h-76
l-39 92l-76 -92h-95l126 135h101z" />
    <glyph glyph-name="Odieresis" unicode="&#xd6;" horiz-adv-x="714" 
d="M422 684c167 0 267 -109 267 -291c0 -223 -164 -410 -361 -410c-163 0 -268 116 -268 297c0 225 160 404 362 404zM418 601c-145 0 -260 -146 -260 -332c0 -123 69 -203 176 -203c74 0 142 37 187 102c44 63 73 154 73 226c0 129 -66 207 -176 207zM420 850l-21 -100h-91
l21 100h91zM594 850l-21 -100h-95l21 100h95z" />
    <glyph glyph-name="Ograve" unicode="&#xd2;" horiz-adv-x="714" 
d="M422 684c167 0 267 -109 267 -291c0 -223 -164 -410 -361 -410c-163 0 -268 116 -268 297c0 225 160 404 362 404zM418 601c-145 0 -260 -146 -260 -332c0 -123 69 -203 176 -203c74 0 142 37 187 102c44 63 73 154 73 226c0 129 -66 207 -176 207zM336 850h131l82 -133
h-79z" />
    <glyph glyph-name="Otilde" unicode="&#xd5;" horiz-adv-x="714" 
d="M422 684c167 0 267 -109 267 -291c0 -223 -164 -410 -361 -410c-163 0 -268 116 -268 297c0 225 160 404 362 404zM418 601c-145 0 -260 -146 -260 -332c0 -123 69 -203 176 -203c74 0 142 37 187 102c44 63 73 154 73 226c0 129 -66 207 -176 207zM567 850l44 -16
c-24 -66 -52 -92 -99 -92c-21 0 -34 3 -77 20s-51 19 -64 19c-19 0 -32 -10 -45 -39l-42 18l5 12c24 57 48 76 94 76c22 0 41 -5 117 -34c7 -2 15 -4 22 -4c19 0 32 12 45 40z" />
    <glyph glyph-name="Scaron" unicode="&#x160;" horiz-adv-x="594" 
d="M584 489h-94c-5 72 -56 112 -142 112c-83 0 -140 -41 -140 -100c0 -41 22 -66 83 -93l116 -52c99 -44 134 -87 134 -166c0 -53 -21 -103 -60 -140c-47 -46 -109 -67 -196 -67c-108 0 -188 36 -227 101c-18 30 -24 60 -25 120h91v-15c0 -77 61 -123 163 -123
c92 0 156 46 156 112c0 43 -24 69 -94 100l-100 44c-97 43 -140 95 -140 168c0 113 99 194 237 194c146 0 235 -73 238 -195zM299 715l-59 135h76l39 -92l76 92h95l-126 -135h-101z" />
    <glyph glyph-name="Uacute" unicode="&#xda;" horiz-adv-x="655" 
d="M569 667h95l-87 -413c-24 -113 -42 -152 -88 -197c-49 -48 -117 -74 -192 -74c-135 0 -228 75 -228 183c0 19 7 72 12 99l86 402h95l-84 -397c-11 -48 -14 -69 -14 -88c0 -69 56 -116 140 -116c54 0 101 21 130 58c24 32 31 52 50 141zM457 850h132l-139 -132h-80z" />
    <glyph glyph-name="Ucircumflex" unicode="&#xdb;" horiz-adv-x="655" 
d="M569 667h95l-87 -413c-24 -113 -42 -152 -88 -197c-49 -48 -117 -74 -192 -74c-135 0 -228 75 -228 183c0 19 7 72 12 99l86 402h95l-84 -397c-11 -48 -14 -69 -14 -88c0 -69 56 -116 140 -116c54 0 101 21 130 58c24 32 31 52 50 141zM506 850l59 -135h-76l-39 92
l-76 -92h-95l127 135h100z" />
    <glyph glyph-name="Udieresis" unicode="&#xdc;" horiz-adv-x="655" 
d="M569 667h95l-87 -413c-24 -113 -42 -152 -88 -197c-49 -48 -117 -74 -192 -74c-135 0 -228 75 -228 183c0 19 7 72 12 99l86 402h95l-84 -397c-11 -48 -14 -69 -14 -88c0 -69 56 -116 140 -116c54 0 101 21 130 58c24 32 31 52 50 141zM395 850l-21 -100h-91l21 100h91z
M569 850l-21 -100h-95l21 100h95z" />
    <glyph glyph-name="Ugrave" unicode="&#xd9;" horiz-adv-x="655" 
d="M569 667h95l-87 -413c-24 -113 -42 -152 -88 -197c-49 -48 -117 -74 -192 -74c-135 0 -228 75 -228 183c0 19 7 72 12 99l86 402h95l-84 -397c-11 -48 -14 -69 -14 -88c0 -69 56 -116 140 -116c54 0 101 21 130 58c24 32 31 52 50 141zM299 850h131l82 -133h-79z" />
    <glyph glyph-name="Yacute" unicode="&#xdd;" horiz-adv-x="533" 
d="M312 244l-52 -244h-95l55 257l-150 410h108l104 -326l218 326h117zM394 850h132l-138 -132h-80z" />
    <glyph glyph-name="Ydieresis" unicode="&#x178;" horiz-adv-x="533" 
d="M312 244l-52 -244h-95l55 257l-150 410h108l104 -326l218 326h117zM329 850l-21 -100h-91l21 100h91zM503 850l-21 -100h-95l21 100h95z" />
    <glyph glyph-name="Zcaron" unicode="&#x17d;" horiz-adv-x="553" 
d="M585 667l-17 -77l-349 -406c-29 -34 -36 -41 -80 -88l-12 -13h383l-17 -83h-495l19 88l338 394c24 28 64 71 94 102h-354l18 83h472zM293 715l-59 135h76l39 -92l76 92h95l-126 -135h-101z" />
    <glyph glyph-name="aacute" unicode="&#xe1;" horiz-adv-x="501" 
d="M161 350h-85c28 97 100 146 214 146c98 0 162 -43 162 -109c0 -12 -5 -48 -10 -69l-36 -170c-7 -34 -8 -41 -8 -52c0 -25 10 -33 38 -33h18l-15 -69h-35c-52 0 -69 14 -74 58c-40 -45 -85 -65 -149 -65c-48 0 -87 13 -114 39s-44 69 -44 110c0 44 19 86 51 112
c30 26 73 39 139 43l78 5c38 3 52 7 62 20c9 12 15 32 15 53c0 39 -26 57 -83 57c-72 0 -107 -22 -124 -76zM338 218l4 16c-13 -2 -18 -3 -28 -5c-5 0 -14 -1 -26 -3l-24 -2l-55 -6c-62 -7 -92 -34 -92 -82c0 -44 30 -72 79 -72c40 0 83 20 104 49c15 20 28 55 38 105z
M339 667h132l-139 -133h-79z" />
    <glyph glyph-name="acircumflex" unicode="&#xe2;" horiz-adv-x="501" 
d="M161 350h-85c28 97 100 146 214 146c98 0 162 -43 162 -109c0 -12 -5 -48 -10 -69l-36 -170c-7 -34 -8 -41 -8 -52c0 -25 10 -33 38 -33h18l-15 -69h-35c-52 0 -69 14 -74 58c-40 -45 -85 -65 -149 -65c-48 0 -87 13 -114 39s-44 69 -44 110c0 44 19 86 51 112
c30 26 73 39 139 43l78 5c38 3 52 7 62 20c9 12 15 32 15 53c0 39 -26 57 -83 57c-72 0 -107 -22 -124 -76zM338 218l4 16c-13 -2 -18 -3 -28 -5c-5 0 -14 -1 -26 -3l-24 -2l-55 -6c-62 -7 -92 -34 -92 -82c0 -44 30 -72 79 -72c40 0 83 20 104 49c15 20 28 55 38 105z
M382 667l59 -135h-76l-39 92l-76 -92h-95l126 135h101z" />
    <glyph glyph-name="adieresis" unicode="&#xe4;" horiz-adv-x="501" 
d="M161 350h-85c28 97 100 146 214 146c98 0 162 -43 162 -109c0 -12 -5 -48 -10 -69l-36 -170c-7 -34 -8 -41 -8 -52c0 -25 10 -33 38 -33h18l-15 -69h-35c-52 0 -69 14 -74 58c-40 -45 -85 -65 -149 -65c-48 0 -87 13 -114 39s-44 69 -44 110c0 44 19 86 51 112
c30 26 73 39 139 43l78 5c38 3 52 7 62 20c9 12 15 32 15 53c0 39 -26 57 -83 57c-72 0 -107 -22 -124 -76zM338 218l4 16c-13 -2 -18 -3 -28 -5c-5 0 -14 -1 -26 -3l-24 -2l-55 -6c-62 -7 -92 -34 -92 -82c0 -44 30 -72 79 -72c40 0 83 20 104 49c15 20 28 55 38 105z
M289 667l-21 -100h-91l21 100h91zM459 667l-21 -100h-92l21 100h92z" />
    <glyph glyph-name="agrave" unicode="&#xe0;" horiz-adv-x="501" 
d="M161 350h-85c28 97 100 146 214 146c98 0 162 -43 162 -109c0 -12 -5 -48 -10 -69l-36 -170c-7 -34 -8 -41 -8 -52c0 -25 10 -33 38 -33h18l-15 -69h-35c-52 0 -69 14 -74 58c-40 -45 -85 -65 -149 -65c-48 0 -87 13 -114 39s-44 69 -44 110c0 44 19 86 51 112
c30 26 73 39 139 43l78 5c38 3 52 7 62 20c9 12 15 32 15 53c0 39 -26 57 -83 57c-72 0 -107 -22 -124 -76zM338 218l4 16c-13 -2 -18 -3 -28 -5c-5 0 -14 -1 -26 -3l-24 -2l-55 -6c-62 -7 -92 -34 -92 -82c0 -44 30 -72 79 -72c40 0 83 20 104 49c15 20 28 55 38 105z
M197 667h131l81 -133h-78z" />
    <glyph glyph-name="aring" unicode="&#xe5;" horiz-adv-x="501" 
d="M161 350h-85c28 97 100 146 214 146c98 0 162 -43 162 -109c0 -12 -5 -48 -10 -69l-36 -170c-7 -34 -8 -41 -8 -52c0 -25 10 -33 38 -33h18l-15 -69h-35c-52 0 -69 14 -74 58c-40 -45 -85 -65 -149 -65c-48 0 -87 13 -114 39s-44 69 -44 110c0 44 19 86 51 112
c30 26 73 39 139 43l78 5c38 3 52 7 62 20c9 12 15 32 15 53c0 39 -26 57 -83 57c-72 0 -107 -22 -124 -76zM338 218l4 16c-13 -2 -18 -3 -28 -5c-5 0 -14 -1 -26 -3l-24 -2l-55 -6c-62 -7 -92 -34 -92 -82c0 -44 30 -72 79 -72c40 0 83 20 104 49c15 20 28 55 38 105z
M357 743c43 0 72 -29 72 -70c0 -55 -53 -106 -110 -106c-41 0 -71 29 -71 70c0 55 53 106 109 106zM348 702c-29 0 -58 -28 -58 -57c0 -21 16 -37 38 -37c31 0 59 27 59 57c0 22 -16 37 -39 37z" />
    <glyph glyph-name="atilde" unicode="&#xe3;" horiz-adv-x="501" 
d="M161 350h-85c28 97 100 146 214 146c98 0 162 -43 162 -109c0 -12 -5 -48 -10 -69l-36 -170c-7 -34 -8 -41 -8 -52c0 -25 10 -33 38 -33h18l-15 -69h-35c-52 0 -69 14 -74 58c-40 -45 -85 -65 -149 -65c-48 0 -87 13 -114 39s-44 69 -44 110c0 44 19 86 51 112
c30 26 73 39 139 43l78 5c38 3 52 7 62 20c9 12 15 32 15 53c0 39 -26 57 -83 57c-72 0 -107 -22 -124 -76zM338 218l4 16c-13 -2 -18 -3 -28 -5c-5 0 -14 -1 -26 -3l-24 -2l-55 -6c-62 -7 -92 -34 -92 -82c0 -44 30 -72 79 -72c40 0 83 20 104 49c15 20 28 55 38 105z
M437 667l44 -16c-24 -66 -52 -92 -99 -92c-21 0 -34 3 -77 20c-42 16 -51 19 -64 19c-19 0 -32 -11 -45 -39l-42 18c2 4 4 8 5 12c24 57 48 76 94 76c22 0 42 -6 117 -34c7 -2 16 -4 22 -4c19 0 32 12 45 40z" />
    <glyph glyph-name="ccedilla" unicode="&#xe7;" horiz-adv-x="492" 
d="M479 329h-86c0 55 -38 91 -96 91c-40 0 -80 -18 -107 -49c-40 -46 -65 -116 -65 -180c0 -78 41 -127 106 -127c59 0 104 32 133 93h88c-32 -106 -115 -170 -221 -170c-123 0 -200 75 -200 196c0 93 36 183 97 245c43 44 102 68 166 68c110 0 185 -67 185 -167zM182 -38
h84l-13 -60c-9 -43 -13 -52 -24 -64c-14 -15 -32 -21 -65 -21c-1 0 -7 0 -13 1l7 33c5 -1 10 -1 13 -1c22 0 31 10 37 39h-42z" />
    <glyph glyph-name="eacute" unicode="&#xe9;" horiz-adv-x="527" 
d="M480 219h-355c-2 -15 -3 -22 -3 -32c0 -76 44 -123 115 -123c53 0 98 26 126 74h94c-48 -102 -121 -151 -225 -151c-122 0 -197 79 -197 207c0 81 28 162 76 220c45 56 111 86 186 86c117 0 193 -76 193 -195c0 -26 -3 -50 -10 -86zM402 292l1 24c0 68 -40 107 -109 107
c-75 0 -128 -46 -153 -131h261zM348 667h132l-139 -133h-80z" />
    <glyph glyph-name="ecircumflex" unicode="&#xea;" horiz-adv-x="527" 
d="M480 219h-355c-2 -15 -3 -22 -3 -32c0 -76 44 -123 115 -123c53 0 98 26 126 74h94c-48 -102 -121 -151 -225 -151c-122 0 -197 79 -197 207c0 81 28 162 76 220c45 56 111 86 186 86c117 0 193 -76 193 -195c0 -26 -3 -50 -10 -86zM402 292l1 24c0 68 -40 107 -109 107
c-75 0 -128 -46 -153 -131h261zM394 667l59 -135h-76l-39 92l-76 -92h-95l126 135h101z" />
    <glyph glyph-name="edieresis" unicode="&#xeb;" horiz-adv-x="527" 
d="M480 219h-355c-2 -15 -3 -22 -3 -32c0 -76 44 -123 115 -123c53 0 98 26 126 74h94c-48 -102 -121 -151 -225 -151c-122 0 -197 79 -197 207c0 81 28 162 76 220c45 56 111 86 186 86c117 0 193 -76 193 -195c0 -26 -3 -50 -10 -86zM402 292l1 24c0 68 -40 107 -109 107
c-75 0 -128 -46 -153 -131h261zM302 667l-21 -100h-92l21 100h92zM471 667l-21 -100h-91l21 100h91z" />
    <glyph glyph-name="egrave" unicode="&#xe8;" horiz-adv-x="527" 
d="M480 219h-355c-2 -15 -3 -22 -3 -32c0 -76 44 -123 115 -123c53 0 98 26 126 74h94c-48 -102 -121 -151 -225 -151c-122 0 -197 79 -197 207c0 81 28 162 76 220c45 56 111 86 186 86c117 0 193 -76 193 -195c0 -26 -3 -50 -10 -86zM402 292l1 24c0 68 -40 107 -109 107
c-75 0 -128 -46 -153 -131h261zM185 667h131l81 -133h-78z" />
    <glyph glyph-name="iacute" unicode="&#xed;" horiz-adv-x="226" 
d="M208 483l-102 -483h-92l103 483h91zM215 667h132l-139 -133h-79z" />
    <glyph glyph-name="icircumflex" unicode="&#xee;" horiz-adv-x="226" 
d="M208 483l-102 -483h-92l103 483h91zM244 667l59 -135h-76l-39 92l-76 -92h-95l126 135h101z" />
    <glyph glyph-name="idieresis" unicode="&#xef;" horiz-adv-x="226" 
d="M208 483l-102 -483h-92l103 483h91zM162 667l-21 -100h-83l21 100h83zM314 667l-21 -100h-82l21 100h82z" />
    <glyph glyph-name="igrave" unicode="&#xec;" horiz-adv-x="226" 
d="M208 483l-102 -483h-92l103 483h91zM21 667h131l81 -133h-78z" />
    <glyph glyph-name="ntilde" unicode="&#xf1;" horiz-adv-x="522" 
d="M117 483h85l-14 -64c57 55 103 77 159 77c79 0 130 -46 130 -115c0 -19 -2 -37 -8 -66l-68 -315h-91l66 310c7 32 8 41 8 52c0 36 -21 57 -57 57c-32 0 -68 -15 -98 -40c-37 -31 -57 -69 -71 -131l-52 -248h-92zM457 667l44 -16c-24 -66 -52 -92 -99 -92
c-21 0 -34 3 -76 20c-43 17 -51 19 -64 19c-20 0 -32 -10 -46 -39l-41 18l5 12c24 57 47 76 94 76c22 0 41 -5 116 -34c8 -2 16 -4 23 -4c18 0 32 12 44 40z" />
    <glyph glyph-name="oacute" unicode="&#xf3;" horiz-adv-x="540" 
d="M303 496c124 0 200 -79 200 -209c0 -80 -32 -162 -86 -220c-49 -53 -110 -80 -182 -80c-124 0 -201 81 -201 210c0 166 119 299 269 299zM298 419c-95 0 -171 -98 -171 -220c0 -81 45 -135 112 -135c40 0 82 22 110 56c36 44 61 112 61 166c0 85 -41 133 -112 133z
M365 667h132l-139 -133h-79z" />
    <glyph glyph-name="ocircumflex" unicode="&#xf4;" horiz-adv-x="540" 
d="M303 496c124 0 200 -79 200 -209c0 -80 -32 -162 -86 -220c-49 -53 -110 -80 -182 -80c-124 0 -201 81 -201 210c0 166 119 299 269 299zM298 419c-95 0 -171 -98 -171 -220c0 -81 45 -135 112 -135c40 0 82 22 110 56c36 44 61 112 61 166c0 85 -41 133 -112 133z
M401 667l59 -135h-76l-39 92l-76 -92h-95l126 135h101z" />
    <glyph glyph-name="odieresis" unicode="&#xf6;" horiz-adv-x="540" 
d="M303 496c124 0 200 -79 200 -209c0 -80 -32 -162 -86 -220c-49 -53 -110 -80 -182 -80c-124 0 -201 81 -201 210c0 166 119 299 269 299zM298 419c-95 0 -171 -98 -171 -220c0 -81 45 -135 112 -135c40 0 82 22 110 56c36 44 61 112 61 166c0 85 -41 133 -112 133z
M308 667l-21 -100h-91l21 100h91zM478 667l-21 -100h-92l21 100h92z" />
    <glyph glyph-name="ograve" unicode="&#xf2;" horiz-adv-x="540" 
d="M303 496c124 0 200 -79 200 -209c0 -80 -32 -162 -86 -220c-49 -53 -110 -80 -182 -80c-124 0 -201 81 -201 210c0 166 119 299 269 299zM298 419c-95 0 -171 -98 -171 -220c0 -81 45 -135 112 -135c40 0 82 22 110 56c36 44 61 112 61 166c0 85 -41 133 -112 133z
M191 667h132l81 -133h-79z" />
    <glyph glyph-name="otilde" unicode="&#xf5;" horiz-adv-x="540" 
d="M303 496c124 0 200 -79 200 -209c0 -80 -32 -162 -86 -220c-49 -53 -110 -80 -182 -80c-124 0 -201 81 -201 210c0 166 119 299 269 299zM298 419c-95 0 -171 -98 -171 -220c0 -81 45 -135 112 -135c40 0 82 22 110 56c36 44 61 112 61 166c0 85 -41 133 -112 133z
M456 667l44 -16c-24 -66 -52 -92 -99 -92c-21 0 -34 3 -77 20s-51 19 -64 19c-19 0 -32 -11 -45 -39l-41 18c1 4 3 8 5 12c23 57 47 76 93 76c23 0 42 -6 117 -34c8 -2 16 -4 22 -4c19 0 32 12 45 40z" />
    <glyph glyph-name="scaron" unicode="&#x161;" horiz-adv-x="459" 
d="M443 335h-83c-2 51 -42 85 -102 85c-54 0 -94 -26 -94 -61c0 -21 12 -32 58 -53l73 -32c80 -36 112 -74 112 -133c0 -91 -81 -154 -197 -154c-121 0 -198 70 -198 181v14h90c-1 -8 -1 -15 -1 -21c0 -58 46 -97 113 -97c58 0 102 30 102 69c0 27 -12 40 -60 62l-77 36
c-42 19 -56 28 -70 43c-20 21 -30 46 -30 76c0 87 74 147 180 147c76 0 140 -33 168 -88c13 -23 16 -40 16 -74zM228 532l-59 135h76l39 -92l76 92h95l-126 -135h-101z" />
    <glyph glyph-name="uacute" unicode="&#xfa;" horiz-adv-x="524" 
d="M507 483l-103 -483h-85l17 79c-54 -66 -100 -92 -165 -92c-77 0 -129 47 -129 115c0 18 5 53 13 90l62 291h91l-65 -309c-4 -19 -7 -41 -7 -54c0 -35 23 -57 59 -57c39 0 88 27 120 68c26 34 38 64 53 134l47 218h92zM366 667h132l-139 -133h-80z" />
    <glyph glyph-name="ucircumflex" unicode="&#xfb;" horiz-adv-x="524" 
d="M507 483l-103 -483h-85l17 79c-54 -66 -100 -92 -165 -92c-77 0 -129 47 -129 115c0 18 5 53 13 90l62 291h91l-65 -309c-4 -19 -7 -41 -7 -54c0 -35 23 -57 59 -57c39 0 88 27 120 68c26 34 38 64 53 134l47 218h92zM403 667l59 -135h-76l-39 92l-76 -92h-95l126 135
h101z" />
    <glyph glyph-name="udieresis" unicode="&#xfc;" horiz-adv-x="524" 
d="M507 483l-103 -483h-85l17 79c-54 -66 -100 -92 -165 -92c-77 0 -129 47 -129 115c0 18 5 53 13 90l62 291h91l-65 -309c-4 -19 -7 -41 -7 -54c0 -35 23 -57 59 -57c39 0 88 27 120 68c26 34 38 64 53 134l47 218h92zM313 667l-21 -100h-92l21 100h92zM482 667l-21 -100
h-91l21 100h91z" />
    <glyph glyph-name="ugrave" unicode="&#xf9;" horiz-adv-x="524" 
d="M507 483l-103 -483h-85l17 79c-54 -66 -100 -92 -165 -92c-77 0 -129 47 -129 115c0 18 5 53 13 90l62 291h91l-65 -309c-4 -19 -7 -41 -7 -54c0 -35 23 -57 59 -57c39 0 88 27 120 68c26 34 38 64 53 134l47 218h92zM194 667h131l82 -133h-79z" />
    <glyph glyph-name="yacute" unicode="&#xfd;" horiz-adv-x="443" 
d="M385 483h98l-300 -565c-37 -69 -64 -85 -147 -85h-56l16 73h32c50 0 58 6 86 60l14 27l-81 490h95l35 -240c5 -29 10 -95 13 -153c14 35 39 87 66 139zM310 667h132l-139 -133h-79z" />
    <glyph glyph-name="ydieresis" unicode="&#xff;" horiz-adv-x="443" 
d="M385 483h98l-300 -565c-37 -69 -64 -85 -147 -85h-56l16 73h32c50 0 58 6 86 60l14 27l-81 490h95l35 -240c5 -29 10 -95 13 -153c14 35 39 87 66 139zM260 667l-21 -100h-91l21 100h91zM430 667l-21 -100h-92l21 100h92z" />
    <glyph glyph-name="zcaron" unicode="&#x17e;" horiz-adv-x="431" 
d="M440 478l-11 -51l-239 -268c-31 -33 -57 -62 -79 -86h272l-15 -73h-385l16 73l232 257c22 24 23 26 31 35c22 24 25 27 36 40h-245l15 73h372zM210 532l-59 135h76l39 -92l76 92h95l-126 -135h-101z" />
    <glyph glyph-name="commasuperior" unicode="&#xf6e2;" horiz-adv-x="149" 
d="M59 336h68l-10 -49c-13 -65 -42 -98 -91 -105l8 40c18 6 29 18 37 44h-27z" />
    <glyph glyph-name="periodsuperior" unicode="&#xf6e8;" horiz-adv-x="149" 
d="M127 337l-15 -70h-69l15 70h69z" />
    <glyph glyph-name="figuredash" unicode="&#x2012;" horiz-adv-x="553" 
d="M518 302l-18 -83h-460l18 83h460z" />
    <glyph glyph-name="oneeighth" unicode="&#x215b;" horiz-adv-x="875" 
d="M332 663l-91 -396h-64l66 290c-30 -7 -53 -10 -84 -10h-24l10 45c65 0 125 30 138 71h49zM663 667l-352 -667h-64l351 667h65zM764 207c24 -16 37 -42 37 -76c0 -78 -66 -139 -151 -139c-80 0 -133 45 -133 112c0 54 34 99 86 115c-28 22 -37 38 -37 67
c0 68 59 118 139 118c76 0 126 -39 126 -100c0 -46 -25 -82 -67 -97zM701 348c-44 0 -75 -27 -75 -66c0 -30 24 -47 66 -47c46 0 79 26 79 62c0 31 -27 51 -70 51zM666 186c-49 0 -83 -34 -83 -81c0 -34 28 -57 68 -57c48 0 84 34 84 81c0 36 -25 57 -69 57z" />
    <glyph glyph-name="threeeighths" unicode="&#x215c;" horiz-adv-x="875" 
d="M194 448l12 54c10 -2 15 -2 22 -2c54 0 84 24 84 66c0 29 -24 49 -58 49c-43 0 -72 -24 -82 -68h-64c17 79 71 124 148 124c72 0 122 -42 122 -102c0 -45 -27 -82 -67 -94c30 -14 47 -41 47 -78c0 -77 -69 -138 -156 -138c-79 0 -131 46 -131 116v16h64v-15
c0 -37 26 -61 66 -61c51 0 91 37 91 82c0 34 -22 52 -65 52c-16 0 -23 0 -33 -1zM663 667l-352 -667h-64l351 667h65zM764 207c25 -16 37 -42 37 -76c0 -78 -66 -139 -151 -139c-80 0 -133 45 -133 112c0 54 34 99 85 115c-27 22 -36 38 -36 67c0 68 59 118 139 118
c77 0 126 -39 126 -100c0 -46 -25 -83 -67 -97zM701 348c-44 0 -75 -27 -75 -66c0 -30 24 -47 66 -47c46 0 79 26 79 62c0 31 -27 51 -70 51zM666 186c-48 0 -83 -34 -83 -81c0 -34 28 -57 68 -57c48 0 84 34 84 81c0 36 -25 57 -69 57z" />
    <glyph glyph-name="fiveeighths" unicode="&#x215d;" horiz-adv-x="875" 
d="M204 607l-29 -88c28 13 43 17 67 17c74 0 124 -47 124 -114c0 -93 -72 -163 -167 -163c-72 0 -123 44 -123 108c0 5 0 14 1 22h62c-1 -7 -1 -11 -1 -18c0 -34 26 -56 66 -56c55 0 95 42 95 101c0 40 -26 64 -71 64c-33 0 -61 -13 -81 -38l-52 4l66 217h220l-13 -56h-164z
M663 667l-352 -667h-65l351 667h66zM763 207c25 -16 38 -42 38 -76c0 -78 -66 -139 -152 -139c-80 0 -133 45 -133 112c0 54 34 99 86 115c-28 22 -37 38 -37 67c0 67 59 118 139 118c77 0 126 -39 126 -100c0 -46 -25 -83 -67 -97zM700 348c-44 0 -75 -27 -75 -66
c0 -30 24 -47 66 -47c46 0 79 26 79 62c0 31 -27 51 -70 51zM666 186c-49 0 -84 -34 -84 -81c0 -34 28 -57 68 -57c49 0 85 34 85 81c0 36 -25 57 -69 57z" />
    <glyph glyph-name="seveneighths" unicode="&#x215e;" horiz-adv-x="875" 
d="M406 663l-14 -60c-94 -83 -193 -239 -213 -336h-70c31 117 106 233 219 340h-217l13 56h282zM663 667l-352 -667h-65l351 667h66zM763 207c25 -16 38 -42 38 -76c0 -78 -66 -139 -152 -139c-80 0 -133 45 -133 112c0 54 34 99 86 115c-27 22 -36 38 -36 67
c0 67 59 118 138 118c77 0 126 -39 126 -100c0 -46 -25 -82 -67 -97zM701 348c-44 0 -75 -27 -75 -66c0 -30 24 -47 66 -47c46 0 78 26 78 62c0 31 -27 51 -69 51zM666 186c-49 0 -84 -34 -84 -81c0 -34 28 -57 68 -57c49 0 85 34 85 81c0 36 -25 57 -69 57z" />
    <glyph glyph-name="onethird" unicode="&#x2153;" horiz-adv-x="875" 
d="M332 663l-91 -396h-64l66 290c-30 -7 -53 -10 -84 -10h-24l10 45c65 0 125 30 138 71h49zM663 667l-352 -667h-64l351 667h65zM638 181l13 54c10 -2 14 -2 21 -2c55 0 85 23 85 66c0 29 -24 49 -58 49c-43 0 -72 -24 -82 -68h-64c17 79 70 124 147 124
c73 0 123 -42 123 -102c0 -44 -26 -80 -67 -94c31 -15 47 -41 47 -78c0 -77 -69 -138 -156 -138c-79 0 -131 46 -131 116v16h64c0 -32 1 -40 10 -51c13 -16 33 -25 56 -25c51 0 91 36 91 82c0 34 -22 52 -65 52c-15 0 -24 0 -34 -1z" />
    <glyph glyph-name="twothirds" unicode="&#x2154;" horiz-adv-x="875" 
d="M339 323l-13 -56h-268c16 97 42 130 147 184c84 46 103 65 103 106c0 36 -24 58 -62 58c-42 0 -64 -19 -78 -70h-63c21 88 65 126 144 126c75 0 126 -44 126 -109c0 -32 -13 -65 -33 -87c-19 -20 -42 -35 -95 -64c-80 -42 -92 -52 -111 -88h203zM663 667l-352 -667h-64
l351 667h65zM638 181l13 54c9 -2 14 -2 21 -2c54 0 84 23 84 66c0 29 -24 49 -58 49c-43 0 -71 -23 -82 -68h-64c17 79 71 124 148 124c72 0 122 -42 122 -102c0 -44 -26 -81 -67 -94c31 -14 47 -41 47 -77c0 -78 -69 -139 -156 -139c-79 0 -131 46 -131 116c0 2 0 10 1 16
h64c-1 -6 -1 -13 -1 -15c0 -37 26 -61 66 -61c51 0 91 36 91 82c0 34 -22 52 -64 52c-16 0 -24 0 -34 -1z" />
    <glyph glyph-name="zerosuperior" unicode="&#x2070;" horiz-adv-x="373" 
d="M264 675c80 0 124 -50 124 -142c0 -58 -25 -145 -58 -201c-29 -47 -73 -73 -128 -73c-79 0 -125 50 -125 137c0 78 29 170 70 223c26 35 71 56 117 56zM263 619c-28 0 -54 -16 -70 -42c-29 -47 -50 -122 -50 -179c0 -52 23 -83 62 -83c29 0 55 19 73 54
c26 51 43 115 46 171c2 49 -21 79 -61 79z" />
    <glyph glyph-name="foursuperior" unicode="&#x2074;" horiz-adv-x="373" 
d="M241 357h-178l13 56l236 250h62l-59 -257h49l-12 -49h-48l-21 -90h-63zM252 406l36 158l-148 -158h112z" />
    <glyph glyph-name="fivesuperior" unicode="&#x2075;" horiz-adv-x="373" 
d="M204 607l-29 -88c28 13 43 17 67 17c74 0 124 -47 124 -114c0 -93 -72 -163 -167 -163c-72 0 -123 44 -123 108c0 5 0 14 1 22h62c-1 -7 -1 -11 -1 -18c0 -34 26 -56 66 -56c55 0 95 42 95 101c0 40 -26 64 -71 64c-33 0 -61 -13 -81 -38l-52 4l66 217h220l-13 -56h-164z
" />
    <glyph glyph-name="sixsuperior" unicode="&#x2076;" horiz-adv-x="373" 
d="M395 558h-64c1 5 1 10 1 14c0 26 -20 43 -50 43c-48 0 -88 -38 -116 -112c33 23 55 31 88 31c70 0 118 -48 118 -116c0 -89 -70 -160 -157 -160c-80 0 -127 53 -127 144c0 149 88 269 198 269c66 0 109 -40 109 -101v-12zM241 478c-52 0 -90 -39 -90 -91
c0 -44 28 -73 69 -73c46 0 86 46 86 97c0 41 -25 67 -65 67z" />
    <glyph glyph-name="sevensuperior" unicode="&#x2077;" horiz-adv-x="373" 
d="M406 663l-14 -60c-94 -83 -193 -239 -213 -336h-70c31 117 106 233 219 340h-217l13 56h282z" />
    <glyph glyph-name="eightsuperior" unicode="&#x2078;" horiz-adv-x="373" 
d="M319 473c24 -16 37 -41 37 -75c0 -79 -66 -140 -151 -140c-80 0 -133 45 -133 112c0 54 34 99 86 115c-28 22 -37 39 -37 68c0 67 59 118 139 118c77 0 126 -39 126 -100c0 -47 -25 -83 -67 -98zM256 615c-44 0 -75 -27 -75 -66c0 -30 24 -47 66 -47c46 0 79 26 79 62
c0 31 -27 51 -70 51zM221 453c-49 0 -83 -34 -83 -82c0 -34 28 -57 68 -57c48 0 84 35 84 82c0 36 -25 57 -69 57z" />
    <glyph glyph-name="ninesuperior" unicode="&#x2079;" horiz-adv-x="373" 
d="M79 372h63c-1 -5 -1 -11 -1 -14c0 -28 17 -43 49 -43c49 0 84 35 113 115c-31 -29 -53 -38 -89 -38c-68 0 -116 48 -116 116c0 91 68 163 153 163c81 0 129 -52 129 -140c0 -71 -22 -146 -59 -200c-32 -46 -81 -72 -135 -72c-64 0 -108 37 -108 92zM253 615
c-49 0 -89 -46 -89 -102c0 -40 25 -65 64 -65c48 0 87 43 87 96c0 44 -23 71 -62 71z" />
    <glyph glyph-name="zeroinferior" unicode="&#x2080;" horiz-adv-x="373" 
d="M208 408c80 0 124 -50 124 -142c0 -58 -25 -145 -58 -201c-29 -47 -73 -73 -128 -73c-79 0 -125 50 -125 137c0 78 29 170 70 223c26 35 71 56 117 56zM207 352c-28 0 -54 -16 -70 -42c-29 -47 -50 -122 -50 -179c0 -52 23 -83 62 -83c29 0 55 19 73 54
c26 51 43 115 46 171c2 49 -21 79 -61 79z" />
    <glyph glyph-name="oneinferior" unicode="&#x2081;" horiz-adv-x="373" 
d="M275 396l-91 -396h-64l66 290c-30 -7 -53 -10 -84 -10h-24l10 45c65 0 125 30 138 71h49z" />
    <glyph glyph-name="twoinferior" unicode="&#x2082;" horiz-adv-x="373" 
d="M282 56l-13 -56h-268c16 97 42 130 147 184c84 46 103 65 103 106c0 36 -24 58 -62 58c-42 0 -64 -19 -78 -70h-63c21 88 65 126 144 126c75 0 126 -44 126 -109c0 -31 -13 -65 -33 -86c-18 -20 -42 -36 -95 -65c-79 -42 -92 -52 -111 -88h203z" />
    <glyph glyph-name="threeinferior" unicode="&#x2083;" horiz-adv-x="373" 
d="M137 181l12 54c10 -2 14 -2 22 -2c54 0 84 23 84 66c0 29 -24 49 -58 49c-43 0 -72 -24 -82 -68h-64c17 79 71 124 148 124c72 0 122 -42 122 -102c0 -44 -26 -80 -67 -94c30 -14 47 -41 47 -78c0 -77 -69 -138 -156 -138c-79 0 -131 46 -131 116v16h64v-15
c0 -37 26 -61 66 -61c51 0 91 36 91 82c0 34 -22 52 -65 52c-15 0 -24 0 -33 -1z" />
    <glyph glyph-name="fourinferior" unicode="&#x2084;" horiz-adv-x="373" 
d="M184 90h-178l13 56l236 250h62l-59 -257h49l-12 -49h-48l-21 -90h-63zM195 139l36 158l-148 -158h112z" />
    <glyph glyph-name="fiveinferior" unicode="&#x2085;" horiz-adv-x="373" 
d="M148 340l-29 -88c27 13 43 17 67 17c74 0 124 -46 124 -114c0 -93 -72 -163 -167 -163c-72 0 -123 44 -123 108c0 5 0 14 1 22h62c-1 -7 -1 -11 -1 -18c0 -34 26 -56 66 -56c55 0 95 42 95 101c0 40 -26 64 -71 64c-33 0 -61 -13 -81 -38l-52 4l66 217h220l-13 -56h-164z
" />
    <glyph glyph-name="sixinferior" unicode="&#x2086;" horiz-adv-x="373" 
d="M338 291h-64c1 5 1 10 1 14c0 26 -20 43 -50 43c-48 0 -87 -38 -116 -111c33 23 55 31 88 31c70 0 118 -47 118 -116c0 -89 -70 -160 -157 -160c-80 0 -127 53 -127 144c0 148 89 268 198 268c66 0 109 -40 109 -101v-12zM184 212c-52 0 -90 -39 -90 -91
c0 -44 28 -73 69 -73c46 0 86 46 86 97c0 41 -25 67 -65 67z" />
    <glyph glyph-name="seveninferior" unicode="&#x2087;" horiz-adv-x="373" 
d="M349 396l-14 -60c-94 -83 -193 -239 -213 -336h-70c31 117 106 233 219 340h-217l13 56h282z" />
    <glyph glyph-name="eightinferior" unicode="&#x2088;" horiz-adv-x="373" 
d="M262 207c24 -16 37 -42 37 -76c0 -78 -66 -139 -151 -139c-80 0 -133 45 -133 112c0 54 34 99 86 115c-28 22 -37 38 -37 67c0 67 59 118 139 118c76 0 126 -39 126 -100c0 -46 -25 -82 -67 -97zM199 348c-44 0 -75 -27 -75 -66c0 -30 24 -47 66 -47c46 0 79 26 79 62
c0 31 -27 51 -70 51zM164 186c-49 0 -83 -33 -83 -81c0 -34 28 -57 68 -57c48 0 84 34 84 81c0 36 -25 57 -69 57z" />
    <glyph glyph-name="nineinferior" unicode="&#x2089;" horiz-adv-x="373" 
d="M22 106h63c-1 -6 -1 -11 -1 -15c0 -28 17 -43 49 -43c49 0 84 36 113 115c-31 -28 -53 -37 -89 -37c-68 0 -116 48 -116 116c0 90 68 162 153 162c81 0 129 -52 129 -140c0 -71 -22 -146 -59 -200c-32 -46 -80 -72 -135 -72c-65 0 -108 37 -108 93zM196 348
c-49 0 -89 -46 -89 -101c0 -40 25 -65 64 -65c48 0 87 43 87 96c0 43 -24 70 -62 70z" />
    <glyph glyph-name="IJ" unicode="&#x132;" horiz-adv-x="729" 
d="M262 667l-142 -667h-95l142 667h95zM261 230h96c-13 -50 -16 -70 -16 -95c0 -45 30 -69 88 -69c37 0 66 13 83 38c14 21 19 37 35 111l96 452h95l-104 -490c-18 -83 -32 -116 -64 -146c-34 -32 -84 -48 -148 -48c-114 0 -177 51 -177 144c0 29 3 48 16 103z" />
    <glyph glyph-name="uni01CD" unicode="&#x1cd;" horiz-adv-x="582" 
d="M421 187h-259l-98 -187h-104l365 667h110l105 -667h-92zM410 265l-44 313l-163 -313h207zM333 715l-59 135h76l39 -92l76 92h95l-126 -135h-101z" />
    <glyph glyph-name="Abreve" unicode="&#x102;" horiz-adv-x="582" 
d="M421 187h-259l-98 -187h-104l365 667h110l105 -667h-92zM410 265l-44 313l-163 -313h207zM505 850h65c-37 -76 -110 -123 -192 -123c-78 0 -123 45 -125 123h64c10 -40 34 -60 73 -60c46 0 84 20 115 60z" />
    <glyph glyph-name="Aogonek" unicode="&#x104;" horiz-adv-x="582" 
d="M435 667l105 -667c-50 -32 -74 -62 -74 -92c0 -25 22 -41 56 -41c13 0 22 2 43 8l-8 -40c-26 -8 -39 -10 -59 -10c-52 0 -84 25 -84 65c0 39 23 72 77 110h-43l-27 187h-259l-98 -187h-104l365 667h110zM410 265l-44 313l-163 -313h207z" />
    <glyph glyph-name="Cacute" unicode="&#x106;" horiz-adv-x="667" 
d="M669 461h-95c-4 86 -66 140 -159 140c-145 0 -260 -146 -260 -329c0 -132 63 -206 175 -206c99 0 170 52 207 152h96c-48 -153 -155 -235 -308 -235c-167 0 -268 108 -268 287c0 235 155 414 359 414c149 0 239 -80 253 -223zM461 850h132l-139 -132h-79z" />
    <glyph glyph-name="Ccaron" unicode="&#x10c;" horiz-adv-x="667" 
d="M669 461h-95c-4 86 -66 140 -159 140c-145 0 -260 -146 -260 -329c0 -132 63 -206 175 -206c99 0 170 52 207 152h96c-48 -153 -155 -235 -308 -235c-167 0 -268 108 -268 287c0 235 155 414 359 414c149 0 239 -80 253 -223zM375 715l-59 135h76l39 -92l76 92h95
l-126 -135h-101z" />
    <glyph glyph-name="Cdotaccent" unicode="&#x10a;" horiz-adv-x="667" 
d="M669 461h-95c-4 86 -66 140 -159 140c-145 0 -260 -146 -260 -329c0 -132 63 -206 175 -206c99 0 170 52 207 152h96c-48 -153 -155 -235 -308 -235c-167 0 -268 108 -268 287c0 235 155 414 359 414c149 0 239 -80 253 -223zM500 850l-21 -100h-91l21 100h91z" />
    <glyph glyph-name="Dcaron" unicode="&#x10e;" horiz-adv-x="664" 
d="M25 0l142 667h188c104 0 160 -14 205 -53c52 -45 80 -116 80 -207c0 -116 -43 -231 -114 -309c-70 -76 -140 -98 -305 -98h-196zM138 84h109c113 0 165 18 212 75c52 63 84 154 84 240c0 58 -15 107 -43 139c-28 34 -67 46 -145 46h-111zM334 715l-59 135h76l39 -92
l76 92h95l-126 -135h-101z" />
    <glyph glyph-name="Dcroat" unicode="&#x110;" horiz-adv-x="664" 
d="M91 309h-41l18 83h40l59 275h188c104 0 160 -14 205 -53c52 -45 80 -116 80 -207c0 -116 -43 -231 -114 -309c-70 -76 -140 -98 -305 -98h-196zM186 309l-48 -225h109c112 0 164 18 212 75c52 62 84 154 84 240c0 58 -15 107 -43 139c-28 34 -67 46 -145 46h-111
l-41 -192h185l-18 -83h-184z" />
    <glyph glyph-name="Ecaron" unicode="&#x11a;" horiz-adv-x="562" 
d="M585 667l-18 -83h-323l-41 -192h320l-17 -83h-320l-48 -226h358l-17 -83h-454l142 667h418zM331 715l-60 135h77l39 -92l76 92h94l-126 -135h-100z" />
    <glyph glyph-name="Edotaccent" unicode="&#x116;" horiz-adv-x="562" 
d="M585 667l-18 -83h-323l-41 -192h320l-17 -83h-320l-48 -226h358l-17 -83h-454l142 667h418zM458 850l-21 -100h-91l21 100h91z" />
    <glyph glyph-name="Eogonek" unicode="&#x118;" horiz-adv-x="562" 
d="M479 0h-53c-50 -33 -74 -62 -74 -92c0 -25 22 -41 57 -41c12 0 22 2 42 8l-8 -40c-26 -8 -39 -10 -59 -10c-51 0 -84 25 -84 65c0 39 23 71 78 110h-353l142 667h418l-18 -83h-323l-41 -192h320l-17 -83h-320l-48 -226h358z" />
    <glyph glyph-name="Gcaron" unicode="&#x1e6;" horiz-adv-x="711" 
d="M372 359h303l-77 -359h-73l8 80c-64 -68 -128 -97 -211 -97c-158 0 -263 115 -263 287c0 112 42 223 113 303c64 72 154 111 253 111c144 0 234 -77 244 -208h-93c-12 79 -69 125 -157 125c-65 0 -120 -25 -166 -74c-62 -68 -96 -159 -96 -260c0 -71 18 -121 56 -155
c32 -30 77 -46 126 -46c113 0 203 85 227 213h-212zM383 715l-59 135h76l39 -92l76 92h95l-126 -135h-101z" />
    <glyph glyph-name="Gbreve" unicode="&#x11e;" horiz-adv-x="711" 
d="M372 359h303l-77 -359h-73l8 80c-64 -68 -128 -97 -211 -97c-158 0 -263 115 -263 287c0 112 42 223 113 303c64 72 154 111 253 111c144 0 234 -77 244 -208h-93c-12 79 -69 125 -157 125c-65 0 -120 -25 -166 -74c-62 -68 -96 -159 -96 -260c0 -71 18 -121 56 -155
c32 -30 77 -46 126 -46c113 0 203 85 227 213h-212zM557 850h65c-38 -77 -110 -123 -192 -123c-77 0 -123 45 -125 123h65c9 -40 33 -60 73 -60c45 0 83 20 114 60z" />
    <glyph glyph-name="Gdotaccent" unicode="&#x120;" horiz-adv-x="711" 
d="M372 359h303l-77 -359h-73l8 80c-64 -68 -128 -97 -211 -97c-158 0 -263 115 -263 287c0 112 42 223 113 303c64 72 154 111 253 111c144 0 234 -77 244 -208h-93c-12 79 -69 125 -157 125c-65 0 -120 -25 -166 -74c-62 -68 -96 -159 -96 -260c0 -71 18 -121 56 -155
c32 -30 77 -46 126 -46c113 0 203 85 227 213h-212zM499 850l-21 -100h-91l21 100h91z" />
    <glyph glyph-name="Idotaccent" unicode="&#x130;" horiz-adv-x="252" 
d="M262 667l-142 -667h-95l142 667h95zM295 850l-21 -100h-91l21 100h91z" />
    <glyph glyph-name="Lacute" unicode="&#x139;" horiz-adv-x="539" 
d="M262 667l-124 -584h345l-17 -83h-441l142 667h95zM280 850h131l-138 -132h-80z" />
    <glyph glyph-name="Lcaron" unicode="&#x13d;" horiz-adv-x="539" 
d="M262 667l-124 -584h345l-17 -83h-441l142 667h95zM419 667l-14 -69c-16 -72 -47 -102 -116 -114l8 35c39 9 57 26 65 63h-44l19 85h82z" />
    <glyph glyph-name="Nacute" unicode="&#x143;" horiz-adv-x="665" 
d="M533 0h-94l-184 449c-14 33 -18 43 -29 74c-1 1 -3 6 -5 13c-2 -28 -15 -110 -24 -150l-82 -386h-90l142 667h94l176 -429c16 -38 31 -79 41 -111c3 43 9 77 27 163l80 377h90zM457 850h131l-138 -132h-80z" />
    <glyph glyph-name="Ncaron" unicode="&#x147;" horiz-adv-x="665" 
d="M533 0h-94l-184 449c-14 33 -18 43 -29 74c-1 1 -3 6 -5 13c-2 -28 -15 -110 -24 -150l-82 -386h-90l142 667h94l176 -429c16 -38 31 -79 41 -111c3 43 9 77 27 163l80 377h90zM375 715l-59 135h76l39 -92l76 92h95l-126 -135h-101z" />
    <glyph glyph-name="Ohungarumlaut" unicode="&#x150;" horiz-adv-x="714" 
d="M422 684c167 0 267 -109 267 -291c0 -223 -164 -410 -361 -410c-163 0 -268 116 -268 297c0 225 160 404 362 404zM418 601c-145 0 -260 -146 -260 -332c0 -123 69 -203 176 -203c74 0 142 37 187 102c44 63 73 154 73 226c0 129 -66 207 -176 207zM378 850h132
l-139 -132h-79zM572 850h131l-138 -132h-80z" />
    <glyph glyph-name="Racute" unicode="&#x154;" horiz-adv-x="641" 
d="M181 286l-61 -286h-95l142 667h239c77 0 122 -11 156 -37c36 -28 57 -78 57 -136c0 -96 -47 -152 -149 -176c63 -14 82 -41 82 -116c0 -20 0 -23 -1 -33l-4 -55c-1 -14 -1 -15 -1 -42c0 -34 4 -47 21 -72h-111c-6 19 -7 30 -7 49c0 14 1 39 3 65l4 46c1 11 1 22 1 32
c0 68 -33 94 -119 94h-157zM198 369h138c72 0 113 8 143 27c29 18 46 53 46 92c0 66 -36 96 -116 96h-165zM396 850h132l-139 -132h-79z" />
    <glyph glyph-name="Rcaron" unicode="&#x158;" horiz-adv-x="641" 
d="M181 286l-61 -286h-95l142 667h239c77 0 122 -11 156 -37c36 -28 57 -78 57 -136c0 -96 -47 -152 -149 -176c63 -14 82 -41 82 -116c0 -20 0 -23 -1 -33l-4 -55c-1 -14 -1 -15 -1 -42c0 -34 4 -47 21 -72h-111c-6 19 -7 30 -7 49c0 14 1 39 3 65l4 46c1 11 1 22 1 32
c0 68 -33 94 -119 94h-157zM198 369h138c72 0 113 8 143 27c29 18 46 53 46 92c0 66 -36 96 -116 96h-165zM323 715l-59 135h76l39 -92l76 92h95l-126 -135h-101z" />
    <glyph glyph-name="Sacute" unicode="&#x15a;" horiz-adv-x="594" 
d="M584 489h-94c-5 72 -56 112 -142 112c-83 0 -140 -41 -140 -100c0 -41 22 -66 83 -93l116 -52c99 -44 134 -87 134 -166c0 -53 -21 -103 -60 -140c-47 -46 -109 -67 -196 -67c-108 0 -188 36 -227 101c-18 30 -24 60 -25 120h91v-15c0 -77 61 -123 163 -123
c92 0 156 46 156 112c0 43 -24 69 -94 100l-100 44c-97 43 -140 95 -140 168c0 113 99 194 237 194c146 0 235 -73 238 -195zM397 850h132l-139 -132h-80z" />
    <glyph glyph-name="Scedilla" unicode="&#x15e;" horiz-adv-x="594" 
d="M584 489h-94c-5 72 -56 112 -142 112c-83 0 -140 -41 -140 -100c0 -41 22 -66 83 -93l116 -52c99 -44 134 -87 134 -166c0 -53 -21 -103 -60 -140c-47 -46 -109 -67 -196 -67c-108 0 -188 36 -227 101c-18 30 -24 60 -25 120h91v-15c0 -77 61 -123 163 -123
c92 0 156 46 156 112c0 43 -24 69 -94 100l-100 44c-97 43 -140 95 -140 168c0 113 99 194 237 194c146 0 235 -73 238 -195zM235 -34h84l-13 -60c-15 -70 -30 -84 -89 -84h-12l7 33h12c22 0 31 10 37 38h-41z" />
    <glyph glyph-name="Tcaron" unicode="&#x164;" horiz-adv-x="496" 
d="M370 584l-124 -584h-95l124 584h-198l18 83h483l-18 -83h-190zM296 715l-59 135h76l39 -92l76 92h95l-126 -135h-101z" />
    <glyph glyph-name="Uring" unicode="&#x16e;" horiz-adv-x="655" 
d="M569 667h95l-87 -413c-24 -113 -42 -152 -88 -197c-49 -48 -117 -74 -192 -74c-135 0 -228 75 -228 183c0 19 7 72 12 99l86 402h95l-84 -397c-11 -48 -14 -69 -14 -88c0 -69 56 -116 140 -116c54 0 101 21 130 58c24 32 31 52 50 141zM467 900c42 0 71 -29 71 -70
c0 -56 -53 -107 -110 -107c-41 0 -71 29 -71 70c0 55 53 107 110 107zM457 859c-29 0 -58 -28 -58 -57c0 -22 16 -38 38 -38c31 0 59 27 59 58c0 22 -16 37 -39 37z" />
    <glyph glyph-name="Uhungarumlaut" unicode="&#x170;" horiz-adv-x="655" 
d="M569 667h95l-87 -413c-24 -113 -42 -152 -88 -197c-49 -48 -117 -74 -192 -74c-135 0 -228 75 -228 183c0 19 7 72 12 99l86 402h95l-84 -397c-11 -48 -14 -69 -14 -88c0 -69 56 -116 140 -116c54 0 101 21 130 58c24 32 31 52 50 141zM361 850h132l-138 -132h-80z
M555 850h132l-139 -132h-79z" />
    <glyph glyph-name="Zacute" unicode="&#x179;" horiz-adv-x="553" 
d="M585 667l-17 -77l-349 -406c-29 -34 -36 -41 -80 -88l-12 -13h383l-17 -83h-495l19 88l338 394c24 28 64 71 94 102h-354l18 83h472zM391 850h132l-139 -132h-80z" />
    <glyph glyph-name="Zdotaccent" unicode="&#x17b;" horiz-adv-x="553" 
d="M585 667l-17 -77l-349 -406c-29 -34 -36 -41 -80 -88l-12 -13h383l-17 -83h-495l19 88l338 394c24 28 64 71 94 102h-354l18 83h472zM420 850l-22 -100h-91l22 100h91z" />
    <glyph glyph-name="Amacron" unicode="&#x100;" horiz-adv-x="582" 
d="M421 187h-259l-98 -187h-104l365 667h110l105 -667h-92zM410 265l-44 313l-163 -313h207zM560 850l-18 -83h-312l18 83h312z" />
    <glyph glyph-name="Tcommaaccent" unicode="&#x162;" horiz-adv-x="496" 
d="M370 584l-124 -584h-95l124 584h-198l18 83h483l-18 -83h-190zM236 -42l-14 -69c-16 -71 -47 -101 -116 -113l8 35c39 9 57 26 65 62h-44l18 85h83z" />
    <glyph glyph-name="uni021A" unicode="&#x21a;" horiz-adv-x="496" 
d="M370 584l-124 -584h-95l124 584h-198l18 83h483l-18 -83h-190zM236 -42l-14 -69c-16 -71 -47 -101 -116 -113l8 35c39 9 57 26 65 62h-44l18 85h83z" />
    <glyph glyph-name="Ccircumflex" unicode="&#x108;" horiz-adv-x="667" 
d="M669 461h-95c-4 86 -66 140 -159 140c-145 0 -260 -146 -260 -329c0 -132 63 -206 175 -206c99 0 170 52 207 152h96c-48 -153 -155 -235 -308 -235c-167 0 -268 108 -268 287c0 235 155 414 359 414c149 0 239 -80 253 -223zM504 850l59 -135h-76l-39 92l-76 -92h-95
l126 135h101z" />
    <glyph glyph-name="Wcircumflex" unicode="&#x174;" horiz-adv-x="794" 
d="M224 0h-98l-51 667h98l21 -365c1 -27 2 -52 2 -66c0 -3 -1 -97 -2 -135c22 68 57 164 72 201l153 365h101l30 -365c5 -84 6 -101 6 -180v-21c13 56 28 102 59 183l150 383h98l-273 -667h-97l-30 357c-4 39 -7 120 -7 163c0 24 0 37 2 66c-28 -98 -40 -130 -91 -249z
M552 850l59 -135h-76l-39 92l-76 -92h-95l126 135h101z" />
    <glyph glyph-name="Wdieresis" unicode="&#x1e84;" horiz-adv-x="794" 
d="M224 0h-98l-51 667h98l21 -365c1 -27 2 -52 2 -66c0 -3 -1 -97 -2 -135c22 68 57 164 72 201l153 365h101l30 -365c5 -84 6 -101 6 -180v-21c13 56 28 102 59 183l150 383h98l-273 -667h-97l-30 357c-4 39 -7 120 -7 163c0 24 0 37 2 66c-28 -98 -40 -130 -91 -249z
M459 850l-21 -100h-91l21 100h91zM633 850l-21 -100h-95l21 100h95z" />
    <glyph glyph-name="Ycircumflex" unicode="&#x176;" horiz-adv-x="533" 
d="M312 244l-52 -244h-95l55 257l-150 410h108l104 -326l218 326h117zM437 850l59 -135h-76l-39 92l-76 -92h-95l127 135h100z" />
    <glyph glyph-name="Hbar" unicode="&#x126;" horiz-adv-x="665" 
d="M124 468h-60l18 83h60l25 116h95l-25 -116h318l24 116h95l-24 -116h50l-18 -83h-50l-99 -468h-95l67 319h-317l-68 -319h-95zM220 468l-15 -66h318l14 66h-317z" />
    <glyph glyph-name="Dbreve" horiz-adv-x="664" 
d="M25 0l142 667h188c104 0 160 -14 205 -53c52 -45 80 -116 80 -207c0 -116 -43 -231 -114 -309c-70 -76 -140 -98 -305 -98h-196zM138 84h109c113 0 165 18 212 75c52 63 84 154 84 240c0 58 -15 107 -43 139c-28 34 -67 46 -145 46h-111zM514 850h64
c-37 -76 -109 -123 -192 -123c-77 0 -122 45 -124 123h64c9 -40 34 -60 73 -60c46 0 84 20 115 60z" />
    <glyph glyph-name="Emacron" unicode="&#x112;" horiz-adv-x="562" 
d="M585 667l-18 -83h-323l-41 -192h320l-17 -83h-320l-48 -226h358l-17 -83h-454l142 667h418zM556 850l-17 -83h-312l17 83h312z" />
    <glyph glyph-name="Gcircumflex" unicode="&#x11c;" horiz-adv-x="711" 
d="M372 359h303l-77 -359h-73l8 80c-64 -68 -128 -97 -211 -97c-158 0 -263 115 -263 287c0 112 42 223 113 303c64 72 154 111 253 111c144 0 234 -77 244 -208h-93c-12 79 -69 125 -157 125c-65 0 -120 -25 -166 -74c-62 -68 -96 -159 -96 -260c0 -71 18 -121 56 -155
c32 -30 77 -46 126 -46c113 0 203 85 227 213h-212zM527 850l59 -135h-76l-39 92l-76 -92h-95l126 135h101z" />
    <glyph glyph-name="Hcircumflex" unicode="&#x124;" horiz-adv-x="665" 
d="M505 319h-317l-68 -319h-95l142 667h95l-57 -265h318l56 265h95l-141 -667h-95zM503 850l59 -135h-76l-39 92l-76 -92h-95l126 135h101z" />
    <glyph glyph-name="Imacron" unicode="&#x12a;" horiz-adv-x="252" 
d="M262 667l-142 -667h-95l142 667h95zM376 850l-18 -83h-263l17 83h264z" />
    <glyph glyph-name="Iogonek" unicode="&#x12e;" horiz-adv-x="252" 
d="M120 0c-51 -33 -75 -62 -75 -92c0 -25 22 -41 57 -41c12 0 22 2 42 8l-8 -40c-25 -8 -39 -10 -59 -10c-51 0 -84 25 -84 65c0 39 22 70 78 110h-46l142 667h95z" />
    <glyph glyph-name="Kcommaaccent" unicode="&#x136;" horiz-adv-x="600" 
d="M354 396l206 -396h-108l-168 331l-116 -104l-48 -227h-95l142 667h95l-68 -322l329 322h128zM278 -42l-15 -69c-15 -71 -46 -101 -115 -113l8 35c39 9 56 26 65 62h-44l18 85h83z" />
    <glyph glyph-name="Lcommaaccent" unicode="&#x13b;" horiz-adv-x="539" 
d="M262 667l-124 -584h345l-17 -83h-441l142 667h95zM247 -42l-14 -69c-16 -71 -47 -101 -115 -113l7 35c39 9 57 26 65 62h-43l18 85h82z" />
    <glyph glyph-name="Ncommaaccent" unicode="&#x145;" horiz-adv-x="665" 
d="M533 0h-94l-184 449c-14 33 -18 43 -29 74c-1 1 -3 6 -5 13c-2 -28 -15 -110 -24 -150l-82 -386h-90l142 667h94l176 -429c16 -38 31 -79 41 -111c3 43 9 77 27 163l80 377h90zM311 -42l-15 -69c-16 -71 -47 -101 -115 -113l7 35c39 9 57 26 65 62h-43l18 85h83z" />
    <glyph glyph-name="Omacron" unicode="&#x14c;" horiz-adv-x="714" 
d="M422 684c167 0 267 -109 267 -291c0 -223 -164 -410 -361 -410c-163 0 -268 116 -268 297c0 225 160 404 362 404zM418 601c-145 0 -260 -146 -260 -332c0 -123 69 -203 176 -203c74 0 142 37 187 102c44 63 73 154 73 226c0 129 -66 207 -176 207zM626 850l-18 -83h-312
l18 83h312z" />
    <glyph glyph-name="Rcommaaccent" unicode="&#x156;" horiz-adv-x="641" 
d="M181 286l-61 -286h-95l142 667h239c77 0 122 -11 156 -37c36 -28 57 -78 57 -136c0 -96 -47 -152 -149 -176c63 -14 82 -41 82 -116c0 -20 0 -23 -1 -33l-4 -55c-1 -14 -1 -15 -1 -42c0 -34 4 -47 21 -72h-111c-6 19 -7 30 -7 49c0 14 1 39 3 65l4 46c1 11 1 22 1 32
c0 68 -33 94 -119 94h-157zM198 369h138c72 0 113 8 143 27c29 18 46 53 46 92c0 66 -36 96 -116 96h-165zM298 -42l-15 -69c-15 -71 -46 -101 -115 -113l8 35c39 9 56 26 65 62h-44l18 85h83z" />
    <glyph glyph-name="Scircumflex" unicode="&#x15c;" horiz-adv-x="594" 
d="M584 489h-94c-5 72 -56 112 -142 112c-83 0 -140 -41 -140 -100c0 -41 22 -66 83 -93l116 -52c99 -44 134 -87 134 -166c0 -53 -21 -103 -60 -140c-47 -46 -109 -67 -196 -67c-108 0 -188 36 -227 101c-18 30 -24 60 -25 120h91v-15c0 -77 61 -123 163 -123
c92 0 156 46 156 112c0 43 -24 69 -94 100l-100 44c-97 43 -140 95 -140 168c0 113 99 194 237 194c146 0 235 -73 238 -195zM460 850l59 -135h-76l-39 92l-76 -92h-95l126 135h101z" />
    <glyph glyph-name="Gcommaaccent" unicode="&#x122;" horiz-adv-x="711" 
d="M372 359h303l-77 -359h-73l8 80c-64 -68 -128 -97 -211 -97c-158 0 -263 115 -263 287c0 112 42 223 113 303c64 72 154 111 253 111c144 0 234 -77 244 -208h-93c-12 79 -69 125 -157 125c-65 0 -120 -25 -166 -74c-62 -68 -96 -159 -96 -260c0 -71 18 -121 56 -155
c32 -30 77 -46 126 -46c113 0 203 85 227 213h-212zM334 -42l-14 -69c-16 -71 -47 -101 -116 -113l8 35c39 9 57 26 65 62h-44l18 85h83z" />
    <glyph glyph-name="uni01D3" unicode="&#x1d3;" horiz-adv-x="655" 
d="M569 667h95l-87 -413c-24 -113 -42 -152 -88 -197c-49 -48 -117 -74 -192 -74c-135 0 -228 75 -228 183c0 19 7 72 12 99l86 402h95l-84 -397c-11 -48 -14 -69 -14 -88c0 -69 56 -116 140 -116c54 0 101 21 130 58c24 32 31 52 50 141zM370 715l-59 135h76l39 -92l76 92
h95l-126 -135h-101z" />
    <glyph glyph-name="Umacron" unicode="&#x16a;" horiz-adv-x="655" 
d="M569 667h95l-87 -413c-24 -113 -42 -152 -88 -197c-49 -48 -117 -74 -192 -74c-135 0 -228 75 -228 183c0 19 7 72 12 99l86 402h95l-84 -397c-11 -48 -14 -69 -14 -88c0 -69 56 -116 140 -116c54 0 101 21 130 58c24 32 31 52 50 141zM594 850l-18 -83h-312l18 83h312z
" />
    <glyph glyph-name="Uogonek" unicode="&#x172;" horiz-adv-x="655" 
d="M664 667l-87 -413c-29 -137 -55 -182 -138 -234c-17 -10 -35 -18 -54 -24c-47 -32 -68 -59 -68 -88c0 -25 22 -41 56 -41c13 0 22 2 43 8l-8 -40c-26 -8 -39 -10 -59 -10c-52 0 -84 25 -84 65c0 32 20 66 56 94c-9 -1 -15 -1 -23 -1c-136 0 -229 74 -229 183
c0 19 7 72 12 99l86 402h95l-84 -397c-11 -48 -14 -69 -14 -88c0 -69 56 -116 140 -116c54 0 101 21 130 58c24 32 31 52 50 141l85 402h95z" />
    <glyph glyph-name="Adotaccent" horiz-adv-x="582" 
d="M421 187h-259l-98 -187h-104l365 667h110l105 -667h-92zM410 265l-44 313l-163 -313h207zM461 850l-22 -100h-91l22 100h91z" />
    <glyph glyph-name="Ebreve" unicode="&#x114;" horiz-adv-x="562" 
d="M585 667l-18 -83h-323l-41 -192h320l-17 -83h-320l-48 -226h358l-17 -83h-454l142 667h418zM499 850h65c-37 -76 -110 -123 -192 -123c-77 0 -122 45 -125 123h65c9 -40 33 -60 73 -60c45 0 83 20 114 60z" />
    <glyph glyph-name="Fdotaccent" horiz-adv-x="502" 
d="M558 667l-18 -83h-296l-43 -201h302l-17 -83h-302l-64 -300h-95l142 667h391zM438 850l-21 -100h-91l21 100h91z" />
    <glyph glyph-name="uni01F4" unicode="&#x1f4;" horiz-adv-x="711" 
d="M372 359h303l-77 -359h-73l8 80c-64 -68 -128 -97 -211 -97c-158 0 -263 115 -263 287c0 112 42 223 113 303c64 72 154 111 253 111c144 0 234 -77 244 -208h-93c-12 79 -69 125 -157 125c-65 0 -120 -25 -166 -74c-62 -68 -96 -159 -96 -260c0 -71 18 -121 56 -155
c32 -30 77 -46 126 -46c113 0 203 85 227 213h-212zM470 850h132l-139 -132h-79z" />
    <glyph glyph-name="dotlessj" unicode="&#xf6be;" horiz-adv-x="220" 
d="M208 480l-106 -500c-18 -82 -34 -104 -92 -125c-29 -10 -52 -14 -78 -14c-15 0 -25 1 -47 2l15 70c11 -1 16 -1 27 -1c54 0 74 18 87 76l104 492h90z" />
    <glyph glyph-name="ij" unicode="&#x133;" horiz-adv-x="453" 
d="M208 483l-102 -483h-92l103 483h91zM247 667l-21 -100h-92l22 100h91zM343 483h92l-109 -510c-21 -102 -45 -126 -124 -126h-65l16 81h22c44 0 52 9 65 73zM473 667l-22 -100h-91l21 100h92z" />
    <glyph glyph-name="uni01CE" unicode="&#x1ce;" horiz-adv-x="501" 
d="M161 350h-85c28 97 100 146 214 146c98 0 162 -43 162 -109c0 -12 -5 -48 -10 -69l-36 -170c-7 -34 -8 -41 -8 -52c0 -25 10 -33 38 -33h18l-15 -69h-35c-52 0 -69 14 -74 58c-40 -45 -85 -65 -149 -65c-48 0 -87 13 -114 39s-44 69 -44 110c0 44 19 86 51 112
c30 26 73 39 139 43l78 5c38 3 52 7 62 20c9 12 15 32 15 53c0 39 -26 57 -83 57c-72 0 -107 -22 -124 -76zM338 218l4 16c-13 -2 -18 -3 -28 -5c-5 0 -14 -1 -26 -3l-24 -2l-55 -6c-62 -7 -92 -34 -92 -82c0 -44 30 -72 79 -72c40 0 83 20 104 49c15 20 28 55 38 105z
M261 532l-59 135h77l38 -92l77 92h94l-126 -135h-101z" />
    <glyph glyph-name="abreve" unicode="&#x103;" horiz-adv-x="501" 
d="M161 350h-85c28 97 100 146 214 146c98 0 162 -43 162 -109c0 -12 -5 -48 -10 -69l-36 -170c-7 -34 -8 -41 -8 -52c0 -25 10 -33 38 -33h18l-15 -69h-35c-52 0 -69 14 -74 58c-40 -45 -85 -65 -149 -65c-48 0 -87 13 -114 39s-44 69 -44 110c0 44 19 86 51 112
c30 26 73 39 139 43l78 5c38 3 52 7 62 20c9 12 15 32 15 53c0 39 -26 57 -83 57c-72 0 -107 -22 -124 -76zM338 218l4 16c-13 -2 -18 -3 -28 -5c-5 0 -14 -1 -26 -3l-24 -2l-55 -6c-62 -7 -92 -34 -92 -82c0 -44 30 -72 79 -72c40 0 83 20 104 49c15 20 28 55 38 105z
M427 667h65c-37 -76 -110 -123 -192 -123c-78 0 -123 45 -125 123h64c10 -40 34 -60 73 -60c46 0 84 20 115 60z" />
    <glyph glyph-name="aogonek" unicode="&#x105;" horiz-adv-x="501" 
d="M404 -6h-6c-41 -26 -66 -58 -66 -86c0 -25 22 -41 57 -41c12 0 22 2 42 8l-8 -40c-25 -8 -39 -10 -59 -10c-51 0 -84 25 -84 65c0 39 24 73 78 110h3c-18 8 -29 26 -31 52c-40 -45 -85 -65 -149 -65c-48 0 -87 13 -114 39s-44 69 -44 110c0 44 19 86 51 112
c30 26 73 39 139 43l78 5c38 3 52 7 62 20c9 12 15 32 15 53c0 39 -26 57 -83 57c-72 0 -107 -22 -124 -76h-85c28 97 100 146 214 146c98 0 162 -43 162 -109c0 -12 -5 -48 -10 -69l-36 -170c-7 -34 -8 -41 -8 -52c0 -25 10 -33 38 -33h18l-15 -69h-35zM338 218l4 16
c-13 -2 -18 -3 -28 -5c-5 0 -14 -1 -26 -3l-24 -2l-55 -6c-62 -7 -92 -34 -92 -82c0 -44 30 -72 79 -72c40 0 83 20 104 49c15 20 28 55 38 105z" />
    <glyph glyph-name="cacute" unicode="&#x107;" horiz-adv-x="492" 
d="M479 329h-86c0 55 -38 91 -96 91c-40 0 -80 -18 -107 -49c-40 -46 -65 -116 -65 -180c0 -78 41 -127 106 -127c59 0 104 32 133 93h88c-32 -106 -115 -170 -221 -170c-123 0 -200 75 -200 196c0 93 36 183 97 245c43 44 102 68 166 68c110 0 185 -67 185 -167zM350 667
h132l-139 -133h-80z" />
    <glyph glyph-name="ccaron" unicode="&#x10d;" horiz-adv-x="492" 
d="M479 329h-86c0 55 -38 91 -96 91c-40 0 -80 -18 -107 -49c-40 -46 -65 -116 -65 -180c0 -78 41 -127 106 -127c59 0 104 32 133 93h88c-32 -106 -115 -170 -221 -170c-123 0 -200 75 -200 196c0 93 36 183 97 245c43 44 102 68 166 68c110 0 185 -67 185 -167zM253 532
l-59 135h76l39 -92l76 92h95l-126 -135h-101z" />
    <glyph glyph-name="cdotaccent" unicode="&#x10b;" horiz-adv-x="492" 
d="M479 329h-86c0 55 -38 91 -96 91c-40 0 -80 -18 -107 -49c-40 -46 -65 -116 -65 -180c0 -78 41 -127 106 -127c59 0 104 32 133 93h88c-32 -106 -115 -170 -221 -170c-123 0 -200 75 -200 196c0 93 36 183 97 245c43 44 102 68 166 68c110 0 185 -67 185 -167zM381 667
l-21 -100h-91l21 100h91z" />
    <glyph glyph-name="dcaron" unicode="&#x10f;" horiz-adv-x="615" 
d="M561 667l-142 -667h-85l12 57c-50 -51 -88 -70 -142 -70c-105 0 -174 78 -174 195c0 83 33 173 86 235c43 50 106 80 168 80c63 0 100 -24 131 -84l54 254h92zM291 420c-45 0 -86 -24 -115 -67c-32 -48 -53 -116 -53 -170c0 -73 39 -119 100 -119c44 0 88 26 117 68
c32 48 55 119 55 170c0 75 -38 118 -104 118zM695 667l-15 -69c-15 -72 -46 -102 -115 -114l8 35c38 9 57 26 65 63h-44l18 85h83z" />
    <glyph glyph-name="dcroat" unicode="&#x111;" horiz-adv-x="540" 
d="M550 617h38l-16 -67h-36l-117 -550h-85l12 57c-50 -51 -88 -70 -142 -70c-105 0 -174 78 -174 195c0 83 33 173 86 235c43 50 106 80 168 80c63 0 100 -24 131 -84l29 137h-154l15 67h153l11 50h92zM291 420c-45 0 -86 -24 -115 -67c-32 -48 -53 -116 -53 -170
c0 -73 39 -119 100 -119c44 0 88 26 117 68c32 48 55 119 55 170c0 75 -38 118 -104 118z" />
    <glyph glyph-name="ecaron" unicode="&#x11b;" horiz-adv-x="527" 
d="M480 219h-355c-2 -15 -3 -22 -3 -32c0 -76 44 -123 115 -123c53 0 98 26 126 74h94c-48 -102 -121 -151 -225 -151c-122 0 -197 79 -197 207c0 81 28 162 76 220c45 56 111 86 186 86c117 0 193 -76 193 -195c0 -26 -3 -50 -10 -86zM402 292l1 24c0 68 -40 107 -109 107
c-75 0 -128 -46 -153 -131h261zM263 532l-59 135h77l38 -92l77 92h94l-126 -135h-101z" />
    <glyph glyph-name="edotaccent" unicode="&#x117;" horiz-adv-x="527" 
d="M480 219h-355c-2 -15 -3 -22 -3 -32c0 -76 44 -123 115 -123c53 0 98 26 126 74h94c-48 -102 -121 -151 -225 -151c-122 0 -197 79 -197 207c0 81 28 162 76 220c45 56 111 86 186 86c117 0 193 -76 193 -195c0 -26 -3 -50 -10 -86zM402 292l1 24c0 68 -40 107 -109 107
c-75 0 -128 -46 -153 -131h261zM386 667l-21 -100h-91l21 100h91z" />
    <glyph glyph-name="eogonek" unicode="&#x119;" horiz-adv-x="527" 
d="M359 -125l-8 -40c-26 -8 -39 -10 -59 -10c-52 0 -84 25 -84 65c0 34 23 70 62 99c-15 -2 -23 -2 -40 -2c-120 0 -195 80 -195 207c0 81 28 162 76 220c45 56 111 86 186 86c117 0 193 -76 193 -195c0 -26 -3 -50 -10 -86h-355c-2 -15 -3 -22 -3 -32
c0 -76 44 -123 115 -123c53 0 98 26 126 74h94c-26 -57 -63 -100 -112 -131c-46 -30 -54 -36 -70 -58c-9 -14 -15 -29 -15 -41c0 -25 22 -41 56 -41c13 0 22 2 43 8zM402 292l1 24c0 68 -40 107 -109 107c-75 0 -128 -46 -153 -131h261z" />
    <glyph glyph-name="gcaron" unicode="&#x1e7;" horiz-adv-x="542" 
d="M440 488h85l-88 -415c-20 -91 -38 -132 -73 -168c-39 -38 -99 -59 -170 -59c-111 0 -170 46 -173 136h89c0 -18 1 -25 7 -33c11 -18 44 -29 87 -29c86 0 127 39 150 143c-51 -38 -91 -54 -136 -54c-108 0 -181 83 -181 207c0 159 105 280 243 280c67 0 106 -21 145 -76z
M286 419c-88 0 -155 -89 -155 -208c0 -78 40 -126 105 -126c50 0 96 26 121 68c24 40 40 99 40 147c0 77 -40 119 -111 119zM264 532l-59 135h76l39 -92l76 92h95l-126 -135h-101z" />
    <glyph glyph-name="gbreve" unicode="&#x11f;" horiz-adv-x="542" 
d="M440 488h85l-88 -415c-20 -91 -38 -132 -73 -168c-39 -38 -99 -59 -170 -59c-111 0 -170 46 -173 136h89c0 -18 1 -25 7 -33c11 -18 44 -29 87 -29c86 0 127 39 150 143c-51 -38 -91 -54 -136 -54c-108 0 -181 83 -181 207c0 159 105 280 243 280c67 0 106 -21 145 -76z
M286 419c-88 0 -155 -89 -155 -208c0 -78 40 -126 105 -126c50 0 96 26 121 68c24 40 40 99 40 147c0 77 -40 119 -111 119zM445 667h65c-38 -77 -110 -123 -192 -123c-77 0 -123 45 -125 123h64c10 -40 34 -60 73 -60c46 0 84 20 115 60z" />
    <glyph glyph-name="gdotaccent" unicode="&#x121;" horiz-adv-x="542" 
d="M440 488h85l-88 -415c-20 -91 -38 -132 -73 -168c-39 -38 -99 -59 -170 -59c-111 0 -170 46 -173 136h89c0 -18 1 -25 7 -33c11 -18 44 -29 87 -29c86 0 127 39 150 143c-51 -38 -91 -54 -136 -54c-108 0 -181 83 -181 207c0 159 105 280 243 280c67 0 106 -21 145 -76z
M286 419c-88 0 -155 -89 -155 -208c0 -78 40 -126 105 -126c50 0 96 26 121 68c24 40 40 99 40 147c0 77 -40 119 -111 119zM394 667l-21 -100h-92l21 100h92z" />
    <glyph glyph-name="lacute" unicode="&#x13a;" horiz-adv-x="226" 
d="M247 667l-141 -667h-92l142 667h91zM251 850h132l-138 -132h-80z" />
    <glyph glyph-name="lcaron" unicode="&#x13e;" horiz-adv-x="303" 
d="M247 667l-141 -667h-92l142 667h91zM383 667l-15 -69c-16 -72 -46 -102 -115 -114l7 35c39 9 57 26 65 63h-43l18 85h83z" />
    <glyph glyph-name="nacute" unicode="&#x144;" horiz-adv-x="522" 
d="M117 483h85l-14 -64c57 55 103 77 159 77c79 0 130 -46 130 -115c0 -19 -2 -37 -8 -66l-68 -315h-91l66 310c7 32 8 41 8 52c0 36 -21 57 -57 57c-32 0 -68 -15 -98 -40c-37 -31 -57 -69 -71 -131l-52 -248h-92zM340 667h132l-138 -133h-80z" />
    <glyph glyph-name="ncaron" unicode="&#x148;" horiz-adv-x="522" 
d="M117 483h85l-14 -64c57 55 103 77 159 77c79 0 130 -46 130 -115c0 -19 -2 -37 -8 -66l-68 -315h-91l66 310c7 32 8 41 8 52c0 36 -21 57 -57 57c-32 0 -68 -15 -98 -40c-37 -31 -57 -69 -71 -131l-52 -248h-92zM275 532l-59 135h76l39 -92l76 92h95l-126 -135h-101z" />
    <glyph glyph-name="ohungarumlaut" unicode="&#x151;" horiz-adv-x="540" 
d="M303 496c124 0 200 -79 200 -209c0 -80 -32 -162 -86 -220c-49 -53 -110 -80 -182 -80c-124 0 -201 81 -201 210c0 166 119 299 269 299zM298 419c-95 0 -171 -98 -171 -220c0 -81 45 -135 112 -135c40 0 82 22 110 56c36 44 61 112 61 166c0 85 -41 133 -112 133z
M265 667h132l-139 -133h-80zM478 667h132l-138 -133h-80z" />
    <glyph glyph-name="racute" unicode="&#x155;" horiz-adv-x="336" 
d="M119 493h85l-22 -102c45 75 83 106 134 106c19 0 32 -3 54 -14l-24 -85c-22 6 -33 7 -48 7c-35 0 -66 -15 -91 -44c-24 -28 -36 -56 -49 -113l-52 -248h-92zM290 667h132l-139 -133h-79z" />
    <glyph glyph-name="sacute" unicode="&#x15b;" horiz-adv-x="459" 
d="M443 335h-83c-2 51 -42 85 -102 85c-54 0 -94 -26 -94 -61c0 -21 12 -32 58 -53l73 -32c80 -36 112 -74 112 -133c0 -91 -81 -154 -197 -154c-121 0 -198 70 -198 181v14h90c-1 -8 -1 -15 -1 -21c0 -58 46 -97 113 -97c58 0 102 30 102 69c0 27 -12 40 -60 62l-77 36
c-42 19 -56 28 -70 43c-20 21 -30 46 -30 76c0 87 74 147 180 147c76 0 140 -33 168 -88c13 -23 16 -40 16 -74zM300 667h132l-139 -133h-79z" />
    <glyph glyph-name="scircumflex" unicode="&#x15d;" horiz-adv-x="459" 
d="M443 335h-83c-2 51 -42 85 -102 85c-54 0 -94 -26 -94 -61c0 -21 12 -32 58 -53l73 -32c80 -36 112 -74 112 -133c0 -91 -81 -154 -197 -154c-121 0 -198 70 -198 181v14h90c-1 -8 -1 -15 -1 -21c0 -58 46 -97 113 -97c58 0 102 30 102 69c0 27 -12 40 -60 62l-77 36
c-42 19 -56 28 -70 43c-20 21 -30 46 -30 76c0 87 74 147 180 147c76 0 140 -33 168 -88c13 -23 16 -40 16 -74zM360 667l59 -135h-76l-39 92l-76 -92h-95l126 135h101z" />
    <glyph glyph-name="scommaaccent" unicode="&#x219;" horiz-adv-x="459" 
d="M443 335h-83c-2 51 -42 85 -102 85c-54 0 -94 -26 -94 -61c0 -21 12 -32 58 -53l73 -32c80 -36 112 -74 112 -133c0 -91 -81 -154 -197 -154c-121 0 -198 70 -198 181v14h90c-1 -8 -1 -15 -1 -21c0 -58 46 -97 113 -97c58 0 102 30 102 69c0 27 -12 40 -60 62l-77 36
c-42 19 -56 28 -70 43c-20 21 -30 46 -30 76c0 87 74 147 180 147c76 0 140 -33 168 -88c13 -23 16 -40 16 -74zM222 -56l-12 -56c-14 -67 -37 -90 -115 -113l8 37c4 2 6 3 7 3c9 4 17 7 25 10c14 6 25 22 32 46h-41l15 73h81z" />
    <glyph glyph-name="tcaron" unicode="&#x165;" horiz-adv-x="327" 
d="M294 483l-15 -67h-72l-58 -275c-6 -25 -6 -25 -6 -34c0 -20 12 -30 37 -30c14 0 26 2 43 8l-15 -76c-22 -6 -40 -9 -57 -9c-59 0 -103 34 -103 79c0 9 3 36 6 48l61 289h-72l16 67h72l29 142h91l-28 -142h71zM400 712l-14 -69c-16 -71 -47 -101 -116 -113l8 35
c39 9 57 26 65 62h-44l19 85h82z" />
    <glyph glyph-name="uring" unicode="&#x16f;" horiz-adv-x="524" 
d="M507 483l-103 -483h-85l17 79c-54 -66 -100 -92 -165 -92c-77 0 -129 47 -129 115c0 18 5 53 13 90l62 291h91l-65 -309c-4 -19 -7 -41 -7 -54c0 -35 23 -57 59 -57c39 0 88 27 120 68c26 34 38 64 53 134l47 218h92zM371 743c42 0 71 -29 71 -70
c0 -55 -53 -106 -110 -106c-41 0 -71 29 -71 70c0 55 53 106 110 106zM362 702c-30 0 -59 -27 -59 -56c0 -22 16 -38 38 -38c31 0 59 27 59 57c0 22 -16 37 -38 37z" />
    <glyph glyph-name="uhungarumlaut" unicode="&#x171;" horiz-adv-x="525" 
d="M507 483l-103 -483h-85l17 79c-54 -66 -100 -92 -165 -92c-77 0 -129 47 -129 115c0 18 5 53 13 90l62 291h91l-65 -309c-4 -19 -7 -41 -7 -54c0 -35 23 -57 59 -57c39 0 88 27 120 68c26 34 38 64 53 134l47 218h92zM246 667h132l-138 -133h-80zM460 667h132l-139 -133
h-79z" />
    <glyph glyph-name="zacute" unicode="&#x17a;" horiz-adv-x="431" 
d="M440 478l-11 -51l-239 -268c-31 -33 -57 -62 -79 -86h272l-15 -73h-385l16 73l232 257c22 24 23 26 31 35c22 24 25 27 36 40h-245l15 73h372zM286 667h132l-139 -133h-79z" />
    <glyph glyph-name="zdotaccent" unicode="&#x17c;" horiz-adv-x="431" 
d="M440 478l-11 -51l-239 -268c-31 -33 -57 -62 -79 -86h272l-15 -73h-385l16 73l232 257c22 24 23 26 31 35c22 24 25 27 36 40h-245l15 73h372zM339 667l-21 -100h-92l21 100h92z" />
    <glyph glyph-name="hbar" unicode="&#x127;" horiz-adv-x="521" 
d="M240 633h171l-18 -83h-170l-27 -125c59 52 101 71 153 71c74 0 127 -46 127 -112c0 -18 -3 -43 -10 -73l-66 -311h-92l67 311c6 30 8 43 8 56c0 33 -22 52 -60 52c-77 0 -142 -66 -164 -167l-53 -252h-92l117 550h-50l18 83h50l7 34h91z" />
    <glyph glyph-name="tcommaaccent" unicode="&#x163;" horiz-adv-x="265" 
d="M294 483l-15 -67h-72l-59 -275c-5 -24 -5 -25 -5 -34c0 -20 12 -30 37 -30c13 0 25 2 43 8l-15 -76c-23 -6 -40 -9 -57 -9c-59 0 -103 34 -103 79c0 10 3 37 6 48l61 289h-72l15 67h73l28 142h92l-29 -142h72zM137 -56l-12 -56c-14 -67 -37 -90 -115 -113l8 37
c4 2 6 3 7 3c8 4 17 7 25 10c14 6 25 22 32 46h-41l15 73h81z" />
    <glyph glyph-name="uni021B" unicode="&#x21b;" horiz-adv-x="265" 
d="M294 483l-15 -67h-72l-59 -275c-5 -24 -5 -25 -5 -34c0 -20 12 -30 37 -30c13 0 25 2 43 8l-15 -76c-23 -6 -40 -9 -57 -9c-59 0 -103 34 -103 79c0 10 3 37 6 48l61 289h-72l15 67h73l28 142h92l-29 -142h72zM137 -56l-12 -56c-14 -67 -37 -90 -115 -113l8 37
c4 2 6 3 7 3c8 4 17 7 25 10c14 6 25 22 32 46h-41l15 73h81z" />
    <glyph glyph-name="amacron" unicode="&#x101;" horiz-adv-x="501" 
d="M161 350h-85c28 97 100 146 214 146c98 0 162 -43 162 -109c0 -12 -5 -48 -10 -69l-36 -170c-7 -34 -8 -41 -8 -52c0 -25 10 -33 38 -33h18l-15 -69h-35c-52 0 -69 14 -74 58c-40 -45 -85 -65 -149 -65c-48 0 -87 13 -114 39s-44 69 -44 110c0 44 19 86 51 112
c30 26 73 39 139 43l78 5c38 3 52 7 62 20c9 12 15 32 15 53c0 39 -26 57 -83 57c-72 0 -107 -22 -124 -76zM338 218l4 16c-13 -2 -18 -3 -28 -5c-5 0 -14 -1 -26 -3l-24 -2l-55 -6c-62 -7 -92 -34 -92 -82c0 -44 30 -72 79 -72c40 0 83 20 104 49c15 20 28 55 38 105z
M490 667l-18 -83h-312l18 83h312z" />
    <glyph glyph-name="ycircumflex" unicode="&#x177;" horiz-adv-x="443" 
d="M385 483h98l-300 -565c-37 -69 -64 -85 -147 -85h-56l16 73h32c50 0 58 6 86 60l14 27l-81 490h95l35 -240c5 -29 10 -95 13 -153c14 35 39 87 66 139zM353 667l59 -135h-77l-38 92l-77 -92h-94l126 135h101z" />
    <glyph glyph-name="emacron" unicode="&#x113;" horiz-adv-x="527" 
d="M480 219h-355c-2 -15 -3 -22 -3 -32c0 -76 44 -123 115 -123c53 0 98 26 126 74h94c-48 -102 -121 -151 -225 -151c-122 0 -197 79 -197 207c0 81 28 162 76 220c45 56 111 86 186 86c117 0 193 -76 193 -195c0 -26 -3 -50 -10 -86zM402 292l1 24c0 68 -40 107 -109 107
c-75 0 -128 -46 -153 -131h261zM495 667l-18 -83h-312l18 83h312z" />
    <glyph glyph-name="gcircumflex" unicode="&#x11d;" horiz-adv-x="542" 
d="M440 488h85l-88 -415c-20 -91 -38 -132 -73 -168c-39 -38 -99 -59 -170 -59c-111 0 -170 46 -173 136h89c0 -18 1 -25 7 -33c11 -18 44 -29 87 -29c86 0 127 39 150 143c-51 -38 -91 -54 -136 -54c-108 0 -181 83 -181 207c0 159 105 280 243 280c67 0 106 -21 145 -76z
M286 419c-88 0 -155 -89 -155 -208c0 -78 40 -126 105 -126c50 0 96 26 121 68c24 40 40 99 40 147c0 77 -40 119 -111 119zM401 667l59 -135h-76l-39 92l-76 -92h-95l127 135h100z" />
    <glyph glyph-name="ibreve" unicode="&#x12d;" horiz-adv-x="226" 
d="M208 483l-102 -483h-92l103 483h91zM294 667h64c-37 -77 -109 -123 -192 -123c-77 0 -123 45 -124 123h64c9 -40 34 -60 73 -60c46 0 84 20 115 60z" />
    <glyph glyph-name="imacron" unicode="&#x12b;" horiz-adv-x="226" 
d="M208 483l-102 -483h-92l103 483h91zM324 667l-18 -83h-252l18 83h252z" />
    <glyph glyph-name="kcommaaccent" unicode="&#x137;" horiz-adv-x="483" 
d="M305 314l111 -314h-94l-88 256l-89 -73l-39 -183h-92l142 667h91l-80 -377l219 193h126zM216 -56l-12 -56c-15 -67 -37 -89 -116 -113l8 37c4 2 6 3 7 3c9 4 17 7 25 10c14 6 25 21 32 46h-41l15 73h82z" />
    <glyph glyph-name="lcommaaccent" unicode="&#x13c;" horiz-adv-x="226" 
d="M248 667l-142 -667h-92l142 667h92zM87 -56l-12 -56c-14 -67 -37 -90 -115 -113l8 37c4 2 6 3 7 3c8 4 17 7 25 10c14 6 25 22 32 46h-41l15 73h81z" />
    <glyph glyph-name="ncommaaccent" unicode="&#x146;" horiz-adv-x="522" 
d="M117 483h85l-14 -64c57 55 103 77 159 77c79 0 130 -46 130 -115c0 -19 -2 -37 -8 -66l-68 -315h-91l66 310c7 32 8 41 8 52c0 36 -21 57 -57 57c-32 0 -68 -15 -98 -40c-37 -31 -57 -69 -71 -131l-52 -248h-92zM235 -56l-12 -56c-14 -67 -37 -89 -115 -113l7 37
c4 2 7 3 8 3c8 4 16 7 25 10c14 6 24 21 31 46h-41l16 73h81z" />
    <glyph glyph-name="omacron" unicode="&#x14d;" horiz-adv-x="540" 
d="M303 496c124 0 200 -79 200 -209c0 -80 -32 -162 -86 -220c-49 -53 -110 -80 -182 -80c-124 0 -201 81 -201 210c0 166 119 299 269 299zM298 419c-95 0 -171 -98 -171 -220c0 -81 45 -135 112 -135c40 0 82 22 110 56c36 44 61 112 61 166c0 85 -41 133 -112 133z
M502 667l-18 -83h-312l18 83h312z" />
    <glyph glyph-name="rcommaaccent" unicode="&#x157;" horiz-adv-x="336" 
d="M118 493h85l-21 -102c44 75 83 106 134 106c19 0 32 -3 54 -14l-24 -85c-22 6 -33 7 -48 7c-35 0 -66 -15 -91 -44c-25 -28 -37 -56 -49 -113l-53 -248h-91zM93 -56l-12 -56c-14 -67 -37 -90 -115 -113l8 37c4 2 6 3 7 3c8 4 17 7 25 10c14 6 25 22 32 46h-41l15 73h81z
" />
    <glyph glyph-name="ubreve" unicode="&#x16d;" horiz-adv-x="524" 
d="M507 483l-103 -483h-85l17 79c-54 -66 -100 -92 -165 -92c-77 0 -129 47 -129 115c0 18 5 53 13 90l62 291h91l-65 -309c-4 -19 -7 -41 -7 -54c0 -35 23 -57 59 -57c39 0 88 27 120 68c26 34 38 64 53 134l47 218h92zM452 667h64c-37 -77 -109 -123 -192 -123
c-77 0 -123 45 -124 123h64c9 -40 34 -60 73 -60c46 0 84 20 115 60z" />
    <glyph glyph-name="umacron" unicode="&#x16b;" horiz-adv-x="524" 
d="M507 483l-103 -483h-85l17 79c-54 -66 -100 -92 -165 -92c-77 0 -129 47 -129 115c0 18 5 53 13 90l62 291h91l-65 -309c-4 -19 -7 -41 -7 -54c0 -35 23 -57 59 -57c39 0 88 27 120 68c26 34 38 64 53 134l47 218h92zM506 667l-18 -83h-312l18 83h312z" />
    <glyph glyph-name="uogonek" unicode="&#x173;" horiz-adv-x="524" 
d="M404 0h-1c-51 -33 -75 -62 -75 -92c0 -25 22 -41 57 -41c12 0 22 2 42 8l-7 -40c-26 -8 -40 -10 -60 -10c-51 0 -84 25 -84 65c0 39 22 70 78 110h-35l17 79c-54 -66 -100 -92 -165 -92c-77 0 -129 47 -129 115c0 18 5 53 13 90l62 291h91l-65 -309c-4 -20 -7 -40 -7 -54
c0 -34 23 -56 59 -56c39 0 88 27 120 68c26 33 39 64 53 133l47 218h92z" />
    <glyph glyph-name="rcaron" unicode="&#x159;" horiz-adv-x="336" 
d="M119 493h85l-22 -102c45 75 83 106 134 106c19 0 32 -3 54 -14l-24 -85c-22 6 -33 7 -48 7c-35 0 -66 -15 -91 -44c-24 -28 -36 -56 -49 -113l-52 -248h-92zM189 532l-60 135h77l38 -92l77 92h94l-126 -135h-100z" />
    <glyph glyph-name="scedilla" unicode="&#x15f;" horiz-adv-x="459" 
d="M443 335h-83c-2 51 -42 85 -102 85c-54 0 -94 -26 -94 -61c0 -21 12 -32 58 -53l73 -32c80 -36 112 -74 112 -133c0 -91 -81 -154 -197 -154c-121 0 -198 70 -198 181v14h90c-1 -8 -1 -15 -1 -21c0 -58 46 -97 113 -97c58 0 102 30 102 69c0 27 -12 40 -60 62l-77 36
c-42 19 -56 28 -70 43c-20 21 -30 46 -30 76c0 87 74 147 180 147c76 0 140 -33 168 -88c13 -23 16 -40 16 -74zM161 -34h84l-13 -60c-15 -70 -30 -84 -89 -84h-13l8 33h12c22 0 31 10 37 38h-42z" />
    <glyph glyph-name="gcommaaccent" unicode="&#x123;" horiz-adv-x="542" 
d="M440 488h85l-88 -415c-20 -91 -38 -132 -73 -168c-39 -38 -99 -59 -170 -59c-111 0 -170 46 -173 136h89c0 -18 1 -25 7 -33c11 -18 44 -29 87 -29c86 0 127 39 150 143c-51 -38 -91 -54 -136 -54c-108 0 -181 83 -181 207c0 159 105 280 243 280c67 0 106 -21 145 -76z
M286 419c-88 0 -155 -89 -155 -208c0 -78 40 -126 105 -126c50 0 96 26 121 68c24 40 40 99 40 147c0 77 -40 119 -111 119zM364 542h-84l13 60c13 71 30 84 101 84l-7 -33h-12c-22 0 -32 -10 -37 -38h41z" />
    <glyph glyph-name="ahungarumlaut" horiz-adv-x="501" 
d="M161 350h-85c28 97 100 146 214 146c98 0 162 -43 162 -109c0 -12 -5 -48 -10 -69l-36 -170c-7 -34 -8 -41 -8 -52c0 -25 10 -33 38 -33h18l-15 -69h-35c-52 0 -69 14 -74 58c-40 -45 -85 -65 -149 -65c-48 0 -87 13 -114 39s-44 69 -44 110c0 44 19 86 51 112
c30 26 73 39 139 43l78 5c38 3 52 7 62 20c9 12 15 32 15 53c0 39 -26 57 -83 57c-72 0 -107 -22 -124 -76zM338 218l4 16c-13 -2 -18 -3 -28 -5c-5 0 -14 -1 -26 -3l-24 -2l-55 -6c-62 -7 -92 -34 -92 -82c0 -44 30 -72 79 -72c40 0 83 20 104 49c15 20 28 55 38 105z
M251 667h132l-139 -133h-80zM464 667h132l-138 -133h-80z" />
    <glyph glyph-name="adotaccent" horiz-adv-x="501" 
d="M161 350h-85c28 97 100 146 214 146c98 0 162 -43 162 -109c0 -12 -5 -48 -10 -69l-36 -170c-7 -34 -8 -41 -8 -52c0 -25 10 -33 38 -33h18l-15 -69h-35c-52 0 -69 14 -74 58c-40 -45 -85 -65 -149 -65c-48 0 -87 13 -114 39s-44 69 -44 110c0 44 19 86 51 112
c30 26 73 39 139 43l78 5c38 3 52 7 62 20c9 12 15 32 15 53c0 39 -26 57 -83 57c-72 0 -107 -22 -124 -76zM338 218l4 16c-13 -2 -18 -3 -28 -5c-5 0 -14 -1 -26 -3l-24 -2l-55 -6c-62 -7 -92 -34 -92 -82c0 -44 30 -72 79 -72c40 0 83 20 104 49c15 20 28 55 38 105z
M374 667l-21 -100h-92l21 100h92z" />
    <glyph glyph-name="Euro" unicode="&#x20ac;" horiz-adv-x="590" 
d="M462 362h-273c-4 -21 -7 -38 -8 -58h243l-35 -57h-209c12 -119 70 -177 176 -177c45 0 69 7 119 35l-21 -103c-37 -11 -68 -15 -106 -15c-103 0 -184 43 -229 121c-20 35 -33 82 -37 139h-82l35 57h47c2 23 4 40 7 58h-72l35 57h52c56 167 180 263 336 263
c75 0 138 -22 183 -64l-50 -80c-28 39 -76 61 -134 61c-101 0 -188 -68 -232 -180h291z" />
    <glyph glyph-name="peseta" unicode="&#x20a7;" horiz-adv-x="952" 
d="M560 375h54l-17 -83h45l-11 -46h-45l-33 -159c-2 -9 -3 -14 -3 -19c0 -11 6 -16 20 -16c8 0 16 2 30 6l-10 -52c-17 -4 -28 -6 -40 -6c-38 0 -67 22 -67 50c0 6 2 23 3 29l36 167h-45l10 46h45l12 58c-44 -57 -105 -84 -191 -84h-176l-57 -266h-95l142 667h216
c66 0 112 -17 149 -53c35 -34 53 -80 53 -133c0 -38 -8 -72 -25 -106zM194 349h138c63 0 91 8 119 35c23 23 36 55 36 91c0 35 -12 64 -34 83c-21 19 -45 26 -91 26h-118zM916 198h-60c-1 31 -24 50 -61 50c-31 0 -53 -13 -53 -32c0 -11 6 -16 35 -29l45 -19
c51 -22 72 -45 72 -82c0 -55 -52 -94 -126 -94c-79 0 -127 43 -127 114v8h64l-1 -14c0 -34 27 -56 68 -56c33 0 58 16 58 37c0 15 -7 22 -36 34l-48 21c-50 23 -65 40 -65 75c0 52 48 89 116 89c70 0 119 -40 119 -97v-5z" />
    <glyph glyph-name="lira" unicode="&#x20a4;" horiz-adv-x="608" 
d="M390 373l-7 -36h-110l3 -10c8 -28 9 -34 9 -53c0 -2 0 -11 -1 -17h83l-7 -36h-89c-18 -57 -46 -92 -112 -137c8 3 16 6 19 7c31 13 51 18 76 18c28 0 34 -2 112 -30c11 -4 24 -6 37 -6c41 0 90 23 130 62l20 -80c-58 -46 -117 -71 -168 -71c-29 0 -51 6 -101 25
c-42 17 -64 23 -87 23c-33 0 -67 -12 -112 -41l-36 74c64 36 115 97 130 156h-112l8 36h109c-3 40 -5 48 -19 80h-73l7 36h52c-11 34 -14 51 -14 71c0 49 26 102 69 144c55 52 129 78 219 78c131 0 199 -56 199 -162c0 -25 -2 -43 -8 -75h-91c4 24 6 36 6 52
c0 68 -41 104 -119 104c-97 0 -170 -58 -170 -136c0 -22 2 -29 20 -76h128z" />
    <glyph glyph-name="franc" unicode="&#x20a3;" horiz-adv-x="838" 
d="M558 667l-18 -83h-296l-43 -201h302l-17 -83h-302l-64 -300h-95l142 667h391zM621 493h85l-22 -102c45 75 83 106 134 106c19 0 32 -3 54 -14l-24 -85c-22 6 -33 7 -48 7c-35 0 -66 -15 -91 -44c-24 -28 -37 -56 -49 -113l-52 -248h-92z" />
    <glyph glyph-name="one.numerator" horiz-adv-x="261" 
d="M259 664l-63 -271h-44l45 198c-21 -5 -38 -7 -59 -7c-4 0 -8 0 -17 1l7 30c45 0 87 21 96 49h35z" />
    <glyph glyph-name="two.numerator" horiz-adv-x="261" 
d="M266 432l-9 -38h-188c11 66 29 88 103 126c58 31 71 44 71 72c0 25 -17 40 -43 40c-31 0 -45 -13 -55 -48h-44c14 60 45 86 101 86c52 0 88 -30 88 -75c0 -43 -21 -67 -89 -103c-55 -28 -65 -36 -78 -60h143z" />
    <glyph glyph-name="three.numerator" horiz-adv-x="261" 
d="M163 517l8 37c7 -1 11 -1 15 -1c38 0 59 16 59 45c0 20 -17 34 -41 34c-30 0 -50 -16 -57 -47h-45c12 54 49 85 103 85c51 0 86 -29 86 -70c0 -30 -18 -55 -47 -64c23 -11 34 -29 34 -54c0 -52 -48 -94 -108 -94c-56 0 -93 32 -93 80v10h45c0 -22 1 -27 7 -35
c9 -11 23 -17 40 -17c35 0 63 25 63 56c0 24 -15 36 -45 36c-11 0 -18 0 -24 -1z" />
    <glyph glyph-name="four.numerator" horiz-adv-x="261" 
d="M195 455h-124l9 38l164 171h44l-41 -176h34l-8 -33h-33l-15 -62h-44zM203 488l25 108l-103 -108h78z" />
    <glyph glyph-name="five.numerator" horiz-adv-x="261" 
d="M170 626l-21 -60c21 9 31 11 48 11c52 0 87 -32 87 -78c0 -63 -50 -111 -117 -111c-50 0 -86 31 -86 74c0 3 0 9 1 15h43c-1 -5 -1 -10 -1 -12c0 -24 18 -39 47 -39c38 0 66 29 66 69c0 27 -19 44 -50 44c-23 0 -43 -9 -56 -25l-37 2l46 148h154l-9 -38h-115z" />
    <glyph glyph-name="six.numerator" horiz-adv-x="261" 
d="M303 592h-44v9c0 19 -14 31 -35 31c-34 0 -59 -24 -81 -77c23 16 39 21 62 21c49 0 83 -32 83 -79c0 -61 -48 -109 -109 -109c-57 0 -90 37 -90 99c0 101 61 183 138 183c50 0 76 -27 76 -78zM196 538c-36 0 -63 -26 -63 -62c0 -30 20 -50 49 -50c32 0 60 31 60 66
c0 28 -18 46 -46 46z" />
    <glyph glyph-name="seven.numerator" horiz-adv-x="261" 
d="M310 664l-9 -40c-67 -59 -133 -163 -148 -231h-49c21 80 73 160 152 233h-152l9 38h197z" />
    <glyph glyph-name="eight.numerator" horiz-adv-x="261" 
d="M251 535c17 -11 26 -29 26 -52c0 -54 -46 -95 -105 -95c-57 0 -94 31 -94 77c0 37 24 68 59 78c-19 15 -25 27 -25 46c0 47 41 81 96 81c54 0 89 -27 89 -69c0 -31 -18 -56 -46 -66zM206 632c-31 0 -52 -19 -52 -45c0 -21 17 -33 46 -33c32 0 55 18 55 43
c0 22 -19 35 -49 35zM182 520c-33 0 -57 -23 -57 -55c0 -23 19 -39 47 -39c34 0 58 23 58 55c0 25 -17 39 -48 39z" />
    <glyph glyph-name="nine.numerator" horiz-adv-x="261" 
d="M83 465h44c-1 -4 -1 -8 -1 -10c0 -19 12 -30 35 -30c34 0 59 25 78 79c-21 -18 -37 -25 -62 -25c-48 0 -82 33 -82 80c0 62 47 111 107 111c57 0 91 -36 91 -97c0 -49 -15 -100 -41 -137c-22 -31 -56 -49 -94 -49c-45 0 -76 26 -76 64c0 3 0 9 1 14zM204 632
c-35 0 -63 -31 -63 -69c0 -28 18 -46 46 -46c34 0 61 29 61 66c0 30 -17 49 -44 49z" />
    <glyph glyph-name="zero.numerator" horiz-adv-x="261" 
d="M211 673c57 0 88 -35 88 -98c0 -40 -17 -99 -40 -137c-20 -33 -51 -50 -89 -50c-56 0 -88 35 -88 95c0 53 20 115 48 152c19 23 50 38 81 38zM211 635c-19 0 -38 -11 -49 -29c-20 -32 -34 -83 -34 -123c0 -36 16 -57 44 -57c20 0 38 13 50 37c18 34 30 78 32 117
c2 34 -15 55 -43 55z" />
    <glyph glyph-name="one.denominator" horiz-adv-x="261" 
d="M176 271l-63 -271h-44l45 198c-21 -5 -38 -7 -59 -7c-4 0 -8 0 -17 1l7 30c45 0 87 21 96 49h35z" />
    <glyph glyph-name="two.denominator" horiz-adv-x="261" 
d="M182 38l-9 -38h-188c11 66 29 88 103 126c58 31 71 44 71 72c0 25 -17 40 -43 40c-31 0 -45 -13 -55 -48h-44c14 60 45 86 101 86c52 0 88 -30 88 -75c0 -43 -20 -66 -89 -103c-56 -29 -65 -36 -78 -60h143z" />
    <glyph glyph-name="three.denominator" horiz-adv-x="261" 
d="M80 124l8 36c7 -1 11 -1 15 -1c38 0 59 16 59 45c0 20 -17 34 -41 34c-30 0 -50 -16 -57 -47h-45c12 54 49 85 103 85c51 0 86 -29 86 -70c0 -30 -18 -55 -47 -64c23 -10 34 -28 34 -53c0 -52 -48 -94 -108 -94c-56 0 -93 32 -93 80v10h45c0 -22 1 -27 7 -35
c9 -11 23 -17 40 -17c35 0 63 25 63 56c0 24 -15 36 -45 36c-12 0 -18 0 -24 -1z" />
    <glyph glyph-name="four.denominator" horiz-adv-x="261" 
d="M112 62h-124l9 38l164 171h44l-41 -176h34l-8 -33h-33l-15 -62h-44zM120 95l25 108l-103 -108h78z" />
    <glyph glyph-name="five.denominator" horiz-adv-x="261" 
d="M86 233l-21 -60c21 9 31 11 48 11c52 0 87 -32 87 -78c0 -63 -50 -111 -117 -111c-50 0 -86 31 -86 74c0 3 0 9 1 15h43c-1 -5 -1 -10 -1 -12c0 -24 18 -39 47 -39c38 0 66 29 66 69c0 27 -19 44 -50 44c-23 0 -43 -9 -56 -25l-37 2l46 148h154l-9 -38h-115z" />
    <glyph glyph-name="six.denominator" horiz-adv-x="261" 
d="M219 199h-44v9c0 18 -14 30 -35 30c-34 0 -59 -24 -81 -76c23 16 39 21 62 21c49 0 83 -32 83 -79c0 -61 -48 -109 -109 -109c-57 0 -90 36 -90 99c0 101 61 182 138 182c50 0 77 -27 76 -77zM112 145c-36 0 -63 -26 -63 -62c0 -30 20 -50 49 -50c32 0 60 31 60 66
c0 28 -18 46 -46 46z" />
    <glyph glyph-name="seven.denominator" horiz-adv-x="261" 
d="M227 271l-9 -40c-67 -59 -133 -163 -148 -231h-49c21 80 73 160 152 233h-152l9 38h197z" />
    <glyph glyph-name="eight.denominator" horiz-adv-x="261" 
d="M167 142c17 -12 26 -29 26 -52c0 -54 -46 -95 -105 -95c-56 0 -94 31 -94 77c0 36 24 67 59 77c-19 15 -25 27 -25 47c0 46 41 80 96 80c54 0 89 -27 89 -69c0 -31 -18 -56 -46 -65zM122 238c-31 0 -52 -18 -52 -45c0 -20 17 -32 46 -32c32 0 55 17 55 42
c0 22 -19 35 -49 35zM98 127c-33 0 -57 -23 -57 -55c0 -23 19 -39 47 -39c34 0 58 23 58 55c0 25 -17 39 -48 39z" />
    <glyph glyph-name="nine.denominator" horiz-adv-x="261" 
d="M0 72h44c-1 -4 -1 -8 -1 -10c0 -19 12 -29 35 -29c34 0 58 24 78 78c-21 -18 -37 -25 -62 -25c-48 0 -82 33 -82 79c0 62 47 111 107 111c57 0 91 -36 91 -96c0 -49 -15 -99 -41 -136c-22 -31 -56 -49 -94 -49c-45 0 -76 26 -76 63c0 3 0 9 1 14zM121 238
c-35 0 -63 -31 -63 -69c0 -28 18 -45 46 -45c34 0 61 29 61 65c0 30 -17 49 -44 49z" />
    <glyph glyph-name="zero.denominator" horiz-adv-x="261" 
d="M127 279c57 0 88 -35 88 -98c0 -40 -17 -98 -40 -136c-20 -32 -51 -50 -89 -50c-56 0 -88 35 -88 94c0 54 20 116 48 152c19 23 50 38 81 38zM127 241c-19 0 -38 -11 -49 -29c-20 -31 -34 -82 -34 -122c0 -36 16 -57 44 -57c20 0 38 13 50 37c18 34 30 78 32 116
c2 34 -15 55 -43 55z" />
    <glyph glyph-name="uni0387" unicode="&#x387;" horiz-adv-x="238" 
d="M183 306l-23 -106h-103l23 106h103z" />
    <glyph glyph-name="dotmath" unicode="&#x22c5;" horiz-adv-x="238" 
d="M183 306l-23 -106h-103l23 106h103z" />
    <glyph glyph-name="afii57929" unicode="&#x2bc;" horiz-adv-x="238" 
d="M156 667h103l-16 -75c-20 -103 -65 -157 -139 -169l12 56c31 11 47 32 64 83h-47z" />
    <glyph glyph-name="uni00AD" unicode="&#xad;" horiz-adv-x="272" 
d="M283 302l-18 -83h-272l18 83h272z" />
    <glyph glyph-name="uni2011" unicode="&#x2011;" horiz-adv-x="272" 
d="M283 302l-18 -83h-272l18 83h272z" />
    <glyph glyph-name="afii00208" unicode="&#x2015;" horiz-adv-x="660" 
d="M671 302l-18 -83h-660l18 83h660z" />
    <glyph glyph-name="afii61248" unicode="&#x2105;" horiz-adv-x="359" 
d="M197 406c27 0 50 -23 50 -51s-23 -51 -51 -51s-51 23 -51 51c0 29 23 51 52 51z" />
    <glyph glyph-name="uni2101" unicode="&#x2101;" horiz-adv-x="1001" 
d="M334 377h-172l-66 -110h-79l253 400h79l72 -400h-69zM325 430l-28 172l-103 -172h131zM761 667l-352 -667h-64l351 667h65zM962 289h-70c-3 43 -35 65 -94 65c-54 0 -92 -22 -92 -55c0 -23 14 -36 54 -52l79 -30c69 -27 94 -53 94 -101c0 -76 -71 -126 -177 -126
c-75 0 -131 21 -158 61c-13 19 -17 36 -18 76h69v-11c0 -44 40 -70 108 -70c60 0 103 26 103 63c0 24 -15 37 -62 55l-68 26c-68 26 -98 58 -98 102c0 69 69 118 165 118c103 0 163 -44 165 -121z" />
    <glyph glyph-name="uni2236" unicode="&#x2236;" horiz-adv-x="359" 
d="M197 552c23 0 43 -20 43 -44s-20 -44 -44 -44s-44 20 -44 44c0 25 20 44 45 44zM197 246c23 0 43 -20 43 -44s-20 -44 -44 -44s-44 20 -44 44c0 25 20 44 45 44z" />
    <glyph glyph-name="oneone" horiz-adv-x="875" 
d="M332 663l-91 -396h-64l66 290c-30 -7 -53 -10 -84 -10h-24l10 45c65 0 125 30 138 71h49zM663 667l-352 -667h-64l351 667h65zM777 396l-92 -396h-63l66 290c-31 -7 -54 -10 -84 -10h-24l10 45c65 0 124 30 137 71h50z" />
    <glyph glyph-name="onefifth" horiz-adv-x="875" 
d="M332 663l-91 -396h-64l66 290c-30 -7 -53 -10 -84 -10h-24l10 45c65 0 125 30 138 71h49zM663 667l-352 -667h-64l351 667h65zM650 340l-30 -88c28 13 44 17 68 17c73 0 123 -46 123 -114c0 -93 -72 -163 -167 -163c-72 0 -123 44 -123 107c0 5 1 14 2 23h61
c-1 -7 -1 -14 -1 -18c0 -34 26 -56 66 -56c55 0 95 42 95 101c0 40 -26 64 -71 64c-32 0 -60 -13 -80 -38l-53 4l67 217h220l-13 -56h-164z" />
    <glyph glyph-name="twofifth" horiz-adv-x="875" 
d="M339 323l-13 -56h-268c16 97 42 130 147 184c84 46 103 65 103 106c0 36 -24 58 -62 58c-42 0 -64 -19 -78 -70h-63c21 88 65 126 144 126c75 0 126 -44 126 -109c0 -32 -13 -65 -33 -87c-19 -20 -42 -35 -95 -64c-80 -42 -92 -52 -111 -88h203zM663 667l-352 -667h-64
l351 667h65zM649 340l-29 -88c27 13 43 17 68 17c73 0 123 -46 123 -114c0 -93 -72 -163 -167 -163c-72 0 -123 44 -123 107c0 6 0 15 1 23h62c-1 -7 -1 -11 -1 -18c0 -34 26 -56 66 -56c55 0 95 42 95 101c0 40 -26 64 -71 64c-33 0 -61 -13 -81 -38l-52 4l66 217h220
l-13 -56h-164z" />
    <glyph glyph-name="threefifth" horiz-adv-x="875" 
d="M194 448l12 54c10 -2 15 -2 22 -2c54 0 84 24 84 66c0 29 -24 49 -58 49c-43 0 -72 -24 -82 -68h-64c17 79 71 124 148 124c72 0 122 -42 122 -102c0 -45 -27 -82 -67 -94c30 -14 47 -41 47 -78c0 -77 -69 -138 -156 -138c-79 0 -131 46 -131 116v16h64v-15
c0 -37 26 -61 66 -61c51 0 91 37 91 82c0 34 -22 52 -65 52c-16 0 -23 0 -33 -1zM663 667l-352 -667h-64l351 667h65zM649 340l-29 -88c28 13 44 17 68 17c73 0 123 -46 123 -114c0 -93 -72 -163 -167 -163c-72 0 -123 44 -123 108l1 22h62c-1 -7 -1 -13 -1 -18
c0 -34 26 -56 66 -56c55 0 95 42 95 101c0 40 -26 64 -71 64c-32 0 -60 -13 -81 -38l-52 4l67 217h219l-12 -56h-165z" />
    <glyph glyph-name="fourfifth" horiz-adv-x="875" 
d="M241 357h-178l13 56l236 250h62l-59 -257h49l-12 -49h-48l-21 -90h-63zM252 406l36 158l-148 -158h112zM663 667l-352 -667h-64l351 667h65zM650 340l-30 -88c28 13 44 17 68 17c73 0 123 -46 123 -114c0 -93 -72 -163 -167 -163c-72 0 -123 44 -123 107c0 5 1 14 2 23
h61c-1 -7 -1 -14 -1 -18c0 -34 26 -56 66 -56c55 0 95 42 95 101c0 40 -26 64 -71 64c-32 0 -60 -13 -80 -38l-53 4l67 217h220l-13 -56h-164z" />
    <glyph glyph-name="onesixth" horiz-adv-x="875" 
d="M332 663l-91 -396h-64l66 290c-30 -7 -53 -10 -84 -10h-24l10 45c65 0 125 30 138 71h49zM663 667l-352 -667h-64l351 667h65zM840 291h-64c1 5 1 10 1 14c0 26 -20 43 -50 43c-48 0 -87 -38 -117 -111c34 23 56 31 89 31c70 0 118 -47 118 -116
c0 -89 -70 -160 -157 -160c-80 0 -127 53 -127 144c0 148 89 268 198 268c66 0 109 -40 109 -101v-12zM685 212c-51 0 -89 -39 -89 -91c0 -44 28 -73 69 -73c46 0 86 45 86 97c0 41 -25 67 -66 67z" />
    <glyph glyph-name="fivesixth" horiz-adv-x="875" 
d="M204 607l-29 -88c28 13 43 17 67 17c74 0 124 -47 124 -114c0 -93 -72 -163 -167 -163c-72 0 -123 44 -123 108c0 5 0 14 1 22h62c-1 -7 -1 -11 -1 -18c0 -34 26 -56 66 -56c55 0 95 42 95 101c0 40 -26 64 -71 64c-33 0 -61 -13 -81 -38l-52 4l66 217h220l-13 -56h-164z
M663 667l-352 -667h-65l351 667h66zM839 291h-64c1 5 1 9 1 14c0 26 -20 43 -50 43c-48 0 -89 -39 -116 -111c33 23 55 31 88 31c70 0 118 -47 118 -116c0 -89 -70 -160 -157 -160c-80 0 -127 53 -127 144c0 148 89 268 198 268c66 0 109 -40 109 -101v-12zM684 212
c-51 0 -89 -39 -89 -91c0 -44 28 -73 69 -73c46 0 86 45 86 97c0 41 -25 67 -66 67z" />
    <glyph glyph-name="Dieresis" unicode="&#xf6cb;" 
d="M312 850l-21 -100h-91l21 100h91zM486 850l-21 -100h-95l21 100h95z" />
    <glyph glyph-name="Dotaccent" 
d="M393 850l-21 -100h-91l21 100h91z" />
    <glyph glyph-name="Ring" 
d="M383 900c42 0 71 -29 71 -70c0 -56 -52 -107 -109 -107c-41 0 -71 29 -71 70c0 55 53 107 109 107zM374 859c-30 0 -58 -28 -58 -57c0 -22 16 -38 38 -38c30 0 58 28 58 58c0 21 -16 37 -38 37z" />
    <glyph glyph-name="Acute" unicode="&#xf6c9;" 
d="M364 850h132l-138 -132h-80z" />
    <glyph glyph-name="Grave" unicode="&#xf6ce;" 
d="M177 850h131l82 -133h-79z" />
    <glyph glyph-name="Circumflex" 
d="M421 850l59 -135h-76l-39 92l-76 -92h-95l126 135h101z" />
    <glyph glyph-name="Caron" unicode="&#xf6ca;" 
d="M253 715l-59 135h76l39 -92l76 92h95l-126 -135h-101z" />
    <glyph glyph-name="Breve" 
d="M430 850h65c-38 -77 -110 -123 -192 -123c-77 0 -123 45 -125 123h65c9 -40 33 -60 72 -60c46 0 84 20 115 60z" />
    <glyph glyph-name="Tilde" 
d="M455 850l45 -16c-25 -66 -53 -92 -100 -92c-21 0 -34 3 -76 20c-43 16 -51 19 -64 19c-20 0 -32 -10 -46 -39l-41 18l5 12c24 57 48 76 94 76c22 0 41 -5 116 -34c8 -2 16 -4 23 -4c18 0 32 12 44 40z" />
    <glyph glyph-name="Hungarumlaut" unicode="&#xf6cf;" 
d="M270 850h132l-138 -132h-80zM464 850h132l-139 -132h-79z" />
    <glyph glyph-name="Cedilla" 
d="M177 -34h83l-13 -60c-14 -70 -30 -84 -88 -84h-13l7 33h12c22 0 32 10 37 38h-41z" />
    <glyph glyph-name="Ogonek" 
d="M390 0h49c-51 -32 -75 -62 -75 -92c0 -25 22 -41 57 -41c12 0 22 2 42 8l-8 -40c-25 -8 -39 -10 -59 -10c-51 0 -84 25 -84 65c0 39 24 72 78 110z" />
    <glyph glyph-name="Macron" unicode="&#xf6d0;" 
d="M502 850l-18 -83h-312l18 83h312z" />
    <glyph glyph-name="commaaccent.sc" 
d="M228 -42l-15 -69c-16 -71 -46 -101 -115 -113l7 35c39 9 57 26 65 62h-43l18 85h83z" />
    <glyph glyph-name="Comma.high" horiz-adv-x="171" 
d="M314 667l-15 -69c-16 -72 -46 -102 -115 -114l7 35c39 9 57 26 65 63h-43l18 85h83z" />
    <glyph glyph-name="Dieresis.alt" 
d="M319 850l-21 -100h-82l21 100h82zM476 850l-22 -100h-85l21 100h86z" />
    <glyph glyph-name="uni02C9" unicode="&#x2c9;" 
d="M482 667l-18 -83h-312l18 83h312z" />
    <glyph glyph-name="commaaccent" unicode="&#xf6c3;" 
d="M224 -56l-12 -56c-14 -67 -37 -90 -115 -113l8 37c4 2 6 3 7 3c8 4 17 7 25 10c14 6 25 22 32 46h-41l15 73h81z" />
    <glyph glyph-name="comma.high" horiz-adv-x="171" 
d="M187 667l-15 -69c-16 -72 -46 -102 -115 -114l7 35c39 9 57 26 65 63h-43l18 85h83z" />
    <glyph glyph-name="dieresis.alt" 
d="M294 667l-22 -100h-82l21 100h83zM446 667l-21 -100h-82l21 100h82z" />
    <glyph glyph-name="commareversed" horiz-adv-x="459" 
d="M325 542h-84l13 60c13 71 30 84 101 84l-7 -33h-12c-22 0 -32 -10 -37 -38h41z" />
    <glyph glyph-name="uni2117" unicode="&#x2117;" horiz-adv-x="158" 
d="M177 559l-62 -292h-65l62 292h65zM200 667l-14 -66h-65l14 66h65z" />
    <glyph glyph-name="zerozero.afrac" horiz-adv-x="281" 
d="M303 354l-9 -44h-281l9 44h281zM221 673c57 0 88 -35 88 -98c0 -40 -17 -99 -40 -137c-20 -32 -51 -50 -89 -50c-56 0 -88 35 -88 95c0 53 20 115 48 152c19 23 50 38 81 38zM221 635c-19 0 -38 -11 -49 -29c-20 -32 -34 -83 -34 -123c0 -36 16 -57 44 -57
c20 0 38 13 50 37c18 34 30 78 32 117c2 34 -15 55 -43 55zM137 279c57 0 88 -35 88 -98c0 -40 -17 -98 -40 -136c-20 -32 -51 -50 -89 -50c-56 0 -88 35 -88 94c0 54 20 116 48 152c19 23 50 38 81 38zM137 241c-19 0 -38 -11 -49 -29c-20 -31 -34 -82 -34 -122
c0 -36 16 -57 44 -57c20 0 38 13 50 37c18 34 30 78 32 116c2 34 -15 55 -43 55z" />
    <glyph glyph-name="ebreve" unicode="&#x115;" horiz-adv-x="527" 
d="M480 219h-355c-2 -15 -3 -22 -3 -32c0 -76 44 -123 115 -123c53 0 98 26 126 74h94c-48 -102 -121 -151 -225 -151c-122 0 -197 79 -197 207c0 81 28 162 76 220c45 56 111 86 186 86c117 0 193 -76 193 -195c0 -26 -3 -50 -10 -86zM402 292l1 24c0 68 -40 107 -109 107
c-75 0 -128 -46 -153 -131h261zM437 667h64c-37 -77 -109 -123 -191 -123c-78 0 -123 45 -125 123h64c10 -40 34 -60 73 -60c46 0 84 20 115 60z" />
    <glyph glyph-name="iogonek" unicode="&#x12f;" horiz-adv-x="226" 
d="M106 0h-1c-51 -33 -75 -62 -75 -92c0 -25 22 -41 57 -41c12 0 22 2 42 8l-8 -40c-25 -8 -39 -10 -59 -10c-51 0 -84 25 -84 65c0 39 22 70 78 110h-42l103 483h91zM247 667l-21 -100h-92l22 100h91z" />
    <glyph glyph-name="ldot" unicode="&#x140;" horiz-adv-x="271" 
d="M247 667l-141 -667h-92l142 667h91zM325 378l-21 -100h-92l21 100h92z" />
    <glyph glyph-name="utilde" unicode="&#x169;" horiz-adv-x="524" 
d="M507 483l-103 -483h-85l17 79c-54 -66 -100 -92 -165 -92c-77 0 -129 47 -129 115c0 18 5 53 13 90l62 291h91l-65 -309c-4 -19 -7 -41 -7 -54c0 -35 23 -57 59 -57c39 0 88 27 120 68c26 34 38 64 53 134l47 218h92zM448 667l44 -16c-24 -66 -52 -92 -99 -92
c-21 0 -34 3 -77 20c-42 17 -50 19 -64 19c-19 0 -31 -10 -45 -39l-41 18c13 31 17 39 25 52c15 22 42 36 73 36c23 0 42 -5 117 -34c8 -2 16 -4 23 -4c18 0 32 12 44 40z" />
    <glyph glyph-name="uni01D4" unicode="&#x1d4;" horiz-adv-x="524" 
d="M507 483l-103 -483h-85l17 79c-54 -66 -100 -92 -165 -92c-77 0 -129 47 -129 115c0 18 5 53 13 90l62 291h91l-65 -309c-4 -19 -7 -41 -7 -54c0 -35 23 -57 59 -57c39 0 88 27 120 68c26 34 38 64 53 134l47 218h92zM274 532l-59 135h76l39 -92l76 92h95l-126 -135h-101
z" />
    <glyph glyph-name="Ldot" unicode="&#x13f;" horiz-adv-x="539" 
d="M262 667l-124 -584h345l-17 -83h-441l142 667h95zM393 371l-21 -100h-92l21 100h92z" />
    <glyph glyph-name="Scommaaccent" unicode="&#x218;" horiz-adv-x="594" 
d="M584 489h-94c-5 72 -56 112 -142 112c-83 0 -140 -41 -140 -100c0 -41 22 -66 83 -93l116 -52c99 -44 134 -87 134 -166c0 -53 -21 -103 -60 -140c-47 -46 -109 -67 -196 -67c-108 0 -188 36 -227 101c-18 30 -24 60 -25 120h91v-15c0 -77 61 -123 163 -123
c92 0 156 46 156 112c0 43 -24 69 -94 100l-100 44c-97 43 -140 95 -140 168c0 113 99 194 237 194c146 0 235 -73 238 -195zM304 -42l-15 -69c-16 -71 -46 -101 -115 -113l7 35c39 9 57 26 65 62h-43l18 85h83z" />
    <glyph glyph-name="Eng" unicode="&#x14a;" horiz-adv-x="651" 
d="M150 658h94l-28 -134c28 44 44 64 69 85c48 42 113 66 177 66c107 0 177 -62 177 -155c0 -20 -4 -50 -11 -84l-112 -527c-15 -67 -41 -86 -124 -86h-82l13 58h8c69 0 82 15 104 117l88 416c6 29 9 48 9 63c0 68 -47 111 -122 111c-63 0 -124 -31 -164 -83
c-28 -36 -46 -80 -60 -148l-76 -357h-100z" />
    <glyph glyph-name="Tbar" unicode="&#x166;" horiz-adv-x="531" 
d="M350 412h179l-15 -70h-179l-73 -342h-100l73 342h-179l15 70h179l36 170h-218l18 85h536l-18 -85h-218z" />
    <glyph glyph-name="eng" unicode="&#x14b;" horiz-adv-x="554" 
d="M110 479h85l-20 -97c51 76 112 111 194 111c88 0 144 -48 144 -121c0 -17 -4 -46 -9 -72l-82 -387c-9 -42 -24 -63 -52 -75c-14 -6 -26 -7 -68 -7h-74l9 45h8c60 0 79 14 90 62l73 345c5 22 7 39 7 50c0 51 -36 83 -94 83c-47 0 -95 -23 -125 -61
c-21 -26 -35 -58 -45 -108l-53 -247h-90z" />
    <glyph glyph-name="tbar" unicode="&#x167;" horiz-adv-x="301" 
d="M203 341h78l-12 -57h-79l-28 -133c-4 -22 -7 -39 -7 -48c0 -25 17 -37 53 -37c11 0 23 1 40 3l-15 -69c-29 -3 -45 -4 -66 -4c-76 0 -109 24 -109 80c0 13 2 25 9 61l32 147h-66l12 57h66l17 79h-86l13 61h86l32 151h91l-32 -151h104l-13 -61h-103z" />
    <glyph glyph-name="kgreenlandic" unicode="&#x138;" horiz-adv-x="505" 
d="M541 481l-246 -194l167 -287h-110l-130 227l-88 -68l-34 -159h-92l102 481h92l-48 -225l281 225h106z" />
    <glyph glyph-name="napostrophe" unicode="&#x149;" horiz-adv-x="579" 
d="M173 483h85l-13 -64c57 55 103 77 159 77c78 0 130 -46 130 -115c0 -19 -2 -35 -9 -66l-67 -315h-92l66 310c9 40 9 40 9 52c0 36 -21 57 -57 57c-32 0 -69 -15 -98 -40c-37 -31 -58 -70 -71 -131l-53 -248h-91zM197 667l-15 -69c-16 -72 -46 -102 -115 -114l7 35
c39 9 57 26 65 63h-43l18 85h83z" />
    <glyph glyph-name="Wacute" unicode="&#x1e82;" horiz-adv-x="357" 
d="M326 302l-18 -83h-272l18 83h272z" />
    <glyph glyph-name="uni2006" unicode="&#x2006;" horiz-adv-x="67" 
 />
    <glyph glyph-name="uni2007" unicode="&#x2007;" horiz-adv-x="556" 
 />
    <glyph glyph-name="uni00A0" unicode="&#xa0;" horiz-adv-x="300" 
 />
    <glyph glyph-name="smileface" unicode="&#x263a;" horiz-adv-x="667" 
d="M355 650c169 0 311 -144 311 -316c0 -175 -142 -317 -316 -317c-176 0 -317 142 -317 319c0 174 143 314 322 314zM354 608c-84 0 -153 -30 -208 -91c-45 -50 -71 -116 -71 -181c0 -154 122 -277 275 -277c152 0 275 123 275 275c0 149 -124 274 -271 274zM257 465
c23 0 43 -20 43 -44s-20 -44 -44 -44s-44 20 -44 44c0 25 20 44 45 44zM450 465c23 0 43 -20 43 -44s-20 -44 -44 -44s-44 20 -44 44c0 25 20 44 45 44zM556 372c-5 -81 -18 -120 -50 -161c-37 -46 -90 -70 -156 -70c-72 0 -128 28 -164 82c-27 39 -36 74 -42 149
c10 -44 19 -62 42 -89c41 -47 94 -70 164 -70s123 23 165 70c22 27 31 45 41 89z" />
    <glyph glyph-name="invsmileface" unicode="&#x263b;" horiz-adv-x="667" 
d="M355 650c169 0 311 -144 311 -317c0 -174 -142 -316 -316 -316c-176 0 -317 142 -317 319c0 174 143 314 322 314zM256 465c-24 0 -44 -19 -44 -44c0 -24 19 -44 44 -44c24 0 43 20 43 44s-20 44 -43 44zM450 465c-25 0 -45 -19 -45 -44c0 -24 20 -44 44 -44s44 20 44 44
s-20 44 -43 44zM556 372c-10 -44 -19 -63 -41 -89c-42 -47 -95 -70 -165 -70s-123 23 -164 70c-23 26 -32 45 -42 89c6 -82 18 -121 51 -161c37 -46 89 -70 155 -70c72 0 129 28 165 82c26 40 36 74 41 149z" />
    <glyph glyph-name="heart" unicode="&#x2665;" horiz-adv-x="667" 
d="M349 -11c-22 89 -56 147 -186 321c-72 98 -90 137 -90 195c0 75 57 134 129 134c48 0 92 -25 120 -68c11 -16 17 -31 27 -62c24 86 75 131 147 131c73 0 132 -59 132 -131c0 -67 -28 -125 -110 -229c-99 -124 -151 -213 -169 -291z" />
    <glyph glyph-name="diamond" unicode="&#x2666;" horiz-adv-x="667" 
d="M350 693c30 -63 183 -279 254 -359c-95 -113 -198 -259 -254 -360c-42 80 -143 224 -253 360c134 168 200 262 253 359z" />
    <glyph glyph-name="club" unicode="&#x2663;" horiz-adv-x="667" 
d="M578 0h-455v18c150 21 221 103 221 256c-17 -29 -24 -40 -34 -52c-36 -46 -92 -75 -146 -75c-79 0 -144 68 -144 152c0 82 58 147 132 147c26 0 34 -3 86 -29c-25 38 -35 66 -35 100c0 79 66 143 148 143c81 0 147 -64 147 -143c0 -34 -10 -62 -35 -100
c54 27 60 29 86 29c74 0 132 -65 132 -147c0 -85 -65 -152 -146 -152c-49 0 -106 28 -140 69c-10 13 -18 24 -38 58c2 -86 17 -135 59 -182c42 -43 70 -56 162 -74v-18z" />
    <glyph glyph-name="spade" unicode="&#x2660;" horiz-adv-x="667" 
d="M124 0v18c93 18 124 32 165 78c37 43 53 91 56 159c-7 -15 -10 -21 -13 -28c-26 -44 -79 -74 -132 -74c-65 0 -120 57 -120 125c0 57 32 108 104 169c96 78 149 155 164 239c35 -106 52 -131 151 -222c98 -89 121 -125 121 -187c0 -69 -54 -123 -122 -123
c-58 0 -101 31 -140 101c8 -144 73 -212 226 -237v-18h-460z" />
    <glyph glyph-name="male" unicode="&#x2642;" horiz-adv-x="667" 
d="M586 499l-152 -151c24 -33 36 -69 36 -110c0 -100 -81 -182 -180 -182s-180 82 -180 183c0 100 81 182 180 182c42 0 78 -13 112 -39l151 151c-26 6 -77 25 -106 40c-15 8 -21 14 -21 23c0 7 6 12 13 12c5 0 9 -1 20 -3c32 -7 53 -9 83 -9c44 0 64 2 105 14l10 1
c6 0 10 -4 10 -10c0 -4 0 -4 -5 -23c-7 -28 -10 -51 -10 -87c0 -33 2 -52 9 -84c2 -11 3 -15 3 -20c0 -7 -5 -13 -12 -13c-9 0 -11 2 -23 21c-18 26 -36 70 -43 104zM292 374c-76 0 -135 -59 -135 -135c0 -74 60 -135 133 -135c74 0 133 60 133 135c0 74 -59 135 -131 135z
" />
    <glyph glyph-name="female" unicode="&#x2640;" horiz-adv-x="667" 
d="M325 209v105c-91 14 -155 90 -155 182c0 101 80 183 179 183c100 0 181 -82 181 -183c0 -93 -65 -168 -157 -182v-105h163v-43h-163v-166h-48v166h-161v43h161zM352 632c-76 0 -135 -60 -135 -136c0 -74 60 -135 133 -135c74 0 133 61 133 135s-59 136 -131 136z" />
    <glyph glyph-name="musicalnote" unicode="&#x266a;" horiz-adv-x="667" 
d="M323 156v511h46v-61c8 -10 13 -17 15 -18l52 -63c62 -73 91 -146 91 -225c0 -60 -20 -116 -57 -162h-28c24 56 33 97 33 149c0 86 -48 165 -106 173v-304c0 -96 -63 -165 -152 -165c-43 0 -69 23 -69 61c0 60 57 115 121 115c17 0 38 -4 54 -11z" />
    <glyph glyph-name="uni266C" unicode="&#x266c;" horiz-adv-x="667" 
d="M633 694v-502c0 -35 -5 -56 -17 -81c-25 -51 -78 -83 -135 -83c-43 0 -68 22 -68 60c0 61 57 115 120 115c18 0 38 -4 54 -11v270l-329 -90v-236c0 -95 -63 -163 -152 -163c-43 0 -69 22 -69 60c0 59 57 113 121 113c18 0 37 -4 54 -10v451zM258 448l329 90v70l-329 -90
v-70z" />
    <glyph glyph-name="sun" unicode="&#x263c;" horiz-adv-x="667" 
d="M176 472l-75 75l35 35l75 -75c33 27 73 43 114 48v105h50v-105c42 -5 83 -22 113 -47l75 74l35 -35l-74 -75c26 -32 41 -70 47 -113h105v-51h-105c-6 -43 -21 -80 -47 -114l74 -74l-35 -35l-75 74c-33 -26 -70 -42 -113 -47v-105h-50v105c-40 4 -77 19 -114 47l-75 -74
l-35 35l74 74c-25 32 -42 73 -46 114h-105v51h105c5 44 19 78 47 113zM353 493c-91 0 -163 -70 -163 -158c0 -89 71 -161 160 -161c88 0 159 72 159 160c0 86 -72 159 -156 159z" />
    <glyph glyph-name="uni2218" unicode="&#x2218;" 
d="M269 479c74 0 135 -63 135 -139c0 -78 -61 -140 -137 -140s-138 63 -138 139c0 78 62 140 140 140zM268 431c-51 0 -92 -40 -92 -92c0 -50 41 -91 91 -91s90 41 90 91s-41 92 -89 92z" />
    <glyph glyph-name="openbullet" unicode="&#x25e6;" 
d="M269 479c74 0 135 -63 135 -139c0 -78 -61 -140 -137 -140s-138 63 -138 139c0 78 62 140 140 140zM268 431c-51 0 -92 -40 -92 -92c0 -50 41 -91 91 -91s90 41 90 91s-41 92 -89 92z" />
    <glyph glyph-name="invbullet" unicode="&#x25d8;" horiz-adv-x="667" 
d="M17 0v667h667v-667h-667zM353 473c-79 0 -140 -62 -140 -140c0 -76 62 -139 138 -139s137 62 137 140c0 76 -62 139 -135 139z" />
    <glyph glyph-name="circle" unicode="&#x25cb;" horiz-adv-x="667" 
d="M351 589c143 0 260 -114 260 -255c0 -142 -117 -257 -260 -257c-146 0 -261 114 -261 260c0 138 118 252 261 252zM351 543c-117 0 -214 -94 -214 -207c0 -119 94 -213 214 -213c117 0 213 95 213 211c0 115 -96 209 -213 209z" />
    <glyph glyph-name="invcircle" unicode="&#x25d9;" horiz-adv-x="667" 
d="M684 0h-667v667h667v-667zM351 590c-143 0 -261 -114 -261 -252c0 -146 115 -261 261 -261c143 0 260 116 260 257s-117 256 -260 256zM351 543c117 0 213 -94 213 -209c0 -116 -96 -211 -213 -211c-120 0 -214 94 -214 213c0 113 97 207 214 207z" />
    <glyph glyph-name="filledrect" unicode="&#x25ac;" horiz-adv-x="667" 
d="M684 333v-333h-667v333h667z" />
    <glyph glyph-name="uni25AE" unicode="&#x25ae;" horiz-adv-x="667" 
d="M516 0h-333v667h333v-667z" />
    <glyph glyph-name="filledbox" unicode="&#x25a0;" horiz-adv-x="667" 
d="M684 0h-667v667h667v-667z" />
    <glyph glyph-name="uni25A1" unicode="&#x25a1;" horiz-adv-x="667" 
d="M684 0h-667v667h667v-667zM637 47v573h-573v-573h573z" />
    <glyph glyph-name="uni25AF" unicode="&#x25af;" horiz-adv-x="667" 
d="M351 589c143 0 260 -114 260 -255c0 -142 -117 -257 -260 -257c-146 0 -261 114 -261 260c0 138 118 252 261 252z" />
    <glyph glyph-name="triagup" unicode="&#x25b2;" horiz-adv-x="667" 
d="M650 67h-600l300 561z" />
    <glyph glyph-name="uni25B8" unicode="&#x25b8;" 
d="M88 119v433l405 -217z" />
    <glyph glyph-name="uni25C2" unicode="&#x25c2;" 
d="M445 552v-433l-405 216z" />
    <glyph glyph-name="uni25B4" unicode="&#x25b4;" 
d="M483 147h-433l217 405z" />
    <glyph glyph-name="uni25BE" unicode="&#x25be;" 
d="M50 520h433l-216 -405z" />
    <glyph glyph-name="arrowright" unicode="&#x2192;" horiz-adv-x="667" 
d="M30 310v51h500c-20 25 -52 89 -52 104c0 8 6 14 15 14c7 0 10 -2 22 -17c34 -40 68 -67 132 -104c18 -9 23 -14 23 -20c0 -8 -2 -11 -16 -19c-83 -50 -102 -65 -145 -116c-6 -7 -10 -9 -16 -9c-9 0 -15 6 -15 15c0 16 24 62 52 101h-500z" />
    <glyph glyph-name="arrowleft" unicode="&#x2190;" horiz-adv-x="667" 
d="M670 363v-51h-500c20 -25 52 -89 52 -104c0 -8 -6 -14 -15 -14c-7 0 -10 2 -22 17c-34 40 -69 67 -132 104c-18 9 -23 14 -23 20c0 8 2 11 16 19c82 49 103 65 145 116c6 7 10 9 16 9c9 0 15 -6 15 -15c0 -16 -24 -62 -52 -101h500z" />
    <glyph glyph-name="arrowboth" unicode="&#x2194;" horiz-adv-x="667" 
d="M530 310h-361c29 -39 53 -85 53 -101c0 -9 -6 -15 -15 -15c-8 0 -8 1 -24 19c-38 43 -62 62 -143 110c-7 3 -10 8 -10 15c0 6 5 11 23 20c63 36 98 64 132 103c12 15 15 17 22 17c9 0 15 -6 15 -14c0 -15 -31 -75 -53 -103h361c-20 25 -52 88 -52 103c0 8 6 14 15 14
c7 0 10 -2 22 -17c34 -39 69 -67 132 -103c18 -10 23 -14 23 -20c0 -8 -2 -11 -16 -19c-84 -50 -102 -65 -145 -116c-6 -7 -10 -9 -16 -9c-9 0 -15 6 -15 15c0 16 24 62 52 101z" />
    <glyph glyph-name="arrowup" unicode="&#x2191;" horiz-adv-x="667" 
d="M377 13h-51v500c-24 -20 -89 -52 -104 -52c-8 0 -14 6 -14 15c0 7 2 10 17 23c40 33 68 70 103 132c10 18 15 23 21 23c8 0 11 -2 19 -17c49 -82 65 -102 116 -145c7 -6 9 -10 9 -16c0 -9 -6 -15 -15 -15c-16 0 -62 24 -101 52v-500z" />
    <glyph glyph-name="arrowdown" unicode="&#x2193;" horiz-adv-x="667" 
d="M324 653h51v-500c26 21 89 52 104 52c8 0 14 -6 14 -15c0 -7 -2 -10 -17 -22c-40 -34 -68 -70 -103 -132c-10 -18 -15 -23 -21 -23c-8 0 -11 2 -19 16c-50 84 -65 102 -116 145c-7 6 -9 10 -9 16c0 9 6 15 15 15c16 0 60 -23 101 -52v500z" />
    <glyph glyph-name="arrowupdn" unicode="&#x2195;" horiz-adv-x="667" 
d="M377 513v-361c39 30 85 54 101 54c9 0 15 -6 15 -15c0 -8 -1 -8 -19 -24c-43 -38 -62 -62 -110 -144c-4 -7 -9 -10 -15 -10s-11 5 -20 23c-35 61 -64 99 -104 132c-15 13 -17 16 -17 23c0 9 6 15 14 15c15 0 78 -32 104 -54v361c-25 -20 -89 -52 -104 -52
c-8 0 -14 6 -14 15c0 7 2 10 17 23c40 33 69 70 104 132c9 18 14 23 20 23c8 0 11 -2 19 -17c49 -82 65 -102 116 -145c7 -6 9 -10 9 -16c0 -9 -6 -15 -15 -15c-16 0 -62 24 -101 52z" />
    <glyph glyph-name="arrowupdnbse" unicode="&#x21a8;" horiz-adv-x="667" 
d="M377 513v-361c39 30 85 54 101 54c9 0 15 -6 15 -15c0 -8 -1 -8 -19 -24c-43 -38 -62 -62 -110 -144c-4 -7 -9 -10 -15 -10s-11 6 -21 23c-34 62 -63 99 -103 132c-15 13 -17 16 -17 23c0 9 6 15 14 15c15 0 77 -32 104 -54v361c-24 -19 -89 -52 -104 -52
c-8 0 -14 6 -14 15c0 7 2 10 17 23c40 33 69 70 104 132c9 18 14 23 20 23c8 0 11 -2 19 -17c49 -82 65 -102 116 -145c7 -6 9 -10 9 -16c0 -9 -6 -15 -15 -15c-16 0 -62 24 -101 52zM218 -68h264v-43h-264v43z" />
    <glyph glyph-name="lozenge" unicode="&#x25ca;" horiz-adv-x="667" 
d="M350 693l259 -359l-259 -360l-260 360zM350 604l-197 -270l197 -271l197 271z" />
    <glyph glyph-name="triagdn" unicode="&#x25bc;" horiz-adv-x="667" 
d="M50 600h600l-300 -561z" />
    <glyph glyph-name="Delta" unicode="&#x2206;" horiz-adv-x="629" 
d="M23 0l259 667h97l260 -667h-616zM145 83h370l-184 483z" />
    <glyph glyph-name="notequal" unicode="&#x2260;" 
d="M284 451l63 125l65 -31l-48 -94h120v-83h-154l-46 -93h199v-83h-231l-60 -120l-65 30l44 90h-121v83h153l46 93h-199v83h234z" />
    <glyph glyph-name="equivalence" unicode="&#x2261;" 
d="M50 552h433v-87h-433v87zM50 377h433v-87h-433v87zM50 202h433v-87h-433v87z" />
    <glyph glyph-name="radical" unicode="&#x221a;" horiz-adv-x="667" 
d="M684 827v-79h-186l-214 -748h-106l-79 284h-82v79h137l39 -131c4 -15 5 -18 30 -137h5c2 11 4 19 4 20c11 43 21 86 31 129c7 28 16 62 28 104l27 93l110 386h256z" />
    <glyph glyph-name="integral" unicode="&#x222b;" 
d="M100 -240l18 89c17 -8 27 -10 40 -10c26 0 46 13 53 34c5 13 5 16 5 95v547c1 117 1 117 9 145c16 55 69 90 139 90c22 0 38 -2 69 -10l-18 -89c-17 8 -26 10 -41 10c-26 0 -45 -12 -52 -34c-4 -11 -5 -28 -5 -67v-573c0 -128 -3 -148 -27 -181c-25 -35 -74 -54 -139 -54
c-23 0 -33 2 -51 8z" />
    <glyph glyph-name="integraltp" unicode="&#x2320;" 
d="M317 -250h-101v765c1 117 1 117 9 145c16 55 69 90 139 90c22 0 38 -2 69 -10l-18 -89c-17 8 -26 10 -41 10c-26 0 -45 -12 -52 -34c-4 -11 -5 -28 -5 -67v-810z" />
    <glyph glyph-name="integralbt" unicode="&#x2321;" 
d="M216 750h101v-765c-1 -116 -1 -116 -9 -145c-16 -55 -69 -90 -138 -90c-23 0 -38 2 -70 10l18 89c17 -8 27 -10 41 -10c26 0 45 12 52 34c4 11 5 26 5 67v810z" />
    <glyph glyph-name="similar" unicode="&#x223c;" 
d="M78 253l-51 41c35 80 82 120 140 120c26 0 57 -10 114 -37c55 -26 68 -31 89 -31c33 0 58 20 86 70l51 -41c-34 -79 -83 -119 -144 -119c-27 0 -45 6 -121 43c-36 17 -60 25 -80 25c-32 0 -56 -20 -84 -71z" />
    <glyph glyph-name="approxequal" unicode="&#x2248;" 
d="M78 348l-51 35c35 79 82 119 140 119c26 0 58 -10 114 -37s68 -31 89 -31c35 0 53 14 86 65l51 -35c-35 -82 -81 -119 -148 -119c-26 0 -42 5 -117 42c-36 17 -61 25 -80 25c-31 0 -52 -16 -84 -64zM78 164l-51 35c35 80 82 120 140 120c26 0 57 -10 114 -37
c56 -27 68 -31 89 -31c34 0 53 14 86 64l51 -35c-35 -81 -81 -118 -148 -118c-26 0 -42 5 -117 42c-36 17 -61 25 -80 25c-31 0 -52 -16 -84 -65z" />
    <glyph glyph-name="lessequal" unicode="&#x2264;" 
d="M483 609v-94l-324 -121l324 -121v-94l-433 173v85zM483 150v-87h-433v87h433z" />
    <glyph glyph-name="greaterequal" unicode="&#x2265;" 
d="M50 179v94l324 121l-324 121v94l433 -172v-85zM50 63v87h433v-87h-433z" />
    <glyph glyph-name="uni2319" unicode="&#x2319;" 
d="M147 281v-194h336v-87h-433v281h97z" />
    <glyph glyph-name="revlogicalnot" unicode="&#x2310;" 
d="M147 0h-97v281h433v-87h-336v-194z" />
    <glyph glyph-name="union" unicode="&#x222a;" horiz-adv-x="573" 
d="M51 667h95v-314c0 -120 6 -164 26 -197c27 -43 78 -71 131 -71c58 0 113 32 137 80c16 32 21 80 21 188v314h95v-311c0 -166 -7 -205 -45 -256c-47 -65 -120 -100 -207 -100c-95 0 -176 43 -220 117c-27 46 -33 89 -33 239v311z" />
    <glyph glyph-name="intersection" unicode="&#x2229;" horiz-adv-x="573" 
d="M556 0h-95v314c0 120 -6 164 -26 197c-27 43 -78 71 -131 71c-58 0 -113 -32 -137 -80c-16 -32 -21 -80 -21 -188v-314h-95v311c0 166 7 205 45 256c47 65 120 100 207 100c95 0 176 -43 220 -117c27 -46 33 -88 33 -239v-311z" />
    <glyph glyph-name="infinity" unicode="&#x221e;" horiz-adv-x="667" 
d="M351 294c-51 -74 -103 -107 -165 -107c-89 0 -151 63 -151 153c0 89 63 152 152 152c60 0 113 -35 162 -106c50 74 101 106 166 106c88 0 150 -63 150 -153c0 -89 -62 -152 -149 -152c-65 0 -116 33 -165 107zM384 340c43 -66 78 -92 123 -92c51 0 88 38 88 91
s-37 92 -88 92c-45 0 -78 -24 -123 -91zM316 339c-41 65 -78 92 -123 92c-51 0 -88 -38 -88 -91s37 -92 88 -92c45 0 78 25 123 91z" />
    <glyph glyph-name="uni222E" unicode="&#x222e;" 
d="M99 -240l18 89c21 -8 31 -10 46 -10c26 0 45 13 52 34c3 10 5 36 5 69v138c-79 12 -142 92 -142 178c0 89 57 160 142 179v132c0 62 6 94 22 121c24 40 63 60 117 60c23 0 40 -2 74 -10l-19 -89c-19 8 -30 10 -46 10c-26 0 -44 -12 -51 -34c-4 -11 -5 -25 -5 -61v-129
c35 -8 53 -16 75 -33c43 -34 69 -88 69 -146c0 -88 -62 -165 -144 -178v-142c0 -75 -4 -98 -21 -127c-24 -41 -64 -61 -126 -61c-28 0 -43 2 -66 10zM312 390v-262c60 15 97 65 97 131c0 64 -40 118 -97 131zM220 128v262c-56 -13 -95 -67 -95 -131c0 -63 40 -119 95 -131z
" />
    <glyph glyph-name="product" unicode="&#x220f;" horiz-adv-x="667" 
d="M41 750h617v-77h-73v-846h73v-77h-231v77h73v846h-300v-846h71v-77h-230v77h74v846h-74v77z" />
    <glyph glyph-name="summation" unicode="&#x2211;" horiz-adv-x="667" 
d="M621 750v-236h-86l-9 148h-370l248 -393l-247 -432h378l5 151h90v-238h-579v101l241 417l-241 382v100h570z" />
    <glyph glyph-name="afii61289" unicode="&#x2113;" 
d="M265 263c-13 -66 -28 -173 -28 -198c0 -17 5 -25 17 -25c16 0 26 12 46 52c7 14 12 19 21 19s15 -7 15 -17c0 -15 -8 -35 -22 -57c-23 -37 -51 -56 -82 -56c-49 0 -75 35 -75 100c0 23 1 46 7 106c-20 -22 -45 -43 -52 -43c-6 0 -14 11 -14 21c0 8 4 15 17 28
c14 13 35 36 56 62c54 289 116 419 202 419c43 0 70 -34 70 -87s-25 -125 -66 -189c-22 -36 -54 -74 -112 -135zM274 324c46 50 75 95 97 150c15 40 27 88 27 114c0 20 -10 35 -24 35c-38 0 -62 -71 -100 -299z" />
    <glyph glyph-name="partialdiff" unicode="&#x2202;" 
d="M96 594l11 75c116 -15 189 -45 254 -105c82 -77 127 -189 127 -318c0 -68 -12 -116 -40 -159c-40 -61 -107 -97 -180 -97c-125 0 -222 98 -222 224c0 123 90 220 205 220c36 0 77 -11 99 -27c10 -6 18 -15 42 -40c-4 9 -7 15 -8 18c-9 18 -17 36 -25 54
c-44 83 -142 141 -263 155zM272 363c-80 0 -142 -65 -142 -150c0 -81 62 -148 136 -148c78 0 136 65 136 152c0 83 -56 146 -130 146z" />
    <glyph glyph-name="underscoredbl" unicode="&#x2017;" 
d="M17 -57h500v-45h-500v45zM17 -174h500v-45h-500v45z" />
    <glyph glyph-name="uni203E" unicode="&#x203e;" 
d="M17 860h500v-61h-500v61z" />
    <glyph glyph-name="emptyset" unicode="&#x2205;" horiz-adv-x="618" 
d="M455 667l48 -25l-48 -88c75 -53 113 -122 113 -204c0 -136 -109 -243 -248 -243c-33 0 -56 5 -79 16l-63 -123l-48 25l61 122c-72 53 -108 120 -108 202c0 136 108 243 244 243c29 0 51 -4 81 -14zM432 502l-165 -330c24 -6 39 -8 58 -8c103 0 187 83 187 185
c0 63 -31 123 -80 153zM216 198l166 329c-21 6 -34 8 -54 8c-104 0 -189 -83 -189 -185c0 -60 26 -111 77 -152z" />
    <glyph glyph-name="exclamdbl" unicode="&#x203c;" horiz-adv-x="414" 
d="M167 667v-177l-24 -296h-50l-24 294v179h98zM168 129v-129h-101v129h101zM378 667v-177l-24 -296h-50l-24 294v179h98zM380 129v-129h-101v129h101z" />
    <glyph glyph-name="H18551" unicode="&#x25ab;" horiz-adv-x="341" 
d="M36 490h116v113h69v-113h117v-64h-117v-114h-69v114h-116v64z" />
    <glyph glyph-name="orthogonal" unicode="&#x221f;" horiz-adv-x="341" 
d="M36 490h302v-64h-302v64z" />
    <glyph glyph-name="house" unicode="&#x2302;" horiz-adv-x="751" 
d="M101 0v401l291 328l292 -328v-401h-583zM152 51h481v328l-241 270l-240 -270v-328z" />
    <glyph glyph-name="uni2126" unicode="&#x2126;" horiz-adv-x="666" 
d="M44 0v83h171c-116 69 -173 161 -173 282c0 178 135 318 307 318s308 -140 308 -318c0 -121 -57 -213 -173 -282h171v-83h-263v77c47 26 72 46 100 80c47 59 69 119 69 192c0 141 -93 251 -211 251c-119 0 -212 -110 -212 -250c0 -121 56 -211 168 -273v-77h-262z" />
    </font>
</defs>
</svg>
